<?xml version="1.0" encoding="utf-8" standalone="no"?>
<!DOCTYPE svg PUBLIC "-//W3C//DTD SVG 1.1//EN"
  "http://www.w3.org/Graphics/SVG/1.1/DTD/svg11.dtd">
<svg xmlns:xlink="http://www.w3.org/1999/xlink" width="364.208931pt" height="337.397538pt" viewBox="0 0 364.208931 337.397538" xmlns="http://www.w3.org/2000/svg" version="1.1">
 <metadata>
  <rdf:RDF xmlns:dc="http://purl.org/dc/elements/1.1/" xmlns:cc="http://creativecommons.org/ns#" xmlns:rdf="http://www.w3.org/1999/02/22-rdf-syntax-ns#">
   <cc:Work>
    <dc:type rdf:resource="http://purl.org/dc/dcmitype/StillImage"/>
    <dc:date>2023-10-12T20:06:29.199926</dc:date>
    <dc:format>image/svg+xml</dc:format>
    <dc:creator>
     <cc:Agent>
      <dc:title>Matplotlib v3.6.2, https://matplotlib.org/</dc:title>
     </cc:Agent>
    </dc:creator>
   </cc:Work>
  </rdf:RDF>
 </metadata>
 <defs>
  <style type="text/css">*{stroke-linejoin: round; stroke-linecap: butt}</style>
 </defs>
 <g id="figure_1">
  <g id="patch_1">
   <path d="M 0 337.397538 
L 364.208931 337.397538 
L 364.208931 0 
L 0 0 
z
" style="fill: #ffffff"/>
  </g>
  <g id="axes_1">
   <g id="patch_2">
    <path d="M 32.271321 330.197538 
L 355.26886 330.197538 
L 355.26886 7.2 
L 32.271321 7.2 
z
" style="fill: #ffffff"/>
   </g>
   <g id="PathCollection_1">
    <path d="M 116.910731 170.267328 
L 120.047847 169.012481 
L 123.184964 168.873053 
L 126.322081 168.819428 
L 129.459198 168.791037 
L 132.596314 168.773462 
L 135.733431 168.761512 
L 138.870548 168.752857 
L 142.007665 168.746301 
L 145.144781 168.741163 
L 148.281898 168.737027 
L 151.419015 168.733626 
L 154.556131 168.730781 
L 157.693248 168.728365 
L 160.830365 168.726288 
L 163.967482 168.724483 
L 167.104598 168.722901 
L 170.241715 168.721502 
L 173.378832 168.720256 
L 176.515949 168.71914 
L 179.653065 168.718134 
L 182.790182 168.717223 
L 185.927299 168.716393 
L 189.064416 168.715635 
L 192.201532 168.71494 
L 195.338649 168.7143 
L 198.475766 168.713708 
L 201.612882 168.71316 
L 204.749999 168.71265 
L 207.887116 168.712176 
L 211.024233 168.711733 
L 214.161349 168.711318 
L 217.298466 168.710929 
L 220.435583 168.710563 
L 223.5727 168.710219 
L 226.709816 168.709894 
L 229.846933 168.709587 
L 232.98405 168.709296 
L 236.121166 168.709021 
L 239.258283 168.70876 
L 242.3954 168.708512 
L 245.532517 168.708276 
L 248.669633 168.708051 
L 251.80675 168.707836 
L 254.943867 168.707631 
L 258.080984 168.707435 
L 261.2181 168.707248 
L 264.355217 168.707068 
L 267.492334 168.706896 
L 270.62945 168.706731 
L 273.766567 168.706573 
L 276.903684 168.706421 
L 280.040801 168.706274 
L 283.177917 168.706133 
L 286.315034 168.705998 
L 289.452151 168.705867 
L 292.589268 168.705741 
L 295.726384 168.705619 
L 298.863501 168.705501 
L 302.000618 168.705388 
L 305.137735 168.705278 
L 308.274851 168.705172 
L 311.411968 168.705069 
L 314.549085 168.704969 
L 317.686201 168.704873 
L 320.823318 168.704779 
L 323.960435 168.704688 
L 327.097552 168.7046 
L 330.234668 168.704515 
L 333.371785 168.704432 
L 336.508902 168.704351 
L 339.646019 168.704273 
L 342.783135 168.704197 
L 345.920252 168.704123 
L 349.025254 167.130211 
L 348.768677 163.993094 
L 348.257246 160.855977 
L 347.494267 157.718861 
L 346.484522 154.581744 
L 345.920252 153.328762 
L 345.215907 151.444627 
L 343.693562 148.30751 
L 342.783135 146.800285 
L 341.919292 145.170394 
L 339.896474 142.033277 
L 339.646019 141.719578 
L 337.608505 138.89616 
L 336.508902 137.605445 
L 335.072563 135.759044 
L 333.371785 133.907388 
L 332.284876 132.621927 
L 330.234668 130.560607 
L 329.243198 129.48481 
L 327.097552 127.493817 
L 325.946887 126.347693 
L 323.960435 124.643769 
L 322.396977 123.210577 
L 320.823318 121.95917 
L 318.596218 120.07346 
L 317.686201 119.400154 
L 314.549085 116.936343 
L 314.549085 116.936343 
L 311.411968 114.694263 
L 310.229076 113.799226 
L 308.274851 112.496515 
L 305.670087 110.66211 
L 305.137735 110.329459 
L 302.000618 108.302502 
L 300.849229 107.524993 
L 298.863501 106.332419 
L 295.788854 104.387876 
L 295.726384 104.352506 
L 292.589268 102.543551 
L 290.455876 101.25076 
L 289.452151 100.704697 
L 286.315034 98.947873 
L 284.877097 98.113643 
L 283.177917 97.225921 
L 280.040801 95.528006 
L 279.047814 94.976526 
L 276.903684 93.900777 
L 273.766567 92.265875 
L 272.964777 91.839409 
L 270.62945 90.713626 
L 267.492334 89.143787 
L 266.626433 88.702293 
L 264.355217 87.649329 
L 261.2181 86.145066 
L 260.033171 85.565176 
L 258.080984 84.693666 
L 254.943867 83.254375 
L 253.187566 82.428059 
L 251.80675 81.833555 
L 248.669633 80.457846 
L 246.094615 79.290942 
L 245.532517 79.057124 
L 242.3954 77.74307 
L 239.258283 76.379167 
L 238.743279 76.153826 
L 236.121166 75.099027 
L 232.98405 73.799786 
L 231.13153 73.016709 
L 229.846933 72.515967 
L 226.709816 71.278318 
L 223.5727 69.998174 
L 223.282226 69.879592 
L 220.435583 68.806126 
L 217.298466 67.588992 
L 215.161122 66.742476 
L 214.161349 66.375636 
L 211.024233 65.217945 
L 207.887116 64.024119 
L 206.794122 63.605359 
L 204.749999 62.878521 
L 201.612882 61.744564 
L 198.475766 60.576236 
L 198.184486 60.468242 
L 195.338649 59.487237 
L 192.201532 58.37879 
L 189.312361 57.331125 
L 189.064416 57.247301 
L 185.927299 56.194892 
L 182.790182 55.113327 
L 180.180417 54.194009 
L 179.653065 54.020499 
L 176.515949 52.994573 
L 173.378832 51.940929 
L 170.799425 51.056892 
L 170.241715 50.878028 
L 167.104598 49.879452 
L 163.967482 48.854514 
L 161.169924 47.919775 
L 160.830365 47.813408 
L 157.693248 46.842856 
L 154.556131 45.847223 
L 151.419015 44.824576 
L 151.288214 44.782658 
L 148.281898 43.878292 
L 145.144781 42.912442 
L 142.007665 41.92077 
L 141.129683 41.645542 
L 138.870548 40.979429 
L 135.733431 40.043786 
L 132.596314 39.083448 
L 130.728659 38.508425 
L 129.459198 38.14004 
L 126.322081 37.23504 
L 123.184964 36.306434 
L 120.108579 35.371308 
L 120.047847 35.353871 
L 116.910731 34.480036 
L 113.773614 33.583691 
L 110.636497 32.662209 
L 109.170555 32.234192 
L 107.499381 31.77244 
L 104.362264 30.909123 
L 101.225147 30.021663 
L 98.08803 29.106475 
L 98.05432 29.097075 
L 94.950914 28.276211 
L 91.813797 27.424104 
L 88.67668 26.545044 
L 86.596105 25.959958 
L 85.539563 25.677268 
L 82.402447 24.862684 
L 79.26533 24.022328 
L 76.128213 23.149822 
L 74.913845 22.822841 
L 72.991097 22.3282 
L 69.85398 21.531194 
L 66.716863 20.703303 
L 63.579746 19.831957 
L 63.003751 19.685725 
L 60.44263 19.059732 
L 57.305513 18.289329 
L 54.168396 17.478117 
L 51.031279 16.587458 
L 50.856649 16.548608 
L 47.894163 15.898958 
L 44.757046 15.235393 
L 41.619929 14.691998 
L 40.278068 16.548608 
L 41.619929 19.685725 
L 41.619929 19.685725 
L 43.26586 22.822841 
L 44.757046 25.959958 
L 44.757046 25.959958 
L 46.373166 29.097075 
L 47.894163 32.234192 
L 47.894163 32.234192 
L 49.497547 35.371308 
L 51.031279 38.508425 
L 51.031279 38.508425 
L 52.627622 41.645542 
L 54.168396 44.782658 
L 54.168396 44.782658 
L 55.760288 47.919775 
L 57.305513 51.056892 
L 57.305513 51.056892 
L 58.894352 54.194009 
L 60.44263 57.331125 
L 60.44263 57.331125 
L 62.029255 60.468242 
L 63.579746 63.605359 
L 63.579746 63.605359 
L 65.164704 66.742476 
L 66.716863 69.879592 
L 66.716863 69.879592 
L 68.300529 73.016709 
L 69.85398 76.153826 
L 69.85398 76.153826 
L 71.436623 79.290942 
L 72.991097 82.428059 
L 72.991097 82.428059 
L 74.572919 85.565176 
L 76.128213 88.702293 
L 76.128213 88.702293 
L 77.709371 91.839409 
L 79.26533 94.976526 
L 79.26533 94.976526 
L 80.845946 98.113643 
L 82.402447 101.25076 
L 82.402447 101.25076 
L 83.982621 104.387876 
L 85.539563 107.524993 
L 85.539563 107.524993 
L 87.119379 110.66211 
L 88.67668 113.799226 
L 88.67668 113.799226 
L 90.256207 116.936343 
L 91.813797 120.07346 
L 91.813797 120.07346 
L 93.393098 123.210577 
L 94.950914 126.347693 
L 94.950914 126.347693 
L 96.530044 129.48481 
L 98.08803 132.621927 
L 98.08803 132.621927 
L 99.667039 135.759044 
L 101.225147 138.89616 
L 101.225147 138.89616 
L 102.804082 142.033277 
L 104.362264 145.170394 
L 104.362264 145.170394 
L 105.94117 148.30751 
L 107.499381 151.444627 
L 107.499381 151.444627 
L 109.078302 154.581744 
L 110.636497 157.718861 
L 110.636497 157.718861 
L 112.215478 160.855977 
L 113.773614 163.993094 
L 113.773614 163.993094 
L 115.352701 167.130211 
z
" clip-path="url(#pcd5e8c248b)" style="fill: #008000; fill-opacity: 0.7"/>
   </g>
   <g id="PathCollection_2">
    <path d="M 38.482813 323.986047 
L 38.482813 323.986047 
L 38.482813 323.986047 
z
" clip-path="url(#pcd5e8c248b)" style="fill: #008000"/>
    <path d="M 116.910731 170.267328 
L 120.047847 169.012481 
L 123.184964 168.873053 
L 126.322081 168.819428 
L 129.459198 168.791037 
L 132.596314 168.773462 
L 135.733431 168.761512 
L 138.870548 168.752857 
L 142.007665 168.746301 
L 145.144781 168.741163 
L 148.281898 168.737027 
L 151.419015 168.733626 
L 154.556131 168.730781 
L 157.693248 168.728365 
L 160.830365 168.726288 
L 163.967482 168.724483 
L 167.104598 168.722901 
L 170.241715 168.721502 
L 173.378832 168.720256 
L 176.515949 168.71914 
L 179.653065 168.718134 
L 182.790182 168.717223 
L 185.927299 168.716393 
L 189.064416 168.715635 
L 192.201532 168.71494 
L 195.338649 168.7143 
L 198.475766 168.713708 
L 201.612882 168.71316 
L 204.749999 168.71265 
L 207.887116 168.712176 
L 211.024233 168.711733 
L 214.161349 168.711318 
L 217.298466 168.710929 
L 220.435583 168.710563 
L 223.5727 168.710219 
L 226.709816 168.709894 
L 229.846933 168.709587 
L 232.98405 168.709296 
L 236.121166 168.709021 
L 239.258283 168.70876 
L 242.3954 168.708512 
L 245.532517 168.708276 
L 248.669633 168.708051 
L 251.80675 168.707836 
L 254.943867 168.707631 
L 258.080984 168.707435 
L 261.2181 168.707248 
L 264.355217 168.707068 
L 267.492334 168.706896 
L 270.62945 168.706731 
L 273.766567 168.706573 
L 276.903684 168.706421 
L 280.040801 168.706274 
L 283.177917 168.706133 
L 286.315034 168.705998 
L 289.452151 168.705867 
L 292.589268 168.705741 
L 295.726384 168.705619 
L 298.863501 168.705501 
L 302.000618 168.705388 
L 305.137735 168.705278 
L 308.274851 168.705172 
L 311.411968 168.705069 
L 314.549085 168.704969 
L 317.686201 168.704873 
L 320.823318 168.704779 
L 323.960435 168.704688 
L 327.097552 168.7046 
L 330.234668 168.704515 
L 333.371785 168.704432 
L 336.508902 168.704351 
L 339.646019 168.704273 
L 342.783135 168.704197 
L 345.920252 168.704123 
L 349.025254 167.130211 
L 348.768677 163.993094 
L 348.257246 160.855977 
L 347.494267 157.718861 
L 346.484522 154.581744 
L 345.920252 153.328762 
L 345.215907 151.444627 
L 343.693562 148.30751 
L 342.783135 146.800285 
L 341.919292 145.170394 
L 339.896474 142.033277 
L 339.646019 141.719578 
L 337.608505 138.89616 
L 336.508902 137.605445 
L 335.072563 135.759044 
L 333.371785 133.907388 
L 332.284876 132.621927 
L 330.234668 130.560607 
L 329.243198 129.48481 
L 327.097552 127.493817 
L 325.946887 126.347693 
L 323.960435 124.643769 
L 322.396977 123.210577 
L 320.823318 121.95917 
L 318.596218 120.07346 
L 317.686201 119.400154 
L 314.549085 116.936343 
L 314.549085 116.936343 
L 311.411968 114.694263 
L 310.229076 113.799226 
L 308.274851 112.496515 
L 305.670087 110.66211 
L 305.137735 110.329459 
L 302.000618 108.302502 
L 300.849229 107.524993 
L 298.863501 106.332419 
L 295.788854 104.387876 
L 295.726384 104.352506 
L 292.589268 102.543551 
L 290.455876 101.25076 
L 289.452151 100.704697 
L 286.315034 98.947873 
L 284.877097 98.113643 
L 283.177917 97.225921 
L 280.040801 95.528006 
L 279.047814 94.976526 
L 276.903684 93.900777 
L 273.766567 92.265875 
L 272.964777 91.839409 
L 270.62945 90.713626 
L 267.492334 89.143787 
L 266.626433 88.702293 
L 264.355217 87.649329 
L 261.2181 86.145066 
L 260.033171 85.565176 
L 258.080984 84.693666 
L 254.943867 83.254375 
L 253.187566 82.428059 
L 251.80675 81.833555 
L 248.669633 80.457846 
L 246.094615 79.290942 
L 245.532517 79.057124 
L 242.3954 77.74307 
L 239.258283 76.379167 
L 238.743279 76.153826 
L 236.121166 75.099027 
L 232.98405 73.799786 
L 231.13153 73.016709 
L 229.846933 72.515967 
L 226.709816 71.278318 
L 223.5727 69.998174 
L 223.282226 69.879592 
L 220.435583 68.806126 
L 217.298466 67.588992 
L 215.161122 66.742476 
L 214.161349 66.375636 
L 211.024233 65.217945 
L 207.887116 64.024119 
L 206.794122 63.605359 
L 204.749999 62.878521 
L 201.612882 61.744564 
L 198.475766 60.576236 
L 198.184486 60.468242 
L 195.338649 59.487237 
L 192.201532 58.37879 
L 189.312361 57.331125 
L 189.064416 57.247301 
L 185.927299 56.194892 
L 182.790182 55.113327 
L 180.180417 54.194009 
L 179.653065 54.020499 
L 176.515949 52.994573 
L 173.378832 51.940929 
L 170.799425 51.056892 
L 170.241715 50.878028 
L 167.104598 49.879452 
L 163.967482 48.854514 
L 161.169924 47.919775 
L 160.830365 47.813408 
L 157.693248 46.842856 
L 154.556131 45.847223 
L 151.419015 44.824576 
L 151.288214 44.782658 
L 148.281898 43.878292 
L 145.144781 42.912442 
L 142.007665 41.92077 
L 141.129683 41.645542 
L 138.870548 40.979429 
L 135.733431 40.043786 
L 132.596314 39.083448 
L 130.728659 38.508425 
L 129.459198 38.14004 
L 126.322081 37.23504 
L 123.184964 36.306434 
L 120.108579 35.371308 
L 120.047847 35.353871 
L 116.910731 34.480036 
L 113.773614 33.583691 
L 110.636497 32.662209 
L 109.170555 32.234192 
L 107.499381 31.77244 
L 104.362264 30.909123 
L 101.225147 30.021663 
L 98.08803 29.106475 
L 98.05432 29.097075 
L 94.950914 28.276211 
L 91.813797 27.424104 
L 88.67668 26.545044 
L 86.596105 25.959958 
L 85.539563 25.677268 
L 82.402447 24.862684 
L 79.26533 24.022328 
L 76.128213 23.149822 
L 74.913845 22.822841 
L 72.991097 22.3282 
L 69.85398 21.531194 
L 66.716863 20.703303 
L 63.579746 19.831957 
L 63.003751 19.685725 
L 60.44263 19.059732 
L 57.305513 18.289329 
L 54.168396 17.478117 
L 51.031279 16.587458 
L 50.856649 16.548608 
L 47.894163 15.898958 
L 44.757046 15.235393 
L 41.619929 14.691998 
L 40.278068 16.548608 
L 41.619929 19.685725 
L 41.619929 19.685725 
L 43.26586 22.822841 
L 44.757046 25.959958 
L 44.757046 25.959958 
L 46.373166 29.097075 
L 47.894163 32.234192 
L 47.894163 32.234192 
L 49.497547 35.371308 
L 51.031279 38.508425 
L 51.031279 38.508425 
L 52.627622 41.645542 
L 54.168396 44.782658 
L 54.168396 44.782658 
L 55.760288 47.919775 
L 57.305513 51.056892 
L 57.305513 51.056892 
L 58.894352 54.194009 
L 60.44263 57.331125 
L 60.44263 57.331125 
L 62.029255 60.468242 
L 63.579746 63.605359 
L 63.579746 63.605359 
L 65.164704 66.742476 
L 66.716863 69.879592 
L 66.716863 69.879592 
L 68.300529 73.016709 
L 69.85398 76.153826 
L 69.85398 76.153826 
L 71.436623 79.290942 
L 72.991097 82.428059 
L 72.991097 82.428059 
L 74.572919 85.565176 
L 76.128213 88.702293 
L 76.128213 88.702293 
L 77.709371 91.839409 
L 79.26533 94.976526 
L 79.26533 94.976526 
L 80.845946 98.113643 
L 82.402447 101.25076 
L 82.402447 101.25076 
L 83.982621 104.387876 
L 85.539563 107.524993 
L 85.539563 107.524993 
L 87.119379 110.66211 
L 88.67668 113.799226 
L 88.67668 113.799226 
L 90.256207 116.936343 
L 91.813797 120.07346 
L 91.813797 120.07346 
L 93.393098 123.210577 
L 94.950914 126.347693 
L 94.950914 126.347693 
L 96.530044 129.48481 
L 98.08803 132.621927 
L 98.08803 132.621927 
L 99.667039 135.759044 
L 101.225147 138.89616 
L 101.225147 138.89616 
L 102.804082 142.033277 
L 104.362264 145.170394 
L 104.362264 145.170394 
L 105.94117 148.30751 
L 107.499381 151.444627 
L 107.499381 151.444627 
L 109.078302 154.581744 
L 110.636497 157.718861 
L 110.636497 157.718861 
L 112.215478 160.855977 
L 113.773614 163.993094 
L 113.773614 163.993094 
L 115.352701 167.130211 
z
M 115.352701 167.130211 
L 113.773614 163.993094 
L 113.773614 163.993094 
L 112.215478 160.855977 
L 110.636497 157.718861 
L 110.636497 157.718861 
L 109.078302 154.581744 
L 107.499381 151.444627 
L 107.499381 151.444627 
L 105.94117 148.30751 
L 104.362264 145.170394 
L 104.362264 145.170394 
L 102.804082 142.033277 
L 101.225147 138.89616 
L 101.225147 138.89616 
L 99.667039 135.759044 
L 98.08803 132.621927 
L 98.08803 132.621927 
L 96.530044 129.48481 
L 94.950914 126.347693 
L 94.950914 126.347693 
L 93.393098 123.210577 
L 91.813797 120.07346 
L 91.813797 120.07346 
L 90.256207 116.936343 
L 88.67668 113.799226 
L 88.67668 113.799226 
L 87.119379 110.66211 
L 85.539563 107.524993 
L 85.539563 107.524993 
L 83.982621 104.387876 
L 82.402447 101.25076 
L 82.402447 101.25076 
L 80.845946 98.113643 
L 79.26533 94.976526 
L 79.26533 94.976526 
L 77.709371 91.839409 
L 76.128213 88.702293 
L 76.128213 88.702293 
L 74.572919 85.565176 
L 72.991097 82.428059 
L 72.991097 82.428059 
L 71.436623 79.290942 
L 69.85398 76.153826 
L 69.85398 76.153826 
L 68.300529 73.016709 
L 66.716863 69.879592 
L 66.716863 69.879592 
L 65.164704 66.742476 
L 63.579746 63.605359 
L 63.579746 63.605359 
L 62.029255 60.468242 
L 60.44263 57.331125 
L 60.44263 57.331125 
L 58.894352 54.194009 
L 57.305513 51.056892 
L 57.305513 51.056892 
L 55.760288 47.919775 
L 54.168396 44.782658 
L 54.168396 44.782658 
L 52.627622 41.645542 
L 51.031279 38.508425 
L 51.031279 38.508425 
L 49.497547 35.371308 
L 47.894163 32.234192 
L 47.894163 32.234192 
L 46.373166 29.097075 
L 44.757046 25.959958 
L 44.757046 25.959958 
L 43.26586 22.822841 
L 41.619929 19.685725 
L 41.619929 19.685725 
L 40.278068 16.548608 
L 41.619929 14.691998 
L 44.757046 15.235393 
L 47.894163 15.898958 
L 50.856649 16.548608 
L 51.031279 16.587458 
L 54.168396 17.478117 
L 57.305513 18.289329 
L 60.44263 19.059732 
L 63.003751 19.685725 
L 63.579746 19.831957 
L 66.716863 20.703303 
L 69.85398 21.531194 
L 72.991097 22.3282 
L 74.913845 22.822841 
L 76.128213 23.149822 
L 79.26533 24.022328 
L 82.402447 24.862684 
L 85.539563 25.677268 
L 86.596105 25.959958 
L 88.67668 26.545044 
L 91.813797 27.424104 
L 94.950914 28.276211 
L 98.05432 29.097075 
L 98.08803 29.106475 
L 101.225147 30.021663 
L 104.362264 30.909123 
L 107.499381 31.77244 
L 109.170555 32.234192 
L 110.636497 32.662209 
L 113.773614 33.583691 
L 116.910731 34.480036 
L 120.047847 35.353871 
L 120.108579 35.371308 
L 123.184964 36.306434 
L 126.322081 37.23504 
L 129.459198 38.14004 
L 130.728659 38.508425 
L 132.596314 39.083448 
L 135.733431 40.043786 
L 138.870548 40.979429 
L 141.129683 41.645542 
L 142.007665 41.92077 
L 145.144781 42.912442 
L 148.281898 43.878292 
L 151.288214 44.782658 
L 151.419015 44.824576 
L 154.556131 45.847223 
L 157.693248 46.842856 
L 160.830365 47.813408 
L 161.169924 47.919775 
L 163.967482 48.854514 
L 167.104598 49.879452 
L 170.241715 50.878028 
L 170.799425 51.056892 
L 173.378832 51.940929 
L 176.515949 52.994573 
L 179.653065 54.020499 
L 180.180417 54.194009 
L 182.790182 55.113327 
L 185.927299 56.194892 
L 189.064416 57.247301 
L 189.312361 57.331125 
L 192.201532 58.37879 
L 195.338649 59.487237 
L 198.184486 60.468242 
L 198.475766 60.576236 
L 201.612882 61.744564 
L 204.749999 62.878521 
L 206.794122 63.605359 
L 207.887116 64.024119 
L 211.024233 65.217945 
L 214.161349 66.375636 
L 215.161122 66.742476 
L 217.298466 67.588992 
L 220.435583 68.806126 
L 223.282226 69.879592 
L 223.5727 69.998174 
L 226.709816 71.278318 
L 229.846933 72.515967 
L 231.13153 73.016709 
L 232.98405 73.799786 
L 236.121166 75.099027 
L 238.743279 76.153826 
L 239.258283 76.379167 
L 242.3954 77.74307 
L 245.532517 79.057124 
L 246.094615 79.290942 
L 248.669633 80.457846 
L 251.80675 81.833555 
L 253.187566 82.428059 
L 254.943867 83.254375 
L 258.080984 84.693666 
L 260.033171 85.565176 
L 261.2181 86.145066 
L 264.355217 87.649329 
L 266.626433 88.702293 
L 267.492334 89.143787 
L 270.62945 90.713626 
L 272.964777 91.839409 
L 273.766567 92.265875 
L 276.903684 93.900777 
L 279.047814 94.976526 
L 280.040801 95.528006 
L 283.177917 97.225921 
L 284.877097 98.113643 
L 286.315034 98.947873 
L 289.452151 100.704697 
L 290.455876 101.25076 
L 292.589268 102.543551 
L 295.726384 104.352506 
L 295.788854 104.387876 
L 298.863501 106.332419 
L 300.849229 107.524993 
L 302.000618 108.302502 
L 305.137735 110.329459 
L 305.670087 110.66211 
L 308.274851 112.496515 
L 310.229076 113.799226 
L 311.411968 114.694263 
L 314.549085 116.936343 
L 314.549085 116.936343 
L 317.686201 119.400154 
L 318.596218 120.07346 
L 320.823318 121.95917 
L 322.396977 123.210577 
L 323.960435 124.643769 
L 325.946887 126.347693 
L 327.097552 127.493817 
L 329.243198 129.48481 
L 330.234668 130.560607 
L 332.284876 132.621927 
L 333.371785 133.907388 
L 335.072563 135.759044 
L 336.508902 137.605445 
L 337.608505 138.89616 
L 339.646019 141.719578 
L 339.896474 142.033277 
L 341.919292 145.170394 
L 342.783135 146.800285 
L 343.693562 148.30751 
L 345.215907 151.444627 
L 345.920252 153.328762 
L 346.484522 154.581744 
L 347.494267 157.718861 
L 348.257246 160.855977 
L 348.768677 163.993094 
L 349.025254 167.130211 
L 345.920252 168.704123 
L 342.783135 168.704197 
L 339.646019 168.704273 
L 336.508902 168.704351 
L 333.371785 168.704432 
L 330.234668 168.704515 
L 327.097552 168.7046 
L 323.960435 168.704688 
L 320.823318 168.704779 
L 317.686201 168.704873 
L 314.549085 168.704969 
L 311.411968 168.705069 
L 308.274851 168.705172 
L 305.137735 168.705278 
L 302.000618 168.705388 
L 298.863501 168.705501 
L 295.726384 168.705619 
L 292.589268 168.705741 
L 289.452151 168.705867 
L 286.315034 168.705998 
L 283.177917 168.706133 
L 280.040801 168.706274 
L 276.903684 168.706421 
L 273.766567 168.706573 
L 270.62945 168.706731 
L 267.492334 168.706896 
L 264.355217 168.707068 
L 261.2181 168.707248 
L 258.080984 168.707435 
L 254.943867 168.707631 
L 251.80675 168.707836 
L 248.669633 168.708051 
L 245.532517 168.708276 
L 242.3954 168.708512 
L 239.258283 168.70876 
L 236.121166 168.709021 
L 232.98405 168.709296 
L 229.846933 168.709587 
L 226.709816 168.709894 
L 223.5727 168.710219 
L 220.435583 168.710563 
L 217.298466 168.710929 
L 214.161349 168.711318 
L 211.024233 168.711733 
L 207.887116 168.712176 
L 204.749999 168.71265 
L 201.612882 168.71316 
L 198.475766 168.713708 
L 195.338649 168.7143 
L 192.201532 168.71494 
L 189.064416 168.715635 
L 185.927299 168.716393 
L 182.790182 168.717223 
L 179.653065 168.718134 
L 176.515949 168.71914 
L 173.378832 168.720256 
L 170.241715 168.721502 
L 167.104598 168.722901 
L 163.967482 168.724483 
L 160.830365 168.726288 
L 157.693248 168.728365 
L 154.556131 168.730781 
L 151.419015 168.733626 
L 148.281898 168.737027 
L 145.144781 168.741163 
L 142.007665 168.746301 
L 138.870548 168.752857 
L 135.733431 168.761512 
L 132.596314 168.773462 
L 129.459198 168.791037 
L 126.322081 168.819428 
L 123.184964 168.873053 
L 120.047847 169.012481 
L 116.910731 170.267328 
z
" clip-path="url(#pcd5e8c248b)" style="fill: #008000"/>
    <path d="M 38.482813 13.411491 
L 38.482813 13.411491 
L 38.482813 13.411491 
z
" clip-path="url(#pcd5e8c248b)" style="fill: #008000"/>
   </g>
   <g id="PathCollection_3">
    <path d="M 38.482813 323.986047 
L 38.482813 323.986047 
L 38.482813 323.986047 
L 38.482813 323.986047 
z
" clip-path="url(#pcd5e8c248b)" style="fill: #ffffff"/>
    <path d="M 116.910731 170.267328 
L 120.047847 169.012481 
L 123.184964 168.873053 
L 126.322081 168.819428 
L 129.459198 168.791037 
L 132.596314 168.773462 
L 135.733431 168.761512 
L 138.870548 168.752857 
L 142.007665 168.746301 
L 145.144781 168.741163 
L 148.281898 168.737027 
L 151.419015 168.733626 
L 154.556131 168.730781 
L 157.693248 168.728365 
L 160.830365 168.726288 
L 163.967482 168.724483 
L 167.104598 168.722901 
L 170.241715 168.721502 
L 173.378832 168.720256 
L 176.515949 168.71914 
L 179.653065 168.718134 
L 182.790182 168.717223 
L 185.927299 168.716393 
L 189.064416 168.715635 
L 192.201532 168.71494 
L 195.338649 168.7143 
L 198.475766 168.713708 
L 201.612882 168.71316 
L 204.749999 168.71265 
L 207.887116 168.712176 
L 211.024233 168.711733 
L 214.161349 168.711318 
L 217.298466 168.710929 
L 220.435583 168.710563 
L 223.5727 168.710219 
L 226.709816 168.709894 
L 229.846933 168.709587 
L 232.98405 168.709296 
L 236.121166 168.709021 
L 239.258283 168.70876 
L 242.3954 168.708512 
L 245.532517 168.708276 
L 248.669633 168.708051 
L 251.80675 168.707836 
L 254.943867 168.707631 
L 258.080984 168.707435 
L 261.2181 168.707248 
L 264.355217 168.707068 
L 267.492334 168.706896 
L 270.62945 168.706731 
L 273.766567 168.706573 
L 276.903684 168.706421 
L 280.040801 168.706274 
L 283.177917 168.706133 
L 286.315034 168.705998 
L 289.452151 168.705867 
L 292.589268 168.705741 
L 295.726384 168.705619 
L 298.863501 168.705501 
L 302.000618 168.705388 
L 305.137735 168.705278 
L 308.274851 168.705172 
L 311.411968 168.705069 
L 314.549085 168.704969 
L 317.686201 168.704873 
L 320.823318 168.704779 
L 323.960435 168.704688 
L 327.097552 168.7046 
L 330.234668 168.704515 
L 333.371785 168.704432 
L 336.508902 168.704351 
L 339.646019 168.704273 
L 342.783135 168.704197 
L 345.920252 168.704123 
L 349.025254 167.130211 
L 348.768677 163.993094 
L 348.257246 160.855977 
L 347.494267 157.718861 
L 346.484522 154.581744 
L 345.920252 153.328762 
L 345.215907 151.444627 
L 343.693562 148.30751 
L 342.783135 146.800285 
L 341.919292 145.170394 
L 339.896474 142.033277 
L 339.646019 141.719578 
L 337.608505 138.89616 
L 336.508902 137.605445 
L 335.072563 135.759044 
L 333.371785 133.907388 
L 332.284876 132.621927 
L 330.234668 130.560607 
L 329.243198 129.48481 
L 327.097552 127.493817 
L 325.946887 126.347693 
L 323.960435 124.643769 
L 322.396977 123.210577 
L 320.823318 121.95917 
L 318.596218 120.07346 
L 317.686201 119.400154 
L 314.549085 116.936343 
L 314.549085 116.936343 
L 311.411968 114.694263 
L 310.229076 113.799226 
L 308.274851 112.496515 
L 305.670087 110.66211 
L 305.137735 110.329459 
L 302.000618 108.302502 
L 300.849229 107.524993 
L 298.863501 106.332419 
L 295.788854 104.387876 
L 295.726384 104.352506 
L 292.589268 102.543551 
L 290.455876 101.25076 
L 289.452151 100.704697 
L 286.315034 98.947873 
L 284.877097 98.113643 
L 283.177917 97.225921 
L 280.040801 95.528006 
L 279.047814 94.976526 
L 276.903684 93.900777 
L 273.766567 92.265875 
L 272.964777 91.839409 
L 270.62945 90.713626 
L 267.492334 89.143787 
L 266.626433 88.702293 
L 264.355217 87.649329 
L 261.2181 86.145066 
L 260.033171 85.565176 
L 258.080984 84.693666 
L 254.943867 83.254375 
L 253.187566 82.428059 
L 251.80675 81.833555 
L 248.669633 80.457846 
L 246.094615 79.290942 
L 245.532517 79.057124 
L 242.3954 77.74307 
L 239.258283 76.379167 
L 238.743279 76.153826 
L 236.121166 75.099027 
L 232.98405 73.799786 
L 231.13153 73.016709 
L 229.846933 72.515967 
L 226.709816 71.278318 
L 223.5727 69.998174 
L 223.282226 69.879592 
L 220.435583 68.806126 
L 217.298466 67.588992 
L 215.161122 66.742476 
L 214.161349 66.375636 
L 211.024233 65.217945 
L 207.887116 64.024119 
L 206.794122 63.605359 
L 204.749999 62.878521 
L 201.612882 61.744564 
L 198.475766 60.576236 
L 198.184486 60.468242 
L 195.338649 59.487237 
L 192.201532 58.37879 
L 189.312361 57.331125 
L 189.064416 57.247301 
L 185.927299 56.194892 
L 182.790182 55.113327 
L 180.180417 54.194009 
L 179.653065 54.020499 
L 176.515949 52.994573 
L 173.378832 51.940929 
L 170.799425 51.056892 
L 170.241715 50.878028 
L 167.104598 49.879452 
L 163.967482 48.854514 
L 161.169924 47.919775 
L 160.830365 47.813408 
L 157.693248 46.842856 
L 154.556131 45.847223 
L 151.419015 44.824576 
L 151.288214 44.782658 
L 148.281898 43.878292 
L 145.144781 42.912442 
L 142.007665 41.92077 
L 141.129683 41.645542 
L 138.870548 40.979429 
L 135.733431 40.043786 
L 132.596314 39.083448 
L 130.728659 38.508425 
L 129.459198 38.14004 
L 126.322081 37.23504 
L 123.184964 36.306434 
L 120.108579 35.371308 
L 120.047847 35.353871 
L 116.910731 34.480036 
L 113.773614 33.583691 
L 110.636497 32.662209 
L 109.170555 32.234192 
L 107.499381 31.77244 
L 104.362264 30.909123 
L 101.225147 30.021663 
L 98.08803 29.106475 
L 98.05432 29.097075 
L 94.950914 28.276211 
L 91.813797 27.424104 
L 88.67668 26.545044 
L 86.596105 25.959958 
L 85.539563 25.677268 
L 82.402447 24.862684 
L 79.26533 24.022328 
L 76.128213 23.149822 
L 74.913845 22.822841 
L 72.991097 22.3282 
L 69.85398 21.531194 
L 66.716863 20.703303 
L 63.579746 19.831957 
L 63.003751 19.685725 
L 60.44263 19.059732 
L 57.305513 18.289329 
L 54.168396 17.478117 
L 51.031279 16.587458 
L 50.856649 16.548608 
L 47.894163 15.898958 
L 44.757046 15.235393 
L 41.619929 14.691998 
L 40.278068 16.548608 
L 41.619929 19.685725 
L 41.619929 19.685725 
L 43.26586 22.822841 
L 44.757046 25.959958 
L 44.757046 25.959958 
L 46.373166 29.097075 
L 47.894163 32.234192 
L 47.894163 32.234192 
L 49.497547 35.371308 
L 51.031279 38.508425 
L 51.031279 38.508425 
L 52.627622 41.645542 
L 54.168396 44.782658 
L 54.168396 44.782658 
L 55.760288 47.919775 
L 57.305513 51.056892 
L 57.305513 51.056892 
L 58.894352 54.194009 
L 60.44263 57.331125 
L 60.44263 57.331125 
L 62.029255 60.468242 
L 63.579746 63.605359 
L 63.579746 63.605359 
L 65.164704 66.742476 
L 66.716863 69.879592 
L 66.716863 69.879592 
L 68.300529 73.016709 
L 69.85398 76.153826 
L 69.85398 76.153826 
L 71.436623 79.290942 
L 72.991097 82.428059 
L 72.991097 82.428059 
L 74.572919 85.565176 
L 76.128213 88.702293 
L 76.128213 88.702293 
L 77.709371 91.839409 
L 79.26533 94.976526 
L 79.26533 94.976526 
L 80.845946 98.113643 
L 82.402447 101.25076 
L 82.402447 101.25076 
L 83.982621 104.387876 
L 85.539563 107.524993 
L 85.539563 107.524993 
L 87.119379 110.66211 
L 88.67668 113.799226 
L 88.67668 113.799226 
L 90.256207 116.936343 
L 91.813797 120.07346 
L 91.813797 120.07346 
L 93.393098 123.210577 
L 94.950914 126.347693 
L 94.950914 126.347693 
L 96.530044 129.48481 
L 98.08803 132.621927 
L 98.08803 132.621927 
L 99.667039 135.759044 
L 101.225147 138.89616 
L 101.225147 138.89616 
L 102.804082 142.033277 
L 104.362264 145.170394 
L 104.362264 145.170394 
L 105.94117 148.30751 
L 107.499381 151.444627 
L 107.499381 151.444627 
L 109.078302 154.581744 
L 110.636497 157.718861 
L 110.636497 157.718861 
L 112.215478 160.855977 
L 113.773614 163.993094 
L 113.773614 163.993094 
L 115.352701 167.130211 
z
M 115.352701 167.130211 
L 113.773614 163.993094 
L 113.773614 163.993094 
L 112.215478 160.855977 
L 110.636497 157.718861 
L 110.636497 157.718861 
L 109.078302 154.581744 
L 107.499381 151.444627 
L 107.499381 151.444627 
L 105.94117 148.30751 
L 104.362264 145.170394 
L 104.362264 145.170394 
L 102.804082 142.033277 
L 101.225147 138.89616 
L 101.225147 138.89616 
L 99.667039 135.759044 
L 98.08803 132.621927 
L 98.08803 132.621927 
L 96.530044 129.48481 
L 94.950914 126.347693 
L 94.950914 126.347693 
L 93.393098 123.210577 
L 91.813797 120.07346 
L 91.813797 120.07346 
L 90.256207 116.936343 
L 88.67668 113.799226 
L 88.67668 113.799226 
L 87.119379 110.66211 
L 85.539563 107.524993 
L 85.539563 107.524993 
L 83.982621 104.387876 
L 82.402447 101.25076 
L 82.402447 101.25076 
L 80.845946 98.113643 
L 79.26533 94.976526 
L 79.26533 94.976526 
L 77.709371 91.839409 
L 76.128213 88.702293 
L 76.128213 88.702293 
L 74.572919 85.565176 
L 72.991097 82.428059 
L 72.991097 82.428059 
L 71.436623 79.290942 
L 69.85398 76.153826 
L 69.85398 76.153826 
L 68.300529 73.016709 
L 66.716863 69.879592 
L 66.716863 69.879592 
L 65.164704 66.742476 
L 63.579746 63.605359 
L 63.579746 63.605359 
L 62.029255 60.468242 
L 60.44263 57.331125 
L 60.44263 57.331125 
L 58.894352 54.194009 
L 57.305513 51.056892 
L 57.305513 51.056892 
L 55.760288 47.919775 
L 54.168396 44.782658 
L 54.168396 44.782658 
L 52.627622 41.645542 
L 51.031279 38.508425 
L 51.031279 38.508425 
L 49.497547 35.371308 
L 47.894163 32.234192 
L 47.894163 32.234192 
L 46.373166 29.097075 
L 44.757046 25.959958 
L 44.757046 25.959958 
L 43.26586 22.822841 
L 41.619929 19.685725 
L 41.619929 19.685725 
L 40.278068 16.548608 
L 41.619929 14.691998 
L 44.757046 15.235393 
L 47.894163 15.898958 
L 50.856649 16.548608 
L 51.031279 16.587458 
L 54.168396 17.478117 
L 57.305513 18.289329 
L 60.44263 19.059732 
L 63.003751 19.685725 
L 63.579746 19.831957 
L 66.716863 20.703303 
L 69.85398 21.531194 
L 72.991097 22.3282 
L 74.913845 22.822841 
L 76.128213 23.149822 
L 79.26533 24.022328 
L 82.402447 24.862684 
L 85.539563 25.677268 
L 86.596105 25.959958 
L 88.67668 26.545044 
L 91.813797 27.424104 
L 94.950914 28.276211 
L 98.05432 29.097075 
L 98.08803 29.106475 
L 101.225147 30.021663 
L 104.362264 30.909123 
L 107.499381 31.77244 
L 109.170555 32.234192 
L 110.636497 32.662209 
L 113.773614 33.583691 
L 116.910731 34.480036 
L 120.047847 35.353871 
L 120.108579 35.371308 
L 123.184964 36.306434 
L 126.322081 37.23504 
L 129.459198 38.14004 
L 130.728659 38.508425 
L 132.596314 39.083448 
L 135.733431 40.043786 
L 138.870548 40.979429 
L 141.129683 41.645542 
L 142.007665 41.92077 
L 145.144781 42.912442 
L 148.281898 43.878292 
L 151.288214 44.782658 
L 151.419015 44.824576 
L 154.556131 45.847223 
L 157.693248 46.842856 
L 160.830365 47.813408 
L 161.169924 47.919775 
L 163.967482 48.854514 
L 167.104598 49.879452 
L 170.241715 50.878028 
L 170.799425 51.056892 
L 173.378832 51.940929 
L 176.515949 52.994573 
L 179.653065 54.020499 
L 180.180417 54.194009 
L 182.790182 55.113327 
L 185.927299 56.194892 
L 189.064416 57.247301 
L 189.312361 57.331125 
L 192.201532 58.37879 
L 195.338649 59.487237 
L 198.184486 60.468242 
L 198.475766 60.576236 
L 201.612882 61.744564 
L 204.749999 62.878521 
L 206.794122 63.605359 
L 207.887116 64.024119 
L 211.024233 65.217945 
L 214.161349 66.375636 
L 215.161122 66.742476 
L 217.298466 67.588992 
L 220.435583 68.806126 
L 223.282226 69.879592 
L 223.5727 69.998174 
L 226.709816 71.278318 
L 229.846933 72.515967 
L 231.13153 73.016709 
L 232.98405 73.799786 
L 236.121166 75.099027 
L 238.743279 76.153826 
L 239.258283 76.379167 
L 242.3954 77.74307 
L 245.532517 79.057124 
L 246.094615 79.290942 
L 248.669633 80.457846 
L 251.80675 81.833555 
L 253.187566 82.428059 
L 254.943867 83.254375 
L 258.080984 84.693666 
L 260.033171 85.565176 
L 261.2181 86.145066 
L 264.355217 87.649329 
L 266.626433 88.702293 
L 267.492334 89.143787 
L 270.62945 90.713626 
L 272.964777 91.839409 
L 273.766567 92.265875 
L 276.903684 93.900777 
L 279.047814 94.976526 
L 280.040801 95.528006 
L 283.177917 97.225921 
L 284.877097 98.113643 
L 286.315034 98.947873 
L 289.452151 100.704697 
L 290.455876 101.25076 
L 292.589268 102.543551 
L 295.726384 104.352506 
L 295.788854 104.387876 
L 298.863501 106.332419 
L 300.849229 107.524993 
L 302.000618 108.302502 
L 305.137735 110.329459 
L 305.670087 110.66211 
L 308.274851 112.496515 
L 310.229076 113.799226 
L 311.411968 114.694263 
L 314.549085 116.936343 
L 314.549085 116.936343 
L 317.686201 119.400154 
L 318.596218 120.07346 
L 320.823318 121.95917 
L 322.396977 123.210577 
L 323.960435 124.643769 
L 325.946887 126.347693 
L 327.097552 127.493817 
L 329.243198 129.48481 
L 330.234668 130.560607 
L 332.284876 132.621927 
L 333.371785 133.907388 
L 335.072563 135.759044 
L 336.508902 137.605445 
L 337.608505 138.89616 
L 339.646019 141.719578 
L 339.896474 142.033277 
L 341.919292 145.170394 
L 342.783135 146.800285 
L 343.693562 148.30751 
L 345.215907 151.444627 
L 345.920252 153.328762 
L 346.484522 154.581744 
L 347.494267 157.718861 
L 348.257246 160.855977 
L 348.768677 163.993094 
L 349.025254 167.130211 
L 345.920252 168.704123 
L 342.783135 168.704197 
L 339.646019 168.704273 
L 336.508902 168.704351 
L 333.371785 168.704432 
L 330.234668 168.704515 
L 327.097552 168.7046 
L 323.960435 168.704688 
L 320.823318 168.704779 
L 317.686201 168.704873 
L 314.549085 168.704969 
L 311.411968 168.705069 
L 308.274851 168.705172 
L 305.137735 168.705278 
L 302.000618 168.705388 
L 298.863501 168.705501 
L 295.726384 168.705619 
L 292.589268 168.705741 
L 289.452151 168.705867 
L 286.315034 168.705998 
L 283.177917 168.706133 
L 280.040801 168.706274 
L 276.903684 168.706421 
L 273.766567 168.706573 
L 270.62945 168.706731 
L 267.492334 168.706896 
L 264.355217 168.707068 
L 261.2181 168.707248 
L 258.080984 168.707435 
L 254.943867 168.707631 
L 251.80675 168.707836 
L 248.669633 168.708051 
L 245.532517 168.708276 
L 242.3954 168.708512 
L 239.258283 168.70876 
L 236.121166 168.709021 
L 232.98405 168.709296 
L 229.846933 168.709587 
L 226.709816 168.709894 
L 223.5727 168.710219 
L 220.435583 168.710563 
L 217.298466 168.710929 
L 214.161349 168.711318 
L 211.024233 168.711733 
L 207.887116 168.712176 
L 204.749999 168.71265 
L 201.612882 168.71316 
L 198.475766 168.713708 
L 195.338649 168.7143 
L 192.201532 168.71494 
L 189.064416 168.715635 
L 185.927299 168.716393 
L 182.790182 168.717223 
L 179.653065 168.718134 
L 176.515949 168.71914 
L 173.378832 168.720256 
L 170.241715 168.721502 
L 167.104598 168.722901 
L 163.967482 168.724483 
L 160.830365 168.726288 
L 157.693248 168.728365 
L 154.556131 168.730781 
L 151.419015 168.733626 
L 148.281898 168.737027 
L 145.144781 168.741163 
L 142.007665 168.746301 
L 138.870548 168.752857 
L 135.733431 168.761512 
L 132.596314 168.773462 
L 129.459198 168.791037 
L 126.322081 168.819428 
L 123.184964 168.873053 
L 120.047847 169.012481 
L 116.910731 170.267328 
z
" clip-path="url(#pcd5e8c248b)" style="fill: #ffffff"/>
    <path d="M 38.482813 13.411491 
L 38.482813 13.411491 
L 38.482813 13.411491 
L 38.482813 13.411491 
z
" clip-path="url(#pcd5e8c248b)" style="fill: #ffffff"/>
   </g>
   <g id="PathCollection_4">
    <path d="M 41.619929 323.986047 
L 44.757046 323.986047 
L 47.894163 323.986047 
L 51.031279 323.986047 
L 54.168396 323.986047 
L 57.305513 323.986047 
L 60.44263 323.986047 
L 63.579746 323.986047 
L 66.716863 323.986047 
L 69.85398 323.986047 
L 72.991097 323.986047 
L 76.128213 323.986047 
L 79.26533 323.986047 
L 82.402447 323.986047 
L 85.539563 323.986047 
L 88.67668 323.986047 
L 91.813797 323.986047 
L 94.950914 323.986047 
L 98.08803 323.986047 
L 101.225147 323.986047 
L 104.362264 323.986047 
L 107.499381 323.986047 
L 110.636497 323.986047 
L 113.773614 323.986047 
L 116.910731 323.986047 
L 120.047847 323.986047 
L 123.184964 323.986047 
L 126.322081 323.986047 
L 129.459198 323.986047 
L 132.596314 323.986047 
L 135.733431 323.986047 
L 138.870548 323.986047 
L 142.007665 323.986047 
L 145.144781 323.986047 
L 148.281898 323.986047 
L 151.419015 323.986047 
L 154.556131 323.986047 
L 157.693248 323.986047 
L 160.830365 323.986047 
L 163.967482 323.986047 
L 167.104598 323.986047 
L 170.241715 323.986047 
L 173.378832 323.986047 
L 176.515949 323.986047 
L 179.653065 323.986047 
L 182.790182 323.986047 
L 185.927299 323.986047 
L 189.064416 323.986047 
L 192.201532 323.986047 
L 195.338649 323.986047 
L 198.475766 323.986047 
L 201.612882 323.986047 
L 204.749999 323.986047 
L 207.887116 323.986047 
L 211.024233 323.986047 
L 214.161349 323.986047 
L 217.298466 323.986047 
L 220.435583 323.986047 
L 223.5727 323.986047 
L 226.709816 323.986047 
L 229.846933 323.986047 
L 232.98405 323.986047 
L 236.121166 323.986047 
L 239.258283 323.986047 
L 242.3954 323.986047 
L 245.532517 323.986047 
L 248.669633 323.986047 
L 251.80675 323.986047 
L 254.943867 323.986047 
L 258.080984 323.986047 
L 261.2181 323.986047 
L 264.355217 323.986047 
L 267.492334 323.986047 
L 270.62945 323.986047 
L 273.766567 323.986047 
L 276.903684 323.986047 
L 280.040801 323.986047 
L 283.177917 323.986047 
L 286.315034 323.986047 
L 289.452151 323.986047 
L 292.589268 323.986047 
L 295.726384 323.986047 
L 298.863501 323.986047 
L 302.000618 323.986047 
L 305.137735 323.986047 
L 308.274851 323.986047 
L 311.411968 323.986047 
L 314.549085 323.986047 
L 317.686201 323.986047 
L 320.823318 323.986047 
L 323.960435 323.986047 
L 327.097552 323.986047 
L 330.234668 323.986047 
L 333.371785 323.986047 
L 336.508902 323.986047 
L 339.646019 323.986047 
L 342.783135 323.986047 
L 345.920252 323.986047 
L 349.057369 323.986047 
L 349.057369 320.848931 
L 349.057369 317.711814 
L 349.057369 314.574697 
L 349.057369 311.43758 
L 349.057369 308.300464 
L 349.057369 305.163347 
L 349.057369 302.02623 
L 349.057369 298.889114 
L 349.057369 295.751997 
L 349.057369 292.61488 
L 349.057369 289.477763 
L 349.057369 286.340647 
L 349.057369 283.20353 
L 349.057369 280.066413 
L 349.057369 276.929296 
L 349.057369 273.79218 
L 349.057369 270.655063 
L 349.057369 267.517946 
L 349.057369 264.380829 
L 349.057369 261.243713 
L 349.057369 258.106596 
L 349.057369 254.969479 
L 349.057369 251.832363 
L 349.057369 248.695246 
L 349.057369 245.558129 
L 349.057369 242.421012 
L 349.057369 239.283896 
L 349.057369 236.146779 
L 349.057369 233.009662 
L 349.057369 229.872545 
L 349.057369 226.735429 
L 349.057369 223.598312 
L 349.057369 220.461195 
L 349.057369 217.324079 
L 349.057369 214.186962 
L 349.057369 211.049845 
L 349.057369 207.912728 
L 349.057369 204.775612 
L 349.057369 201.638495 
L 349.057369 198.501378 
L 349.057369 195.364261 
L 349.057369 192.227145 
L 349.057369 189.090028 
L 349.057369 185.952911 
L 349.057369 182.815795 
L 349.057369 179.678678 
L 349.057369 176.541561 
L 349.057369 173.404444 
L 349.057369 170.267328 
L 349.057369 167.130211 
L 349.057369 163.993094 
L 349.057369 160.855977 
L 349.057369 157.718861 
L 349.057369 154.581744 
L 349.057369 151.444627 
L 349.057369 148.30751 
L 349.057369 145.170394 
L 349.057369 142.033277 
L 349.057369 138.89616 
L 349.057369 135.759044 
L 349.057369 132.621927 
L 349.057369 129.48481 
L 349.057369 126.347693 
L 349.057369 123.210577 
L 349.057369 120.07346 
L 349.057369 116.936343 
L 349.057369 113.799226 
L 349.057369 110.66211 
L 349.057369 107.524993 
L 349.057369 104.387876 
L 349.057369 101.25076 
L 349.057369 98.113643 
L 349.057369 94.976526 
L 349.057369 91.839409 
L 349.057369 88.702293 
L 349.057369 85.565176 
L 349.057369 82.428059 
L 349.057369 79.290942 
L 349.057369 76.153826 
L 349.057369 73.016709 
L 349.057369 69.879592 
L 349.057369 66.742476 
L 349.057369 63.605359 
L 349.057369 60.468242 
L 349.057369 57.331125 
L 349.057369 54.194009 
L 349.057369 51.056892 
L 349.057369 47.919775 
L 349.057369 44.782658 
L 349.057369 41.645542 
L 349.057369 38.508425 
L 349.057369 35.371308 
L 349.057369 32.234192 
L 349.057369 29.097075 
L 349.057369 25.959958 
L 349.057369 22.822841 
L 349.057369 19.685725 
L 349.057369 16.548608 
L 349.057369 13.411491 
L 345.920252 13.411491 
L 342.783135 13.411491 
L 339.646019 13.411491 
L 336.508902 13.411491 
L 333.371785 13.411491 
L 330.234668 13.411491 
L 327.097552 13.411491 
L 323.960435 13.411491 
L 320.823318 13.411491 
L 317.686201 13.411491 
L 314.549085 13.411491 
L 311.411968 13.411491 
L 308.274851 13.411491 
L 305.137735 13.411491 
L 302.000618 13.411491 
L 298.863501 13.411491 
L 295.726384 13.411491 
L 292.589268 13.411491 
L 289.452151 13.411491 
L 286.315034 13.411491 
L 283.177917 13.411491 
L 280.040801 13.411491 
L 276.903684 13.411491 
L 273.766567 13.411491 
L 270.62945 13.411491 
L 267.492334 13.411491 
L 264.355217 13.411491 
L 261.2181 13.411491 
L 258.080984 13.411491 
L 254.943867 13.411491 
L 251.80675 13.411491 
L 248.669633 13.411491 
L 245.532517 13.411491 
L 242.3954 13.411491 
L 239.258283 13.411491 
L 236.121166 13.411491 
L 232.98405 13.411491 
L 229.846933 13.411491 
L 226.709816 13.411491 
L 223.5727 13.411491 
L 220.435583 13.411491 
L 217.298466 13.411491 
L 214.161349 13.411491 
L 211.024233 13.411491 
L 207.887116 13.411491 
L 204.749999 13.411491 
L 201.612882 13.411491 
L 198.475766 13.411491 
L 195.338649 13.411491 
L 192.201532 13.411491 
L 189.064416 13.411491 
L 185.927299 13.411491 
L 182.790182 13.411491 
L 179.653065 13.411491 
L 176.515949 13.411491 
L 173.378832 13.411491 
L 170.241715 13.411491 
L 167.104598 13.411491 
L 163.967482 13.411491 
L 160.830365 13.411491 
L 157.693248 13.411491 
L 154.556131 13.411491 
L 151.419015 13.411491 
L 148.281898 13.411491 
L 145.144781 13.411491 
L 142.007665 13.411491 
L 138.870548 13.411491 
L 135.733431 13.411491 
L 132.596314 13.411491 
L 129.459198 13.411491 
L 126.322081 13.411491 
L 123.184964 13.411491 
L 120.047847 13.411491 
L 116.910731 13.411491 
L 113.773614 13.411491 
L 110.636497 13.411491 
L 107.499381 13.411491 
L 104.362264 13.411491 
L 101.225147 13.411491 
L 98.08803 13.411491 
L 94.950914 13.411491 
L 91.813797 13.411491 
L 88.67668 13.411491 
L 85.539563 13.411491 
L 82.402447 13.411491 
L 79.26533 13.411491 
L 76.128213 13.411491 
L 72.991097 13.411491 
L 69.85398 13.411491 
L 66.716863 13.411491 
L 63.579746 13.411491 
L 60.44263 13.411491 
L 57.305513 13.411491 
L 54.168396 13.411491 
L 51.031279 13.411491 
L 47.894163 13.411491 
L 44.757046 13.411491 
L 41.619929 13.411491 
L 38.482813 13.411491 
L 38.482813 13.411491 
L 38.482813 16.548608 
L 38.482813 19.685725 
L 38.482813 22.822841 
L 38.482813 25.959958 
L 38.482813 29.097075 
L 38.482813 32.234192 
L 38.482813 35.371308 
L 38.482813 38.508425 
L 38.482813 41.645542 
L 38.482813 44.782658 
L 38.482813 47.919775 
L 38.482813 51.056892 
L 38.482813 54.194009 
L 38.482813 57.331125 
L 38.482813 60.468242 
L 38.482813 63.605359 
L 38.482813 66.742476 
L 38.482813 69.879592 
L 38.482813 73.016709 
L 38.482813 76.153826 
L 38.482813 79.290942 
L 38.482813 82.428059 
L 38.482813 85.565176 
L 38.482813 88.702293 
L 38.482813 91.839409 
L 38.482813 94.976526 
L 38.482813 98.113643 
L 38.482813 101.25076 
L 38.482813 104.387876 
L 38.482813 107.524993 
L 38.482813 110.66211 
L 38.482813 113.799226 
L 38.482813 116.936343 
L 38.482813 120.07346 
L 38.482813 123.210577 
L 38.482813 126.347693 
L 38.482813 129.48481 
L 38.482813 132.621927 
L 38.482813 135.759044 
L 38.482813 138.89616 
L 38.482813 142.033277 
L 38.482813 145.170394 
L 38.482813 148.30751 
L 38.482813 151.444627 
L 38.482813 154.581744 
L 38.482813 157.718861 
L 38.482813 160.855977 
L 38.482813 163.993094 
L 38.482813 167.130211 
L 38.482813 170.267328 
L 38.482813 173.404444 
L 38.482813 176.541561 
L 38.482813 179.678678 
L 38.482813 182.815795 
L 38.482813 185.952911 
L 38.482813 189.090028 
L 38.482813 192.227145 
L 38.482813 195.364261 
L 38.482813 198.501378 
L 38.482813 201.638495 
L 38.482813 204.775612 
L 38.482813 207.912728 
L 38.482813 211.049845 
L 38.482813 214.186962 
L 38.482813 217.324079 
L 38.482813 220.461195 
L 38.482813 223.598312 
L 38.482813 226.735429 
L 38.482813 229.872545 
L 38.482813 233.009662 
L 38.482813 236.146779 
L 38.482813 239.283896 
L 38.482813 242.421012 
L 38.482813 245.558129 
L 38.482813 248.695246 
L 38.482813 251.832363 
L 38.482813 254.969479 
L 38.482813 258.106596 
L 38.482813 261.243713 
L 38.482813 264.380829 
L 38.482813 267.517946 
L 38.482813 270.655063 
L 38.482813 273.79218 
L 38.482813 276.929296 
L 38.482813 280.066413 
L 38.482813 283.20353 
L 38.482813 286.340647 
L 38.482813 289.477763 
L 38.482813 292.61488 
L 38.482813 295.751997 
L 38.482813 298.889114 
L 38.482813 302.02623 
L 38.482813 305.163347 
L 38.482813 308.300464 
L 38.482813 311.43758 
L 38.482813 314.574697 
L 38.482813 317.711814 
L 38.482813 320.848931 
L 38.482813 323.986047 
L 38.482813 323.986047 
L 41.619929 323.986047 
z
M 115.352701 167.130211 
L 113.773614 163.993094 
L 113.773614 163.993094 
L 112.215478 160.855977 
L 110.636497 157.718861 
L 110.636497 157.718861 
L 109.078302 154.581744 
L 107.499381 151.444627 
L 107.499381 151.444627 
L 105.94117 148.30751 
L 104.362264 145.170394 
L 104.362264 145.170394 
L 102.804082 142.033277 
L 101.225147 138.89616 
L 101.225147 138.89616 
L 99.667039 135.759044 
L 98.08803 132.621927 
L 98.08803 132.621927 
L 96.530044 129.48481 
L 94.950914 126.347693 
L 94.950914 126.347693 
L 93.393098 123.210577 
L 91.813797 120.07346 
L 91.813797 120.07346 
L 90.256207 116.936343 
L 88.67668 113.799226 
L 88.67668 113.799226 
L 87.119379 110.66211 
L 85.539563 107.524993 
L 85.539563 107.524993 
L 83.982621 104.387876 
L 82.402447 101.25076 
L 82.402447 101.25076 
L 80.845946 98.113643 
L 79.26533 94.976526 
L 79.26533 94.976526 
L 77.709371 91.839409 
L 76.128213 88.702293 
L 76.128213 88.702293 
L 74.572919 85.565176 
L 72.991097 82.428059 
L 72.991097 82.428059 
L 71.436623 79.290942 
L 69.85398 76.153826 
L 69.85398 76.153826 
L 68.300529 73.016709 
L 66.716863 69.879592 
L 66.716863 69.879592 
L 65.164704 66.742476 
L 63.579746 63.605359 
L 63.579746 63.605359 
L 62.029255 60.468242 
L 60.44263 57.331125 
L 60.44263 57.331125 
L 58.894352 54.194009 
L 57.305513 51.056892 
L 57.305513 51.056892 
L 55.760288 47.919775 
L 54.168396 44.782658 
L 54.168396 44.782658 
L 52.627622 41.645542 
L 51.031279 38.508425 
L 51.031279 38.508425 
L 49.497547 35.371308 
L 47.894163 32.234192 
L 47.894163 32.234192 
L 46.373166 29.097075 
L 44.757046 25.959958 
L 44.757046 25.959958 
L 43.26586 22.822841 
L 41.619929 19.685725 
L 41.619929 19.685725 
L 40.278068 16.548608 
L 41.619929 14.691998 
L 44.757046 15.235393 
L 47.894163 15.898958 
L 50.856649 16.548608 
L 51.031279 16.587458 
L 54.168396 17.478117 
L 57.305513 18.289329 
L 60.44263 19.059732 
L 63.003751 19.685725 
L 63.579746 19.831957 
L 66.716863 20.703303 
L 69.85398 21.531194 
L 72.991097 22.3282 
L 74.913845 22.822841 
L 76.128213 23.149822 
L 79.26533 24.022328 
L 82.402447 24.862684 
L 85.539563 25.677268 
L 86.596105 25.959958 
L 88.67668 26.545044 
L 91.813797 27.424104 
L 94.950914 28.276211 
L 98.05432 29.097075 
L 98.08803 29.106475 
L 101.225147 30.021663 
L 104.362264 30.909123 
L 107.499381 31.77244 
L 109.170555 32.234192 
L 110.636497 32.662209 
L 113.773614 33.583691 
L 116.910731 34.480036 
L 120.047847 35.353871 
L 120.108579 35.371308 
L 123.184964 36.306434 
L 126.322081 37.23504 
L 129.459198 38.14004 
L 130.728659 38.508425 
L 132.596314 39.083448 
L 135.733431 40.043786 
L 138.870548 40.979429 
L 141.129683 41.645542 
L 142.007665 41.92077 
L 145.144781 42.912442 
L 148.281898 43.878292 
L 151.288214 44.782658 
L 151.419015 44.824576 
L 154.556131 45.847223 
L 157.693248 46.842856 
L 160.830365 47.813408 
L 161.169924 47.919775 
L 163.967482 48.854514 
L 167.104598 49.879452 
L 170.241715 50.878028 
L 170.799425 51.056892 
L 173.378832 51.940929 
L 176.515949 52.994573 
L 179.653065 54.020499 
L 180.180417 54.194009 
L 182.790182 55.113327 
L 185.927299 56.194892 
L 189.064416 57.247301 
L 189.312361 57.331125 
L 192.201532 58.37879 
L 195.338649 59.487237 
L 198.184486 60.468242 
L 198.475766 60.576236 
L 201.612882 61.744564 
L 204.749999 62.878521 
L 206.794122 63.605359 
L 207.887116 64.024119 
L 211.024233 65.217945 
L 214.161349 66.375636 
L 215.161122 66.742476 
L 217.298466 67.588992 
L 220.435583 68.806126 
L 223.282226 69.879592 
L 223.5727 69.998174 
L 226.709816 71.278318 
L 229.846933 72.515967 
L 231.13153 73.016709 
L 232.98405 73.799786 
L 236.121166 75.099027 
L 238.743279 76.153826 
L 239.258283 76.379167 
L 242.3954 77.74307 
L 245.532517 79.057124 
L 246.094615 79.290942 
L 248.669633 80.457846 
L 251.80675 81.833555 
L 253.187566 82.428059 
L 254.943867 83.254375 
L 258.080984 84.693666 
L 260.033171 85.565176 
L 261.2181 86.145066 
L 264.355217 87.649329 
L 266.626433 88.702293 
L 267.492334 89.143787 
L 270.62945 90.713626 
L 272.964777 91.839409 
L 273.766567 92.265875 
L 276.903684 93.900777 
L 279.047814 94.976526 
L 280.040801 95.528006 
L 283.177917 97.225921 
L 284.877097 98.113643 
L 286.315034 98.947873 
L 289.452151 100.704697 
L 290.455876 101.25076 
L 292.589268 102.543551 
L 295.726384 104.352506 
L 295.788854 104.387876 
L 298.863501 106.332419 
L 300.849229 107.524993 
L 302.000618 108.302502 
L 305.137735 110.329459 
L 305.670087 110.66211 
L 308.274851 112.496515 
L 310.229076 113.799226 
L 311.411968 114.694263 
L 314.549085 116.936343 
L 314.549085 116.936343 
L 317.686201 119.400154 
L 318.596218 120.07346 
L 320.823318 121.95917 
L 322.396977 123.210577 
L 323.960435 124.643769 
L 325.946887 126.347693 
L 327.097552 127.493817 
L 329.243198 129.48481 
L 330.234668 130.560607 
L 332.284876 132.621927 
L 333.371785 133.907388 
L 335.072563 135.759044 
L 336.508902 137.605445 
L 337.608505 138.89616 
L 339.646019 141.719578 
L 339.896474 142.033277 
L 341.919292 145.170394 
L 342.783135 146.800285 
L 343.693562 148.30751 
L 345.215907 151.444627 
L 345.920252 153.328762 
L 346.484522 154.581744 
L 347.494267 157.718861 
L 348.257246 160.855977 
L 348.768677 163.993094 
L 349.025254 167.130211 
L 345.920252 168.704123 
L 342.783135 168.704197 
L 339.646019 168.704273 
L 336.508902 168.704351 
L 333.371785 168.704432 
L 330.234668 168.704515 
L 327.097552 168.7046 
L 323.960435 168.704688 
L 320.823318 168.704779 
L 317.686201 168.704873 
L 314.549085 168.704969 
L 311.411968 168.705069 
L 308.274851 168.705172 
L 305.137735 168.705278 
L 302.000618 168.705388 
L 298.863501 168.705501 
L 295.726384 168.705619 
L 292.589268 168.705741 
L 289.452151 168.705867 
L 286.315034 168.705998 
L 283.177917 168.706133 
L 280.040801 168.706274 
L 276.903684 168.706421 
L 273.766567 168.706573 
L 270.62945 168.706731 
L 267.492334 168.706896 
L 264.355217 168.707068 
L 261.2181 168.707248 
L 258.080984 168.707435 
L 254.943867 168.707631 
L 251.80675 168.707836 
L 248.669633 168.708051 
L 245.532517 168.708276 
L 242.3954 168.708512 
L 239.258283 168.70876 
L 236.121166 168.709021 
L 232.98405 168.709296 
L 229.846933 168.709587 
L 226.709816 168.709894 
L 223.5727 168.710219 
L 220.435583 168.710563 
L 217.298466 168.710929 
L 214.161349 168.711318 
L 211.024233 168.711733 
L 207.887116 168.712176 
L 204.749999 168.71265 
L 201.612882 168.71316 
L 198.475766 168.713708 
L 195.338649 168.7143 
L 192.201532 168.71494 
L 189.064416 168.715635 
L 185.927299 168.716393 
L 182.790182 168.717223 
L 179.653065 168.718134 
L 176.515949 168.71914 
L 173.378832 168.720256 
L 170.241715 168.721502 
L 167.104598 168.722901 
L 163.967482 168.724483 
L 160.830365 168.726288 
L 157.693248 168.728365 
L 154.556131 168.730781 
L 151.419015 168.733626 
L 148.281898 168.737027 
L 145.144781 168.741163 
L 142.007665 168.746301 
L 138.870548 168.752857 
L 135.733431 168.761512 
L 132.596314 168.773462 
L 129.459198 168.791037 
L 126.322081 168.819428 
L 123.184964 168.873053 
L 120.047847 169.012481 
L 116.910731 170.267328 
L 115.352701 167.130211 
z
" clip-path="url(#pcd5e8c248b)" style="fill: none"/>
   </g>
   <g id="matplotlib.axis_1">
    <g id="xtick_1">
     <g id="line2d_1">
      <defs>
       <path id="m45d457a3a2" d="M 0 0 
L 0 3.5 
" style="stroke: #000000; stroke-width: 0.8"/>
      </defs>
      <g>
       <use xlink:href="#m45d457a3a2" x="38.482813" y="168.698769" style="stroke: #000000; stroke-width: 0.8"/>
      </g>
     </g>
    </g>
    <g id="xtick_2">
     <g id="line2d_2">
      <g>
       <use xlink:href="#m45d457a3a2" x="77.304632" y="168.698769" style="stroke: #000000; stroke-width: 0.8"/>
      </g>
     </g>
     <g id="text_1">
      <!-- 0.5 -->
      <g transform="translate(69.35307 183.297207) scale(0.1 -0.1)">
       <defs>
        <path id="DejaVuSans-30" d="M 2034 4250 
Q 1547 4250 1301 3770 
Q 1056 3291 1056 2328 
Q 1056 1369 1301 889 
Q 1547 409 2034 409 
Q 2525 409 2770 889 
Q 3016 1369 3016 2328 
Q 3016 3291 2770 3770 
Q 2525 4250 2034 4250 
z
M 2034 4750 
Q 2819 4750 3233 4129 
Q 3647 3509 3647 2328 
Q 3647 1150 3233 529 
Q 2819 -91 2034 -91 
Q 1250 -91 836 529 
Q 422 1150 422 2328 
Q 422 3509 836 4129 
Q 1250 4750 2034 4750 
z
" transform="scale(0.015625)"/>
        <path id="DejaVuSans-2e" d="M 684 794 
L 1344 794 
L 1344 0 
L 684 0 
L 684 794 
z
" transform="scale(0.015625)"/>
        <path id="DejaVuSans-35" d="M 691 4666 
L 3169 4666 
L 3169 4134 
L 1269 4134 
L 1269 2991 
Q 1406 3038 1543 3061 
Q 1681 3084 1819 3084 
Q 2600 3084 3056 2656 
Q 3513 2228 3513 1497 
Q 3513 744 3044 326 
Q 2575 -91 1722 -91 
Q 1428 -91 1123 -41 
Q 819 9 494 109 
L 494 744 
Q 775 591 1075 516 
Q 1375 441 1709 441 
Q 2250 441 2565 725 
Q 2881 1009 2881 1497 
Q 2881 1984 2565 2268 
Q 2250 2553 1709 2553 
Q 1456 2553 1204 2497 
Q 953 2441 691 2322 
L 691 4666 
z
" transform="scale(0.015625)"/>
       </defs>
       <use xlink:href="#DejaVuSans-30"/>
       <use xlink:href="#DejaVuSans-2e" x="63.623047"/>
       <use xlink:href="#DejaVuSans-35" x="95.410156"/>
      </g>
     </g>
    </g>
    <g id="xtick_3">
     <g id="line2d_3">
      <g>
       <use xlink:href="#m45d457a3a2" x="116.126452" y="168.698769" style="stroke: #000000; stroke-width: 0.8"/>
      </g>
     </g>
     <g id="text_2">
      <!-- 1.0 -->
      <g transform="translate(108.174889 183.297207) scale(0.1 -0.1)">
       <defs>
        <path id="DejaVuSans-31" d="M 794 531 
L 1825 531 
L 1825 4091 
L 703 3866 
L 703 4441 
L 1819 4666 
L 2450 4666 
L 2450 531 
L 3481 531 
L 3481 0 
L 794 0 
L 794 531 
z
" transform="scale(0.015625)"/>
       </defs>
       <use xlink:href="#DejaVuSans-31"/>
       <use xlink:href="#DejaVuSans-2e" x="63.623047"/>
       <use xlink:href="#DejaVuSans-30" x="95.410156"/>
      </g>
     </g>
    </g>
    <g id="xtick_4">
     <g id="line2d_4">
      <g>
       <use xlink:href="#m45d457a3a2" x="154.948271" y="168.698769" style="stroke: #000000; stroke-width: 0.8"/>
      </g>
     </g>
     <g id="text_3">
      <!-- 1.5 -->
      <g transform="translate(146.996709 183.297207) scale(0.1 -0.1)">
       <use xlink:href="#DejaVuSans-31"/>
       <use xlink:href="#DejaVuSans-2e" x="63.623047"/>
       <use xlink:href="#DejaVuSans-35" x="95.410156"/>
      </g>
     </g>
    </g>
    <g id="xtick_5">
     <g id="line2d_5">
      <g>
       <use xlink:href="#m45d457a3a2" x="193.770091" y="168.698769" style="stroke: #000000; stroke-width: 0.8"/>
      </g>
     </g>
     <g id="text_4">
      <!-- 2.0 -->
      <g transform="translate(185.818528 183.297207) scale(0.1 -0.1)">
       <defs>
        <path id="DejaVuSans-32" d="M 1228 531 
L 3431 531 
L 3431 0 
L 469 0 
L 469 531 
Q 828 903 1448 1529 
Q 2069 2156 2228 2338 
Q 2531 2678 2651 2914 
Q 2772 3150 2772 3378 
Q 2772 3750 2511 3984 
Q 2250 4219 1831 4219 
Q 1534 4219 1204 4116 
Q 875 4013 500 3803 
L 500 4441 
Q 881 4594 1212 4672 
Q 1544 4750 1819 4750 
Q 2544 4750 2975 4387 
Q 3406 4025 3406 3419 
Q 3406 3131 3298 2873 
Q 3191 2616 2906 2266 
Q 2828 2175 2409 1742 
Q 1991 1309 1228 531 
z
" transform="scale(0.015625)"/>
       </defs>
       <use xlink:href="#DejaVuSans-32"/>
       <use xlink:href="#DejaVuSans-2e" x="63.623047"/>
       <use xlink:href="#DejaVuSans-30" x="95.410156"/>
      </g>
     </g>
    </g>
    <g id="xtick_6">
     <g id="line2d_6">
      <g>
       <use xlink:href="#m45d457a3a2" x="232.59191" y="168.698769" style="stroke: #000000; stroke-width: 0.8"/>
      </g>
     </g>
     <g id="text_5">
      <!-- 2.5 -->
      <g transform="translate(224.640348 183.297207) scale(0.1 -0.1)">
       <use xlink:href="#DejaVuSans-32"/>
       <use xlink:href="#DejaVuSans-2e" x="63.623047"/>
       <use xlink:href="#DejaVuSans-35" x="95.410156"/>
      </g>
     </g>
    </g>
    <g id="xtick_7">
     <g id="line2d_7">
      <g>
       <use xlink:href="#m45d457a3a2" x="271.41373" y="168.698769" style="stroke: #000000; stroke-width: 0.8"/>
      </g>
     </g>
     <g id="text_6">
      <!-- 3.0 -->
      <g transform="translate(263.462167 183.297207) scale(0.1 -0.1)">
       <defs>
        <path id="DejaVuSans-33" d="M 2597 2516 
Q 3050 2419 3304 2112 
Q 3559 1806 3559 1356 
Q 3559 666 3084 287 
Q 2609 -91 1734 -91 
Q 1441 -91 1130 -33 
Q 819 25 488 141 
L 488 750 
Q 750 597 1062 519 
Q 1375 441 1716 441 
Q 2309 441 2620 675 
Q 2931 909 2931 1356 
Q 2931 1769 2642 2001 
Q 2353 2234 1838 2234 
L 1294 2234 
L 1294 2753 
L 1863 2753 
Q 2328 2753 2575 2939 
Q 2822 3125 2822 3475 
Q 2822 3834 2567 4026 
Q 2313 4219 1838 4219 
Q 1578 4219 1281 4162 
Q 984 4106 628 3988 
L 628 4550 
Q 988 4650 1302 4700 
Q 1616 4750 1894 4750 
Q 2613 4750 3031 4423 
Q 3450 4097 3450 3541 
Q 3450 3153 3228 2886 
Q 3006 2619 2597 2516 
z
" transform="scale(0.015625)"/>
       </defs>
       <use xlink:href="#DejaVuSans-33"/>
       <use xlink:href="#DejaVuSans-2e" x="63.623047"/>
       <use xlink:href="#DejaVuSans-30" x="95.410156"/>
      </g>
     </g>
    </g>
    <g id="xtick_8">
     <g id="line2d_8">
      <g>
       <use xlink:href="#m45d457a3a2" x="310.235549" y="168.698769" style="stroke: #000000; stroke-width: 0.8"/>
      </g>
     </g>
     <g id="text_7">
      <!-- 3.5 -->
      <g transform="translate(302.283987 183.297207) scale(0.1 -0.1)">
       <use xlink:href="#DejaVuSans-33"/>
       <use xlink:href="#DejaVuSans-2e" x="63.623047"/>
       <use xlink:href="#DejaVuSans-35" x="95.410156"/>
      </g>
     </g>
    </g>
    <g id="xtick_9">
     <g id="line2d_9">
      <g>
       <use xlink:href="#m45d457a3a2" x="349.057369" y="168.698769" style="stroke: #000000; stroke-width: 0.8"/>
      </g>
     </g>
     <g id="text_8">
      <!-- 4.0 -->
      <g transform="translate(341.105806 183.297207) scale(0.1 -0.1)">
       <defs>
        <path id="DejaVuSans-34" d="M 2419 4116 
L 825 1625 
L 2419 1625 
L 2419 4116 
z
M 2253 4666 
L 3047 4666 
L 3047 1625 
L 3713 1625 
L 3713 1100 
L 3047 1100 
L 3047 0 
L 2419 0 
L 2419 1100 
L 313 1100 
L 313 1709 
L 2253 4666 
z
" transform="scale(0.015625)"/>
       </defs>
       <use xlink:href="#DejaVuSans-34"/>
       <use xlink:href="#DejaVuSans-2e" x="63.623047"/>
       <use xlink:href="#DejaVuSans-30" x="95.410156"/>
      </g>
     </g>
    </g>
    <g id="xtick_10">
     <g id="line2d_10">
      <defs>
       <path id="m8731b0c352" d="M 0 0 
L 0 2 
" style="stroke: #000000; stroke-width: 0.6"/>
      </defs>
      <g>
       <use xlink:href="#m8731b0c352" x="46.247176" y="168.698769" style="stroke: #000000; stroke-width: 0.6"/>
      </g>
     </g>
    </g>
    <g id="xtick_11">
     <g id="line2d_11">
      <g>
       <use xlink:href="#m8731b0c352" x="54.01154" y="168.698769" style="stroke: #000000; stroke-width: 0.6"/>
      </g>
     </g>
    </g>
    <g id="xtick_12">
     <g id="line2d_12">
      <g>
       <use xlink:href="#m8731b0c352" x="61.775904" y="168.698769" style="stroke: #000000; stroke-width: 0.6"/>
      </g>
     </g>
    </g>
    <g id="xtick_13">
     <g id="line2d_13">
      <g>
       <use xlink:href="#m8731b0c352" x="69.540268" y="168.698769" style="stroke: #000000; stroke-width: 0.6"/>
      </g>
     </g>
    </g>
    <g id="xtick_14">
     <g id="line2d_14">
      <g>
       <use xlink:href="#m8731b0c352" x="85.068996" y="168.698769" style="stroke: #000000; stroke-width: 0.6"/>
      </g>
     </g>
    </g>
    <g id="xtick_15">
     <g id="line2d_15">
      <g>
       <use xlink:href="#m8731b0c352" x="92.83336" y="168.698769" style="stroke: #000000; stroke-width: 0.6"/>
      </g>
     </g>
    </g>
    <g id="xtick_16">
     <g id="line2d_16">
      <g>
       <use xlink:href="#m8731b0c352" x="100.597724" y="168.698769" style="stroke: #000000; stroke-width: 0.6"/>
      </g>
     </g>
    </g>
    <g id="xtick_17">
     <g id="line2d_17">
      <g>
       <use xlink:href="#m8731b0c352" x="108.362088" y="168.698769" style="stroke: #000000; stroke-width: 0.6"/>
      </g>
     </g>
    </g>
    <g id="xtick_18">
     <g id="line2d_18">
      <g>
       <use xlink:href="#m8731b0c352" x="123.890815" y="168.698769" style="stroke: #000000; stroke-width: 0.6"/>
      </g>
     </g>
    </g>
    <g id="xtick_19">
     <g id="line2d_19">
      <g>
       <use xlink:href="#m8731b0c352" x="131.655179" y="168.698769" style="stroke: #000000; stroke-width: 0.6"/>
      </g>
     </g>
    </g>
    <g id="xtick_20">
     <g id="line2d_20">
      <g>
       <use xlink:href="#m8731b0c352" x="139.419543" y="168.698769" style="stroke: #000000; stroke-width: 0.6"/>
      </g>
     </g>
    </g>
    <g id="xtick_21">
     <g id="line2d_21">
      <g>
       <use xlink:href="#m8731b0c352" x="147.183907" y="168.698769" style="stroke: #000000; stroke-width: 0.6"/>
      </g>
     </g>
    </g>
    <g id="xtick_22">
     <g id="line2d_22">
      <g>
       <use xlink:href="#m8731b0c352" x="162.712635" y="168.698769" style="stroke: #000000; stroke-width: 0.6"/>
      </g>
     </g>
    </g>
    <g id="xtick_23">
     <g id="line2d_23">
      <g>
       <use xlink:href="#m8731b0c352" x="170.476999" y="168.698769" style="stroke: #000000; stroke-width: 0.6"/>
      </g>
     </g>
    </g>
    <g id="xtick_24">
     <g id="line2d_24">
      <g>
       <use xlink:href="#m8731b0c352" x="178.241363" y="168.698769" style="stroke: #000000; stroke-width: 0.6"/>
      </g>
     </g>
    </g>
    <g id="xtick_25">
     <g id="line2d_25">
      <g>
       <use xlink:href="#m8731b0c352" x="186.005727" y="168.698769" style="stroke: #000000; stroke-width: 0.6"/>
      </g>
     </g>
    </g>
    <g id="xtick_26">
     <g id="line2d_26">
      <g>
       <use xlink:href="#m8731b0c352" x="201.534455" y="168.698769" style="stroke: #000000; stroke-width: 0.6"/>
      </g>
     </g>
    </g>
    <g id="xtick_27">
     <g id="line2d_27">
      <g>
       <use xlink:href="#m8731b0c352" x="209.298818" y="168.698769" style="stroke: #000000; stroke-width: 0.6"/>
      </g>
     </g>
    </g>
    <g id="xtick_28">
     <g id="line2d_28">
      <g>
       <use xlink:href="#m8731b0c352" x="217.063182" y="168.698769" style="stroke: #000000; stroke-width: 0.6"/>
      </g>
     </g>
    </g>
    <g id="xtick_29">
     <g id="line2d_29">
      <g>
       <use xlink:href="#m8731b0c352" x="224.827546" y="168.698769" style="stroke: #000000; stroke-width: 0.6"/>
      </g>
     </g>
    </g>
    <g id="xtick_30">
     <g id="line2d_30">
      <g>
       <use xlink:href="#m8731b0c352" x="240.356274" y="168.698769" style="stroke: #000000; stroke-width: 0.6"/>
      </g>
     </g>
    </g>
    <g id="xtick_31">
     <g id="line2d_31">
      <g>
       <use xlink:href="#m8731b0c352" x="248.120638" y="168.698769" style="stroke: #000000; stroke-width: 0.6"/>
      </g>
     </g>
    </g>
    <g id="xtick_32">
     <g id="line2d_32">
      <g>
       <use xlink:href="#m8731b0c352" x="255.885002" y="168.698769" style="stroke: #000000; stroke-width: 0.6"/>
      </g>
     </g>
    </g>
    <g id="xtick_33">
     <g id="line2d_33">
      <g>
       <use xlink:href="#m8731b0c352" x="263.649366" y="168.698769" style="stroke: #000000; stroke-width: 0.6"/>
      </g>
     </g>
    </g>
    <g id="xtick_34">
     <g id="line2d_34">
      <g>
       <use xlink:href="#m8731b0c352" x="279.178094" y="168.698769" style="stroke: #000000; stroke-width: 0.6"/>
      </g>
     </g>
    </g>
    <g id="xtick_35">
     <g id="line2d_35">
      <g>
       <use xlink:href="#m8731b0c352" x="286.942457" y="168.698769" style="stroke: #000000; stroke-width: 0.6"/>
      </g>
     </g>
    </g>
    <g id="xtick_36">
     <g id="line2d_36">
      <g>
       <use xlink:href="#m8731b0c352" x="294.706821" y="168.698769" style="stroke: #000000; stroke-width: 0.6"/>
      </g>
     </g>
    </g>
    <g id="xtick_37">
     <g id="line2d_37">
      <g>
       <use xlink:href="#m8731b0c352" x="302.471185" y="168.698769" style="stroke: #000000; stroke-width: 0.6"/>
      </g>
     </g>
    </g>
    <g id="xtick_38">
     <g id="line2d_38">
      <g>
       <use xlink:href="#m8731b0c352" x="317.999913" y="168.698769" style="stroke: #000000; stroke-width: 0.6"/>
      </g>
     </g>
    </g>
    <g id="xtick_39">
     <g id="line2d_39">
      <g>
       <use xlink:href="#m8731b0c352" x="325.764277" y="168.698769" style="stroke: #000000; stroke-width: 0.6"/>
      </g>
     </g>
    </g>
    <g id="xtick_40">
     <g id="line2d_40">
      <g>
       <use xlink:href="#m8731b0c352" x="333.528641" y="168.698769" style="stroke: #000000; stroke-width: 0.6"/>
      </g>
     </g>
    </g>
    <g id="xtick_41">
     <g id="line2d_41">
      <g>
       <use xlink:href="#m8731b0c352" x="341.293005" y="168.698769" style="stroke: #000000; stroke-width: 0.6"/>
      </g>
     </g>
    </g>
   </g>
   <g id="matplotlib.axis_2">
    <g id="ytick_1">
     <g id="line2d_42">
      <defs>
       <path id="m4c3fff60ed" d="M 0 0 
L -3.5 0 
" style="stroke: #000000; stroke-width: 0.8"/>
      </defs>
      <g>
       <use xlink:href="#m4c3fff60ed" x="38.482813" y="323.986047" style="stroke: #000000; stroke-width: 0.8"/>
      </g>
     </g>
     <g id="text_9">
      <!-- 2.0 -->
      <g transform="translate(7.2 327.785266) scale(0.1 -0.1)">
       <defs>
        <path id="DejaVuSans-2212" d="M 678 2272 
L 4684 2272 
L 4684 1741 
L 678 1741 
L 678 2272 
z
" transform="scale(0.015625)"/>
       </defs>
       <use xlink:href="#DejaVuSans-2212"/>
       <use xlink:href="#DejaVuSans-32" x="83.789062"/>
       <use xlink:href="#DejaVuSans-2e" x="147.412109"/>
       <use xlink:href="#DejaVuSans-30" x="179.199219"/>
      </g>
     </g>
    </g>
    <g id="ytick_2">
     <g id="line2d_43">
      <g>
       <use xlink:href="#m4c3fff60ed" x="38.482813" y="285.164228" style="stroke: #000000; stroke-width: 0.8"/>
      </g>
     </g>
     <g id="text_10">
      <!-- 1.5 -->
      <g transform="translate(7.2 288.963447) scale(0.1 -0.1)">
       <use xlink:href="#DejaVuSans-2212"/>
       <use xlink:href="#DejaVuSans-31" x="83.789062"/>
       <use xlink:href="#DejaVuSans-2e" x="147.412109"/>
       <use xlink:href="#DejaVuSans-35" x="179.199219"/>
      </g>
     </g>
    </g>
    <g id="ytick_3">
     <g id="line2d_44">
      <g>
       <use xlink:href="#m4c3fff60ed" x="38.482813" y="246.342408" style="stroke: #000000; stroke-width: 0.8"/>
      </g>
     </g>
     <g id="text_11">
      <!-- 1.0 -->
      <g transform="translate(7.2 250.141627) scale(0.1 -0.1)">
       <use xlink:href="#DejaVuSans-2212"/>
       <use xlink:href="#DejaVuSans-31" x="83.789062"/>
       <use xlink:href="#DejaVuSans-2e" x="147.412109"/>
       <use xlink:href="#DejaVuSans-30" x="179.199219"/>
      </g>
     </g>
    </g>
    <g id="ytick_4">
     <g id="line2d_45">
      <g>
       <use xlink:href="#m4c3fff60ed" x="38.482813" y="207.520589" style="stroke: #000000; stroke-width: 0.8"/>
      </g>
     </g>
     <g id="text_12">
      <!-- 0.5 -->
      <g transform="translate(7.2 211.319808) scale(0.1 -0.1)">
       <use xlink:href="#DejaVuSans-2212"/>
       <use xlink:href="#DejaVuSans-30" x="83.789062"/>
       <use xlink:href="#DejaVuSans-2e" x="147.412109"/>
       <use xlink:href="#DejaVuSans-35" x="179.199219"/>
      </g>
     </g>
    </g>
    <g id="ytick_5">
     <g id="line2d_46">
      <g>
       <use xlink:href="#m4c3fff60ed" x="38.482813" y="168.698769" style="stroke: #000000; stroke-width: 0.8"/>
      </g>
     </g>
    </g>
    <g id="ytick_6">
     <g id="line2d_47">
      <g>
       <use xlink:href="#m4c3fff60ed" x="38.482813" y="129.87695" style="stroke: #000000; stroke-width: 0.8"/>
      </g>
     </g>
     <g id="text_13">
      <!-- 0.5 -->
      <g transform="translate(15.579688 133.676168) scale(0.1 -0.1)">
       <use xlink:href="#DejaVuSans-30"/>
       <use xlink:href="#DejaVuSans-2e" x="63.623047"/>
       <use xlink:href="#DejaVuSans-35" x="95.410156"/>
      </g>
     </g>
    </g>
    <g id="ytick_7">
     <g id="line2d_48">
      <g>
       <use xlink:href="#m4c3fff60ed" x="38.482813" y="91.05513" style="stroke: #000000; stroke-width: 0.8"/>
      </g>
     </g>
     <g id="text_14">
      <!-- 1.0 -->
      <g transform="translate(15.579688 94.854349) scale(0.1 -0.1)">
       <use xlink:href="#DejaVuSans-31"/>
       <use xlink:href="#DejaVuSans-2e" x="63.623047"/>
       <use xlink:href="#DejaVuSans-30" x="95.410156"/>
      </g>
     </g>
    </g>
    <g id="ytick_8">
     <g id="line2d_49">
      <g>
       <use xlink:href="#m4c3fff60ed" x="38.482813" y="52.233311" style="stroke: #000000; stroke-width: 0.8"/>
      </g>
     </g>
     <g id="text_15">
      <!-- 1.5 -->
      <g transform="translate(15.579688 56.032529) scale(0.1 -0.1)">
       <use xlink:href="#DejaVuSans-31"/>
       <use xlink:href="#DejaVuSans-2e" x="63.623047"/>
       <use xlink:href="#DejaVuSans-35" x="95.410156"/>
      </g>
     </g>
    </g>
    <g id="ytick_9">
     <g id="line2d_50">
      <g>
       <use xlink:href="#m4c3fff60ed" x="38.482813" y="13.411491" style="stroke: #000000; stroke-width: 0.8"/>
      </g>
     </g>
     <g id="text_16">
      <!-- 2.0 -->
      <g transform="translate(15.579688 17.21071) scale(0.1 -0.1)">
       <use xlink:href="#DejaVuSans-32"/>
       <use xlink:href="#DejaVuSans-2e" x="63.623047"/>
       <use xlink:href="#DejaVuSans-30" x="95.410156"/>
      </g>
     </g>
    </g>
    <g id="ytick_10">
     <g id="line2d_51">
      <defs>
       <path id="m87117fc1ab" d="M 0 0 
L -2 0 
" style="stroke: #000000; stroke-width: 0.6"/>
      </defs>
      <g>
       <use xlink:href="#m87117fc1ab" x="38.482813" y="316.221683" style="stroke: #000000; stroke-width: 0.6"/>
      </g>
     </g>
    </g>
    <g id="ytick_11">
     <g id="line2d_52">
      <g>
       <use xlink:href="#m87117fc1ab" x="38.482813" y="308.45732" style="stroke: #000000; stroke-width: 0.6"/>
      </g>
     </g>
    </g>
    <g id="ytick_12">
     <g id="line2d_53">
      <g>
       <use xlink:href="#m87117fc1ab" x="38.482813" y="300.692956" style="stroke: #000000; stroke-width: 0.6"/>
      </g>
     </g>
    </g>
    <g id="ytick_13">
     <g id="line2d_54">
      <g>
       <use xlink:href="#m87117fc1ab" x="38.482813" y="292.928592" style="stroke: #000000; stroke-width: 0.6"/>
      </g>
     </g>
    </g>
    <g id="ytick_14">
     <g id="line2d_55">
      <g>
       <use xlink:href="#m87117fc1ab" x="38.482813" y="277.399864" style="stroke: #000000; stroke-width: 0.6"/>
      </g>
     </g>
    </g>
    <g id="ytick_15">
     <g id="line2d_56">
      <g>
       <use xlink:href="#m87117fc1ab" x="38.482813" y="269.6355" style="stroke: #000000; stroke-width: 0.6"/>
      </g>
     </g>
    </g>
    <g id="ytick_16">
     <g id="line2d_57">
      <g>
       <use xlink:href="#m87117fc1ab" x="38.482813" y="261.871136" style="stroke: #000000; stroke-width: 0.6"/>
      </g>
     </g>
    </g>
    <g id="ytick_17">
     <g id="line2d_58">
      <g>
       <use xlink:href="#m87117fc1ab" x="38.482813" y="254.106772" style="stroke: #000000; stroke-width: 0.6"/>
      </g>
     </g>
    </g>
    <g id="ytick_18">
     <g id="line2d_59">
      <g>
       <use xlink:href="#m87117fc1ab" x="38.482813" y="238.578044" style="stroke: #000000; stroke-width: 0.6"/>
      </g>
     </g>
    </g>
    <g id="ytick_19">
     <g id="line2d_60">
      <g>
       <use xlink:href="#m87117fc1ab" x="38.482813" y="230.81368" style="stroke: #000000; stroke-width: 0.6"/>
      </g>
     </g>
    </g>
    <g id="ytick_20">
     <g id="line2d_61">
      <g>
       <use xlink:href="#m87117fc1ab" x="38.482813" y="223.049317" style="stroke: #000000; stroke-width: 0.6"/>
      </g>
     </g>
    </g>
    <g id="ytick_21">
     <g id="line2d_62">
      <g>
       <use xlink:href="#m87117fc1ab" x="38.482813" y="215.284953" style="stroke: #000000; stroke-width: 0.6"/>
      </g>
     </g>
    </g>
    <g id="ytick_22">
     <g id="line2d_63">
      <g>
       <use xlink:href="#m87117fc1ab" x="38.482813" y="199.756225" style="stroke: #000000; stroke-width: 0.6"/>
      </g>
     </g>
    </g>
    <g id="ytick_23">
     <g id="line2d_64">
      <g>
       <use xlink:href="#m87117fc1ab" x="38.482813" y="191.991861" style="stroke: #000000; stroke-width: 0.6"/>
      </g>
     </g>
    </g>
    <g id="ytick_24">
     <g id="line2d_65">
      <g>
       <use xlink:href="#m87117fc1ab" x="38.482813" y="184.227497" style="stroke: #000000; stroke-width: 0.6"/>
      </g>
     </g>
    </g>
    <g id="ytick_25">
     <g id="line2d_66">
      <g>
       <use xlink:href="#m87117fc1ab" x="38.482813" y="176.463133" style="stroke: #000000; stroke-width: 0.6"/>
      </g>
     </g>
    </g>
    <g id="ytick_26">
     <g id="line2d_67">
      <g>
       <use xlink:href="#m87117fc1ab" x="38.482813" y="160.934405" style="stroke: #000000; stroke-width: 0.6"/>
      </g>
     </g>
    </g>
    <g id="ytick_27">
     <g id="line2d_68">
      <g>
       <use xlink:href="#m87117fc1ab" x="38.482813" y="153.170041" style="stroke: #000000; stroke-width: 0.6"/>
      </g>
     </g>
    </g>
    <g id="ytick_28">
     <g id="line2d_69">
      <g>
       <use xlink:href="#m87117fc1ab" x="38.482813" y="145.405678" style="stroke: #000000; stroke-width: 0.6"/>
      </g>
     </g>
    </g>
    <g id="ytick_29">
     <g id="line2d_70">
      <g>
       <use xlink:href="#m87117fc1ab" x="38.482813" y="137.641314" style="stroke: #000000; stroke-width: 0.6"/>
      </g>
     </g>
    </g>
    <g id="ytick_30">
     <g id="line2d_71">
      <g>
       <use xlink:href="#m87117fc1ab" x="38.482813" y="122.112586" style="stroke: #000000; stroke-width: 0.6"/>
      </g>
     </g>
    </g>
    <g id="ytick_31">
     <g id="line2d_72">
      <g>
       <use xlink:href="#m87117fc1ab" x="38.482813" y="114.348222" style="stroke: #000000; stroke-width: 0.6"/>
      </g>
     </g>
    </g>
    <g id="ytick_32">
     <g id="line2d_73">
      <g>
       <use xlink:href="#m87117fc1ab" x="38.482813" y="106.583858" style="stroke: #000000; stroke-width: 0.6"/>
      </g>
     </g>
    </g>
    <g id="ytick_33">
     <g id="line2d_74">
      <g>
       <use xlink:href="#m87117fc1ab" x="38.482813" y="98.819494" style="stroke: #000000; stroke-width: 0.6"/>
      </g>
     </g>
    </g>
    <g id="ytick_34">
     <g id="line2d_75">
      <g>
       <use xlink:href="#m87117fc1ab" x="38.482813" y="83.290766" style="stroke: #000000; stroke-width: 0.6"/>
      </g>
     </g>
    </g>
    <g id="ytick_35">
     <g id="line2d_76">
      <g>
       <use xlink:href="#m87117fc1ab" x="38.482813" y="75.526402" style="stroke: #000000; stroke-width: 0.6"/>
      </g>
     </g>
    </g>
    <g id="ytick_36">
     <g id="line2d_77">
      <g>
       <use xlink:href="#m87117fc1ab" x="38.482813" y="67.762038" style="stroke: #000000; stroke-width: 0.6"/>
      </g>
     </g>
    </g>
    <g id="ytick_37">
     <g id="line2d_78">
      <g>
       <use xlink:href="#m87117fc1ab" x="38.482813" y="59.997675" style="stroke: #000000; stroke-width: 0.6"/>
      </g>
     </g>
    </g>
    <g id="ytick_38">
     <g id="line2d_79">
      <g>
       <use xlink:href="#m87117fc1ab" x="38.482813" y="44.468947" style="stroke: #000000; stroke-width: 0.6"/>
      </g>
     </g>
    </g>
    <g id="ytick_39">
     <g id="line2d_80">
      <g>
       <use xlink:href="#m87117fc1ab" x="38.482813" y="36.704583" style="stroke: #000000; stroke-width: 0.6"/>
      </g>
     </g>
    </g>
    <g id="ytick_40">
     <g id="line2d_81">
      <g>
       <use xlink:href="#m87117fc1ab" x="38.482813" y="28.940219" style="stroke: #000000; stroke-width: 0.6"/>
      </g>
     </g>
    </g>
    <g id="ytick_41">
     <g id="line2d_82">
      <g>
       <use xlink:href="#m87117fc1ab" x="38.482813" y="21.175855" style="stroke: #000000; stroke-width: 0.6"/>
      </g>
     </g>
    </g>
   </g>
   <g id="PathCollection_5">
    <path d="M 116.910731 170.267328 
L 99.667039 135.759044 
L 82.402447 101.25076 
L 65.164704 66.742476 
L 54.168396 44.782658 
L 46.373166 29.097075 
L 41.619929 19.685725 
L 40.278068 16.548608 
L 41.619929 14.691998 
L 44.757046 15.235393 
L 51.031279 16.587458 
L 57.305513 18.289329 
L 66.716863 20.703303 
L 91.813797 27.424104 
L 109.170555 32.234192 
L 142.007665 41.92077 
L 173.378832 51.940929 
L 192.201532 58.37879 
L 207.887116 64.024119 
L 226.709816 71.278318 
L 236.121166 75.099027 
L 239.258283 76.379167 
L 254.943867 83.254375 
L 266.626433 88.702293 
L 284.877097 98.113643 
L 298.863501 106.332419 
L 302.000618 108.302502 
L 305.670087 110.66211 
L 314.549085 116.936343 
L 322.396977 123.210577 
L 329.243198 129.48481 
L 335.072563 135.759044 
L 339.896474 142.033277 
L 341.919292 145.170394 
L 345.215907 151.444627 
L 347.494267 157.718861 
L 348.257246 160.855977 
L 348.768677 163.993094 
L 349.025254 167.130211 
L 345.920252 168.704123 
L 126.322081 168.819428 
L 120.047847 169.012481 
L 116.910731 170.267328 
L 116.910731 170.267328 
" clip-path="url(#pcd5e8c248b)" style="fill: none; stroke: #008000; stroke-width: 1.5"/>
   </g>
   <g id="PathCollection_6">
    <path d="M 38.482813 323.986047 
L 38.482813 323.986047 
z
" clip-path="url(#pcd5e8c248b)" style="fill: none; stroke: #ffffff; stroke-width: 1.5"/>
    <path d="M 38.482813 13.411491 
L 38.482813 13.411491 
z
" clip-path="url(#pcd5e8c248b)" style="fill: none; stroke: #ffffff; stroke-width: 1.5"/>
    <path d="M 116.910731 170.267328 
L 99.667039 135.759044 
L 82.402447 101.25076 
L 65.164704 66.742476 
L 54.168396 44.782658 
L 46.373166 29.097075 
L 41.619929 19.685725 
L 40.278068 16.548608 
L 41.619929 14.691998 
L 44.757046 15.235393 
L 51.031279 16.587458 
L 57.305513 18.289329 
L 66.716863 20.703303 
L 91.813797 27.424104 
L 109.170555 32.234192 
L 142.007665 41.92077 
L 173.378832 51.940929 
L 192.201532 58.37879 
L 207.887116 64.024119 
L 226.709816 71.278318 
L 236.121166 75.099027 
L 239.258283 76.379167 
L 254.943867 83.254375 
L 266.626433 88.702293 
L 284.877097 98.113643 
L 298.863501 106.332419 
L 302.000618 108.302502 
L 305.670087 110.66211 
L 314.549085 116.936343 
L 322.396977 123.210577 
L 329.243198 129.48481 
L 335.072563 135.759044 
L 339.896474 142.033277 
L 341.919292 145.170394 
L 345.215907 151.444627 
L 347.494267 157.718861 
L 348.257246 160.855977 
L 348.768677 163.993094 
L 349.025254 167.130211 
L 345.920252 168.704123 
L 126.322081 168.819428 
L 120.047847 169.012481 
L 116.910731 170.267328 
L 116.910731 170.267328 
" clip-path="url(#pcd5e8c248b)" style="fill: none; stroke: #ffffff; stroke-width: 1.5"/>
   </g>
   <g id="PathCollection_7">
    <path d="M 38.482813 323.986047 
L 38.482813 323.986047 
z
" clip-path="url(#pcd5e8c248b)" style="fill: none; stroke: #ffffff; stroke-width: 1.5"/>
    <path d="M 38.482813 13.411491 
L 38.482813 13.411491 
" clip-path="url(#pcd5e8c248b)" style="fill: none; stroke: #ffffff; stroke-width: 1.5"/>
    <path d="M 116.910731 170.267328 
L 99.667039 135.759044 
L 82.402447 101.25076 
L 65.164704 66.742476 
L 54.168396 44.782658 
L 46.373166 29.097075 
L 41.619929 19.685725 
L 40.278068 16.548608 
L 41.619929 14.691998 
L 44.757046 15.235393 
L 51.031279 16.587458 
L 57.305513 18.289329 
L 66.716863 20.703303 
L 91.813797 27.424104 
L 109.170555 32.234192 
L 142.007665 41.92077 
L 173.378832 51.940929 
L 192.201532 58.37879 
L 207.887116 64.024119 
L 226.709816 71.278318 
L 236.121166 75.099027 
L 239.258283 76.379167 
L 254.943867 83.254375 
L 266.626433 88.702293 
L 284.877097 98.113643 
L 298.863501 106.332419 
L 302.000618 108.302502 
L 305.670087 110.66211 
L 314.549085 116.936343 
L 322.396977 123.210577 
L 329.243198 129.48481 
L 335.072563 135.759044 
L 339.896474 142.033277 
L 341.919292 145.170394 
L 345.215907 151.444627 
L 347.494267 157.718861 
L 348.257246 160.855977 
L 348.768677 163.993094 
L 349.025254 167.130211 
L 345.920252 168.704123 
L 126.322081 168.819428 
L 120.047847 169.012481 
L 116.910731 170.267328 
L 116.910731 170.267328 
" clip-path="url(#pcd5e8c248b)" style="fill: none; stroke: #ffffff; stroke-width: 1.5"/>
   </g>
   <g id="line2d_83">
    <path d="M 38.482813 323.986047 
L 65.967683 316.955686 
L 83.956947 312.167795 
L 107.048825 305.776937 
L 123.162195 301.13488 
L 143.703029 294.970137 
L 162.257115 289.130706 
L 178.289569 283.846646 
L 194.239841 278.337249 
L 205.974545 274.100245 
L 218.501861 269.380469 
L 232.342962 263.893996 
L 244.065842 258.986776 
L 256.039362 253.68263 
L 267.681642 248.186551 
L 276.780893 243.610775 
L 285.561952 238.912836 
L 293.241178 234.530161 
L 299.373617 230.80857 
L 306.04651 226.487346 
L 311.717293 222.543169 
L 315.76143 219.543807 
L 321.195719 215.209842 
L 326.016863 210.994735 
L 328.698524 208.457225 
L 332.674167 204.364599 
L 335.329034 201.347167 
L 338.550167 197.261287 
L 341.355236 193.153249 
L 343.163722 190.090454 
L 345.284444 185.814365 
L 346.389232 183.091957 
L 347.470429 179.79903 
L 348.180627 176.949431 
L 348.749587 173.587259 
L 348.946422 171.633783 
L 349.050786 167.983853 
L 348.86285 164.812496 
L 348.45847 161.879628 
L 347.941909 159.392407 
L 347.25972 156.884542 
L 345.960277 153.191692 
L 344.549232 149.989731 
L 342.868035 146.777035 
L 341.426059 144.35698 
L 338.954077 140.690621 
L 336.69575 137.718113 
L 335.03027 135.697027 
L 331.236282 131.500732 
L 327.585949 127.868398 
L 323.681425 124.310926 
L 319.599715 120.874095 
L 315.470449 117.632042 
L 310.535733 114.0091 
L 304.39019 109.808003 
L 298.999848 106.355782 
L 291.302753 101.734013 
L 283.227006 97.20535 
L 275.163605 92.95327 
L 265.42156 88.114723 
L 254.599331 83.059609 
L 245.583004 79.065482 
L 233.330121 73.906973 
L 221.883472 69.329538 
L 210.326878 64.912739 
L 196.787523 59.966139 
L 184.491996 55.661366 
L 170.121872 50.829337 
L 152.035645 45.015773 
L 135.840927 40.032921 
L 117.412139 34.587701 
L 98.563376 29.238147 
L 77.501258 23.493381 
L 55.554307 17.739683 
L 38.482813 13.411491 
L 38.482813 13.411491 
" clip-path="url(#pcd5e8c248b)" style="fill: none; stroke: #0000ff; stroke-linecap: square"/>
   </g>
   <g id="line2d_84">
    <path d="M 193.770091 323.986047 
L 38.482813 13.411491 
L 38.482813 13.411491 
" clip-path="url(#pcd5e8c248b)" style="fill: none; stroke: #ff0000; stroke-linecap: square"/>
   </g>
   <g id="patch_3">
    <path d="M 38.482813 330.197538 
L 38.482813 7.2 
" style="fill: none; stroke: #000000; stroke-width: 0.8; stroke-linejoin: miter; stroke-linecap: square"/>
   </g>
   <g id="patch_4">
    <path d="M 32.271321 168.698769 
L 355.26886 168.698769 
" style="fill: none; stroke: #000000; stroke-width: 0.8; stroke-linejoin: miter; stroke-linecap: square"/>
   </g>
   <g id="text_17">
    <!-- $x+2y=1$ -->
    <g transform="translate(206.67191 307.862013) scale(0.12 -0.12)">
     <defs>
      <path id="Cmmi10-78" d="M 500 184 
Q 613 97 819 97 
Q 1019 97 1172 289 
Q 1325 481 1381 709 
L 1672 1844 
Q 1741 2153 1741 2266 
Q 1741 2425 1652 2544 
Q 1563 2663 1403 2663 
Q 1200 2663 1022 2536 
Q 844 2409 722 2214 
Q 600 2019 550 1819 
Q 538 1778 500 1778 
L 422 1778 
Q 372 1778 372 1838 
L 372 1856 
Q 434 2094 584 2320 
Q 734 2547 951 2687 
Q 1169 2828 1416 2828 
Q 1650 2828 1839 2703 
Q 2028 2578 2106 2363 
Q 2216 2559 2386 2693 
Q 2556 2828 2759 2828 
Q 2897 2828 3040 2779 
Q 3184 2731 3275 2631 
Q 3366 2531 3366 2381 
Q 3366 2219 3261 2101 
Q 3156 1984 2994 1984 
Q 2891 1984 2822 2050 
Q 2753 2116 2753 2216 
Q 2753 2350 2845 2451 
Q 2938 2553 3066 2572 
Q 2950 2663 2747 2663 
Q 2541 2663 2389 2472 
Q 2238 2281 2175 2047 
L 1894 916 
Q 1825 659 1825 494 
Q 1825 331 1917 214 
Q 2009 97 2163 97 
Q 2463 97 2698 361 
Q 2934 625 3009 941 
Q 3022 978 3059 978 
L 3138 978 
Q 3163 978 3178 961 
Q 3194 944 3194 922 
Q 3194 916 3188 903 
Q 3097 522 2806 225 
Q 2516 -72 2150 -72 
Q 1916 -72 1727 54 
Q 1538 181 1459 397 
Q 1359 209 1182 68 
Q 1006 -72 806 -72 
Q 669 -72 523 -23 
Q 378 25 287 125 
Q 197 225 197 378 
Q 197 528 301 651 
Q 406 775 563 775 
Q 669 775 741 711 
Q 813 647 813 544 
Q 813 409 723 309 
Q 634 209 500 184 
z
" transform="scale(0.015625)"/>
      <path id="Cmr10-2b" d="M 481 1472 
Q 428 1472 393 1512 
Q 359 1553 359 1600 
Q 359 1647 393 1687 
Q 428 1728 481 1728 
L 2363 1728 
L 2363 3616 
Q 2363 3666 2400 3698 
Q 2438 3731 2491 3731 
Q 2538 3731 2578 3698 
Q 2619 3666 2619 3616 
L 2619 1728 
L 4500 1728 
Q 4547 1728 4581 1687 
Q 4616 1647 4616 1600 
Q 4616 1553 4581 1512 
Q 4547 1472 4500 1472 
L 2619 1472 
L 2619 -416 
Q 2619 -466 2578 -498 
Q 2538 -531 2491 -531 
Q 2438 -531 2400 -498 
Q 2363 -466 2363 -416 
L 2363 1472 
L 481 1472 
z
" transform="scale(0.015625)"/>
      <path id="Cmr10-32" d="M 319 0 
L 319 172 
Q 319 188 331 206 
L 1325 1306 
Q 1550 1550 1690 1715 
Q 1831 1881 1968 2097 
Q 2106 2313 2186 2536 
Q 2266 2759 2266 3009 
Q 2266 3272 2169 3511 
Q 2072 3750 1880 3894 
Q 1688 4038 1416 4038 
Q 1138 4038 916 3870 
Q 694 3703 603 3438 
Q 628 3444 672 3444 
Q 816 3444 917 3347 
Q 1019 3250 1019 3097 
Q 1019 2950 917 2848 
Q 816 2747 672 2747 
Q 522 2747 420 2851 
Q 319 2956 319 3097 
Q 319 3338 409 3548 
Q 500 3759 670 3923 
Q 841 4088 1055 4175 
Q 1269 4263 1509 4263 
Q 1875 4263 2190 4108 
Q 2506 3953 2690 3670 
Q 2875 3388 2875 3009 
Q 2875 2731 2753 2481 
Q 2631 2231 2440 2026 
Q 2250 1822 1953 1562 
Q 1656 1303 1563 1216 
L 838 519 
L 1453 519 
Q 1906 519 2211 526 
Q 2516 534 2534 550 
Q 2609 631 2688 1141 
L 2875 1141 
L 2694 0 
L 319 0 
z
" transform="scale(0.015625)"/>
      <path id="Cmmi10-79" d="M 538 -916 
Q 672 -1147 1006 -1147 
Q 1309 -1147 1531 -934 
Q 1753 -722 1889 -420 
Q 2025 -119 2100 197 
Q 1816 -72 1484 -72 
Q 1231 -72 1053 15 
Q 875 103 776 276 
Q 678 450 678 697 
Q 678 906 734 1126 
Q 791 1347 892 1617 
Q 994 1888 1069 2088 
Q 1153 2322 1153 2472 
Q 1153 2663 1013 2663 
Q 759 2663 595 2402 
Q 431 2141 353 1819 
Q 341 1778 300 1778 
L 225 1778 
Q 172 1778 172 1838 
L 172 1856 
Q 275 2238 487 2533 
Q 700 2828 1025 2828 
Q 1253 2828 1411 2678 
Q 1569 2528 1569 2297 
Q 1569 2178 1516 2047 
Q 1488 1969 1388 1706 
Q 1288 1444 1234 1272 
Q 1181 1100 1147 934 
Q 1113 769 1113 603 
Q 1113 391 1203 244 
Q 1294 97 1491 97 
Q 1888 97 2203 581 
L 2688 2553 
Q 2709 2638 2787 2698 
Q 2866 2759 2956 2759 
Q 3034 2759 3092 2709 
Q 3150 2659 3150 2578 
Q 3150 2541 3144 2528 
L 2509 -19 
Q 2425 -347 2200 -647 
Q 1975 -947 1658 -1130 
Q 1341 -1313 997 -1313 
Q 831 -1313 668 -1248 
Q 506 -1184 406 -1056 
Q 306 -928 306 -756 
Q 306 -581 409 -453 
Q 513 -325 684 -325 
Q 788 -325 858 -389 
Q 928 -453 928 -556 
Q 928 -703 818 -812 
Q 709 -922 563 -922 
Q 556 -919 550 -917 
Q 544 -916 538 -916 
z
" transform="scale(0.015625)"/>
      <path id="Cmr10-3d" d="M 481 850 
Q 428 850 393 890 
Q 359 931 359 978 
Q 359 1031 393 1068 
Q 428 1106 481 1106 
L 4500 1106 
Q 4547 1106 4581 1068 
Q 4616 1031 4616 978 
Q 4616 931 4581 890 
Q 4547 850 4500 850 
L 481 850 
z
M 481 2094 
Q 428 2094 393 2131 
Q 359 2169 359 2222 
Q 359 2269 393 2309 
Q 428 2350 481 2350 
L 4500 2350 
Q 4547 2350 4581 2309 
Q 4616 2269 4616 2222 
Q 4616 2169 4581 2131 
Q 4547 2094 4500 2094 
L 481 2094 
z
" transform="scale(0.015625)"/>
      <path id="Cmr10-31" d="M 594 0 
L 594 225 
Q 1394 225 1394 428 
L 1394 3788 
Q 1063 3628 556 3628 
L 556 3853 
Q 1341 3853 1741 4263 
L 1831 4263 
Q 1853 4263 1873 4245 
Q 1894 4228 1894 4206 
L 1894 428 
Q 1894 225 2694 225 
L 2694 0 
L 594 0 
z
" transform="scale(0.015625)"/>
     </defs>
     <use xlink:href="#Cmmi10-78" transform="translate(0 0.390625)"/>
     <use xlink:href="#Cmr10-2b" transform="translate(74.638672 0.390625)"/>
     <use xlink:href="#Cmr10-32" transform="translate(169.882812 0.390625)"/>
     <use xlink:href="#Cmmi10-79" transform="translate(219.882812 0.390625)"/>
     <use xlink:href="#Cmr10-3d" transform="translate(286.464844 0.390625)"/>
     <use xlink:href="#Cmr10-31" transform="translate(381.708984 0.390625)"/>
    </g>
   </g>
   <g id="text_18">
    <!-- $x+4y^2=1$ -->
    <g transform="translate(164.970091 32.780219) scale(0.12 -0.12)">
     <defs>
      <path id="Cmr10-34" d="M 178 1056 
L 178 1281 
L 2156 4231 
Q 2178 4263 2222 4263 
L 2316 4263 
Q 2388 4263 2388 4191 
L 2388 1281 
L 3016 1281 
L 3016 1056 
L 2388 1056 
L 2388 428 
Q 2388 297 2575 261 
Q 2763 225 3009 225 
L 3009 0 
L 1247 0 
L 1247 225 
Q 1494 225 1681 261 
Q 1869 297 1869 428 
L 1869 1056 
L 178 1056 
z
M 391 1281 
L 1906 1281 
L 1906 3547 
L 391 1281 
z
" transform="scale(0.015625)"/>
     </defs>
     <use xlink:href="#Cmmi10-78" transform="translate(0 0.109375)"/>
     <use xlink:href="#Cmr10-2b" transform="translate(74.638672 0.109375)"/>
     <use xlink:href="#Cmr10-34" transform="translate(169.882812 0.109375)"/>
     <use xlink:href="#Cmmi10-79" transform="translate(219.882812 0.109375)"/>
     <use xlink:href="#Cmr10-32" transform="translate(275.209531 38.373438) scale(0.7)"/>
     <use xlink:href="#Cmr10-3d" transform="translate(334.145469 0.109375)"/>
     <use xlink:href="#Cmr10-31" transform="translate(429.389609 0.109375)"/>
    </g>
   </g>
   <g id="text_19">
    <!-- $\mathcal{R}$ -->
    <g transform="translate(188.670091 133.1882) scale(0.12 -0.12)">
     <defs>
      <path id="Cmsy10-52" d="M 738 -91 
Q 738 -78 744 -56 
Q 966 475 1128 959 
Q 1291 1444 1428 1991 
Q 1678 2959 1766 3994 
Q 1425 3994 1094 3872 
Q 922 3803 833 3695 
Q 744 3588 684 3397 
Q 622 3291 472 3197 
Q 322 3103 206 3103 
L 166 3103 
Q 122 3131 122 3169 
Q 234 3556 581 3828 
Q 928 4100 1387 4236 
Q 1847 4372 2259 4372 
L 2931 4372 
Q 3378 4372 3739 4331 
Q 4100 4291 4392 4112 
Q 4684 3934 4684 3572 
Q 4684 3281 4548 3014 
Q 4413 2747 4189 2533 
Q 3966 2319 3697 2158 
Q 3428 1997 3156 1900 
Q 3253 1784 3383 1501 
Q 3513 1219 3659 911 
Q 3806 603 3951 420 
Q 4097 238 4256 238 
Q 4444 238 4551 308 
Q 4659 378 4775 520 
Q 4891 663 4997 745 
Q 5103 828 5281 844 
L 5319 844 
Q 5363 822 5363 794 
Q 5363 784 5356 768 
Q 5350 753 5344 738 
Q 5188 503 4936 297 
Q 4684 91 4393 -25 
Q 4103 -141 3828 -141 
L 3788 -141 
Q 3541 -141 3372 98 
Q 3203 338 3003 811 
Q 2803 1284 2651 1515 
Q 2500 1747 2278 1747 
Q 2266 1753 2250 1765 
Q 2234 1778 2234 1797 
Q 2234 1900 2420 2006 
Q 2606 2113 2719 2125 
Q 3072 2125 3395 2262 
Q 3719 2400 3917 2667 
Q 4116 2934 4116 3291 
Q 4116 3613 3833 3767 
Q 3550 3922 3203 3958 
Q 2856 3994 2450 3994 
L 2309 3994 
Q 2209 3041 1954 2070 
Q 1700 1100 1300 153 
Q 1238 41 1092 -43 
Q 947 -128 813 -141 
L 781 -141 
Q 769 -134 753 -121 
Q 738 -109 738 -91 
z
" transform="scale(0.015625)"/>
     </defs>
     <use xlink:href="#Cmsy10-52" transform="translate(0 0.6875)"/>
    </g>
   </g>
  </g>
 </g>
 <defs>
  <clipPath id="pcd5e8c248b">
   <rect x="32.271321" y="7.2" width="322.997538" height="322.997538"/>
  </clipPath>
 </defs>
</svg>
