<?xml version="1.0" encoding="utf-8" standalone="no"?>
<!DOCTYPE svg PUBLIC "-//W3C//DTD SVG 1.1//EN"
  "http://www.w3.org/Graphics/SVG/1.1/DTD/svg11.dtd">
<svg xmlns:xlink="http://www.w3.org/1999/xlink" width="452.717544pt" height="337.397538pt" viewBox="0 0 452.717544 337.397538" xmlns="http://www.w3.org/2000/svg" version="1.1">
 <metadata>
  <rdf:RDF xmlns:dc="http://purl.org/dc/elements/1.1/" xmlns:cc="http://creativecommons.org/ns#" xmlns:rdf="http://www.w3.org/1999/02/22-rdf-syntax-ns#">
   <cc:Work>
    <dc:type rdf:resource="http://purl.org/dc/dcmitype/StillImage"/>
    <dc:date>2023-11-30T09:50:47.530636</dc:date>
    <dc:format>image/svg+xml</dc:format>
    <dc:creator>
     <cc:Agent>
      <dc:title>Matplotlib v3.6.2, https://matplotlib.org/</dc:title>
     </cc:Agent>
    </dc:creator>
   </cc:Work>
  </rdf:RDF>
 </metadata>
 <defs>
  <style type="text/css">*{stroke-linejoin: round; stroke-linecap: butt}</style>
 </defs>
 <g id="figure_1">
  <g id="patch_1">
   <path d="M 0 337.397538 
L 452.717544 337.397538 
L 452.717544 0 
L 0 0 
z
" style="fill: #ffffff"/>
  </g>
  <g id="axes_1">
   <g id="patch_2">
    <path d="M 45.304688 330.197538 
L 445.25738 330.197538 
L 445.25738 7.2 
L 45.304688 7.2 
z
" style="fill: #ffffff"/>
   </g>
   <g id="patch_3">
    <path d="M 52.996085 168.698769 
L 52.996085 179.465788 
L 54.514639 179.622338 
L 57.452669 179.929081 
L 59.052237 180.098307 
L 60.582279 180.261705 
L 63.581831 180.586555 
L 64.479369 180.684965 
L 66.379002 180.895157 
L 68.203995 181.099612 
L 70.544277 181.365569 
L 72.639803 181.607474 
L 74.280459 181.799464 
L 75.626634 181.95876 
L 78.609746 182.317689 
L 79.300448 182.402006 
L 81.246711 182.642149 
L 83.94727 182.981881 
L 84.950923 183.11016 
L 87.4526 183.434914 
L 89.724679 183.736358 
L 92.078519 184.055572 
L 92.905113 184.169421 
L 96.097773 184.618194 
L 96.758703 184.712966 
L 99.580065 185.125197 
L 100.505512 185.263233 
L 103.611297 185.737339 
L 105.042952 185.961829 
L 107.113741 186.293622 
L 108.602989 186.537687 
L 110.247375 186.812769 
L 111.891761 187.094027 
L 112.964086 187.280927 
L 114.446495 187.544053 
L 116.963737 188.004247 
L 119.217284 188.431613 
L 120.854494 188.751938 
L 122.263281 189.034653 
L 123.608443 189.311064 
L 124.953605 189.594139 
L 126.091874 189.839154 
L 127.230143 190.089446 
L 128.12082 190.289143 
L 129.143006 190.52267 
L 130.165192 190.761045 
L 131.610773 191.106872 
L 132.892545 191.422551 
L 134.174316 191.747275 
L 135.199729 192.013949 
L 136.692888 192.413936 
L 138.186048 192.828731 
L 139.202486 193.120175 
L 140.392563 193.471394 
L 141.582641 193.834084 
L 142.920422 194.256487 
L 144.258203 194.695677 
L 145.205237 195.017504 
L 146.152272 195.349014 
L 147.228228 195.738179 
L 148.304185 196.141619 
L 149.12649 196.460248 
L 149.948795 196.788387 
L 150.862856 197.165018 
L 151.776918 197.555003 
L 152.55045 197.896183 
L 153.323982 198.248271 
L 154.005763 198.568202 
L 154.687544 198.897686 
L 155.369325 199.237295 
L 156.051106 199.587656 
L 156.577912 199.86617 
L 157.104719 200.151851 
L 157.631525 200.445064 
L 158.158331 200.746204 
L 158.914639 201.193248 
L 159.292792 201.423649 
L 159.670946 201.658884 
L 160.168701 201.97622 
L 160.666457 202.302757 
L 161.09725 202.593193 
L 161.528042 202.891278 
L 161.958835 203.197401 
L 162.389628 203.511986 
L 162.949477 203.934207 
L 163.509326 204.372577 
L 164.069174 204.828302 
L 164.349099 205.063086 
L 164.629023 205.302722 
L 164.950877 205.584499 
L 165.272731 205.873255 
L 165.594585 206.169319 
L 165.916439 206.473045 
L 166.238293 206.784811 
L 166.560147 207.105024 
L 166.882001 207.43412 
L 167.203855 207.772567 
L 167.426989 208.012959 
L 167.650123 208.258268 
L 167.873258 208.508682 
L 168.096392 208.764403 
L 168.319526 209.025642 
L 168.542661 209.292622 
L 168.765795 209.565582 
L 168.988929 209.844773 
L 169.34002 210.297331 
L 169.691111 210.767108 
L 169.866657 211.008838 
L 170.042202 211.255348 
L 170.217748 211.506815 
L 170.393293 211.763426 
L 170.609831 212.087334 
L 170.826368 212.419757 
L 171.042905 212.761113 
L 171.259442 213.111851 
L 171.475979 213.472452 
L 171.692517 213.843434 
L 171.909054 214.225353 
L 172.125591 214.618812 
L 172.257741 214.864881 
L 172.389891 215.115647 
L 172.522041 215.371274 
L 172.654192 215.631936 
L 172.786342 215.897817 
L 172.918492 216.169109 
L 173.050642 216.446014 
L 173.182792 216.728747 
L 173.314942 217.017533 
L 173.447092 217.312611 
L 173.579243 217.614233 
L 173.711393 217.922666 
L 173.843543 218.238194 
L 173.975693 218.561115 
L 174.107843 218.891749 
L 174.239993 219.230435 
L 174.420578 219.706929 
L 174.601163 220.200125 
L 174.781748 220.711108 
L 174.87204 220.973635 
L 174.962332 221.241064 
L 175.052625 221.51356 
L 175.142917 221.791298 
L 175.23321 222.074463 
L 175.323502 222.363247 
L 175.413794 222.657855 
L 175.504087 222.958499 
L 175.594379 223.265405 
L 175.684672 223.578811 
L 175.774964 223.898967 
L 175.865256 224.226139 
L 175.955549 224.560606 
L 176.045841 224.902664 
L 176.136133 225.252628 
L 176.226426 225.610829 
L 176.316718 225.977621 
L 176.407011 226.353379 
L 176.497303 226.738502 
L 176.587595 227.133415 
L 176.677888 227.538571 
L 176.76818 227.954454 
L 176.858473 228.38158 
L 176.948765 228.820504 
L 177.039057 229.271817 
L 177.12935 229.736159 
L 177.210485 230.165086 
L 177.291621 230.605617 
L 177.372756 231.058324 
L 177.453892 231.523817 
L 177.535028 232.002753 
L 177.616163 232.495837 
L 177.697299 233.003831 
L 177.778434 233.527553 
L 177.876329 234.181659 
L 177.974224 234.861656 
L 178.072119 235.569418 
L 178.170014 236.307024 
L 178.267909 237.076777 
L 178.365804 237.881246 
L 178.463699 238.723307 
L 178.561594 239.606183 
L 178.659489 240.533513 
L 178.757384 241.509414 
L 178.855279 242.538576 
L 178.953174 243.62636 
L 179.051069 244.778936 
L 179.148964 246.003447 
L 179.246859 247.308216 
L 179.344754 248.703016 
L 179.442649 250.199418 
L 179.540544 251.811241 
L 179.638438 253.555159 
L 179.736333 255.451519 
L 179.834228 257.525465 
L 179.932123 259.808525 
L 180.030018 262.340892 
L 180.127913 265.174795 
L 180.225808 268.379661 
L 180.323703 272.050283 
L 180.421598 276.320368 
L 180.519493 281.386249 
L 180.617388 287.551331 
L 180.715283 295.317042 
L 180.813178 305.592477 
L 180.911073 320.267466 
L 180.942084 326.451118 
L 180.973096 333.780995 
L 181.004107 342.690149 
L 181.035118 353.891123 
L 181.06613 368.667675 
L 181.097141 389.662797 
L 181.128152 423.651372 
L 181.159164 497.962376 
L 181.190175 -446.469769 
L 181.221186 -132.531384 
L 181.252198 -75.281325 
L 181.283209 -45.956395 
L 181.31422 -27.042893 
L 181.345232 -13.421509 
L 181.376243 -2.947652 
L 181.407254 5.464243 
L 181.438266 12.433353 
L 181.469277 18.343377 
L 181.500288 23.447084 
L 181.5313 27.919031 
L 181.562311 31.884356 
L 181.593322 35.435552 
L 181.624334 38.642735 
L 181.655345 41.560206 
L 181.686356 44.230799 
L 181.717368 46.688837 
L 181.748379 48.96221 
L 181.77939 51.073861 
L 181.810402 53.042863 
L 181.841413 54.885234 
L 181.872424 56.614538 
L 181.903436 58.242357 
L 181.981082 61.935243 
L 182.058728 65.174472 
L 182.136374 68.04913 
L 182.21402 70.625249 
L 182.291666 72.953006 
L 182.369312 75.071343 
L 182.446958 77.011027 
L 182.524604 78.796753 
L 182.602251 80.448612 
L 182.679897 81.983151 
L 182.757543 83.414141 
L 182.835189 84.753158 
L 182.912835 86.010011 
L 182.990481 87.193084 
L 183.068127 88.309588 
L 183.145773 89.36577 
L 183.223419 90.367071 
L 183.301065 91.31826 
L 183.378711 92.223532 
L 183.456357 93.0866 
L 183.534003 93.910764 
L 183.61165 94.698964 
L 183.689296 95.453838 
L 183.766942 96.177751 
L 183.844588 96.872838 
L 183.922234 97.541031 
L 183.99988 98.184081 
L 184.077526 98.803579 
L 184.155172 99.40098 
L 184.232818 99.977611 
L 184.310464 100.534689 
L 184.38811 101.073333 
L 184.448071 101.477328 
L 184.508031 101.871386 
L 184.567992 102.25592 
L 184.627953 102.631322 
L 184.687913 102.997959 
L 184.747874 103.356178 
L 184.807834 103.706308 
L 184.867795 104.048657 
L 184.927756 104.383519 
L 184.987716 104.711173 
L 185.047677 105.03188 
L 185.107637 105.345891 
L 185.167598 105.653444 
L 185.227558 105.954762 
L 185.287519 106.250062 
L 185.34748 106.539545 
L 185.40744 106.823408 
L 185.467401 107.101835 
L 185.527361 107.375002 
L 185.587322 107.643078 
L 185.647283 107.906224 
L 185.707243 108.164593 
L 185.827164 108.667584 
L 185.947085 109.153152 
L 186.067007 109.622308 
L 186.186928 110.075981 
L 186.306849 110.515026 
L 186.378201 110.769638 
L 186.449552 111.019509 
L 186.592255 111.505617 
L 186.734958 111.974466 
L 186.877662 112.427079 
L 187.020365 112.864392 
L 187.163068 113.28727 
L 187.305771 113.696508 
L 187.448474 114.092838 
L 187.591177 114.47694 
L 187.733881 114.849444 
L 187.876584 115.210933 
L 188.019287 115.561951 
L 188.16199 115.903003 
L 188.304693 116.234561 
L 188.447396 116.557065 
L 188.5901 116.870928 
L 188.707258 117.122419 
L 188.824416 117.368547 
L 188.941575 117.609503 
L 189.058733 117.845468 
L 189.29305 118.303109 
L 189.527366 118.742753 
L 189.761683 119.165564 
L 189.996 119.572604 
L 190.230317 119.964839 
L 190.464633 120.343155 
L 190.66984 120.663682 
L 190.875048 120.97466 
L 191.080255 121.27656 
L 191.285462 121.569816 
L 191.479735 121.839852 
L 191.674009 122.10283 
L 191.868282 122.359054 
L 192.062555 122.60881 
L 192.256829 122.852365 
L 192.451102 123.089973 
L 192.645375 123.321873 
L 192.839649 123.548289 
L 193.033922 123.769434 
L 193.228195 123.98551 
L 193.422469 124.196707 
L 193.616742 124.403205 
L 194.005289 124.802782 
L 194.393835 125.185508 
L 194.736611 125.510075 
L 195.079386 125.823136 
L 195.422162 126.125351 
L 195.764937 126.417325 
L 196.043006 126.647045 
L 196.321075 126.870673 
L 196.599143 127.088468 
L 196.877212 127.300677 
L 197.15528 127.507531 
L 197.433349 127.709246 
L 197.711418 127.90603 
L 197.989486 128.098074 
L 198.474936 128.42253 
L 198.960385 128.734001 
L 199.445835 129.033312 
L 199.931284 129.321213 
L 200.362859 129.568141 
L 200.794434 129.80704 
L 201.226009 130.038323 
L 201.657584 130.262373 
L 202.085475 130.47772 
L 202.513365 130.686631 
L 202.941256 130.889408 
L 203.369147 131.086333 
L 204.052831 131.389489 
L 204.736514 131.679369 
L 205.580214 132.020122 
L 206.423914 132.343534 
L 207.267614 132.650956 
L 208.111313 132.943592 
L 208.848453 133.188015 
L 209.834954 133.499884 
L 210.821454 133.795594 
L 211.468247 133.981312 
L 212.11504 134.160949 
L 212.761833 134.334804 
L 213.408626 134.503157 
L 214.370214 134.743834 
L 215.331803 134.973711 
L 216.023399 135.132771 
L 216.714995 135.286861 
L 218.098187 135.581037 
L 218.582821 135.679935 
L 219.632069 135.887087 
L 220.681317 136.085213 
L 221.694251 136.268453 
L 222.707186 136.444278 
L 224.009959 136.660202 
L 225.312732 136.865403 
L 226.485866 137.04163 
L 227.658999 137.210271 
L 228.707499 137.354948 
L 229.756 137.494232 
L 230.415531 137.579207 
L 231.973504 137.772275 
L 233.406148 137.940852 
L 234.838792 138.101426 
L 236.37332 138.265123 
L 237.604525 138.390638 
L 238.835729 138.511263 
L 240.322059 138.650727 
L 241.571371 138.763025 
L 243.081779 138.893124 
L 244.592187 139.017366 
L 245.992761 139.127634 
L 247.489623 139.240519 
L 248.986486 139.348553 
L 250.570552 139.457887 
L 251.400198 139.513196 
L 253.05304 139.619569 
L 254.705882 139.721102 
L 256.167785 139.807087 
L 257.440909 139.879189 
L 259.868054 140.009876 
L 260.931016 140.064452 
L 262.683169 140.151074 
L 265.648061 140.288728 
L 266.845042 140.34131 
L 270.282457 140.483436 
L 270.956012 140.509821 
L 272.635963 140.573651 
L 275.628244 140.680687 
L 277.7435 140.751518 
L 278.654493 140.780856 
L 281.00019 140.853313 
L 283.025359 140.912453 
L 284.503527 140.95372 
L 286.403458 141.004512 
L 288.656489 141.061613 
L 291.168196 141.121479 
L 293.334153 141.170067 
L 294.991866 141.205448 
L 295.632763 141.218721 
L 297.636525 141.258808 
L 301.267129 141.326247 
L 302.407826 141.346121 
L 304.082575 141.374215 
L 305.65994 141.399532 
L 307.481597 141.427439 
L 309.760805 141.460426 
L 311.762531 141.487703 
L 314.728182 141.525342 
L 316.644119 141.547981 
L 317.381979 141.556361 
L 320.121674 141.585889 
L 321.469012 141.599521 
L 324.296479 141.626307 
L 324.565306 141.628729 
L 326.690537 141.647138 
L 329.901318 141.672552 
L 332.231977 141.689276 
L 332.755444 141.69284 
L 335.450415 141.710113 
L 337.508349 141.722127 
L 338.338433 141.726694 
L 340.101511 141.735878 
L 343.259668 141.750628 
L 345.113004 141.758309 
L 346.907149 141.765083 
L 349.250756 141.772986 
L 351.02227 141.778273 
L 353.257496 141.784127 
L 355.058903 141.788205 
L 356.911372 141.791822 
L 358.608701 141.794637 
L 359.526918 141.795965 
L 361.406076 141.798271 
L 364.215629 141.80071 
L 366.269905 141.801757 
L 368.196943 141.802193 
L 369.200156 141.802216 
L 371.129016 141.801879 
L 374.404929 141.800193 
L 376.295146 141.798605 
L 378.33516 141.796403 
L 379.876436 141.794415 
L 381.380938 141.792209 
L 384.184366 141.787426 
L 384.454121 141.78692 
L 386.447257 141.782945 
L 389.542962 141.775954 
L 390.975307 141.772394 
L 393.726152 141.765 
L 395.492136 141.759877 
L 397.843734 141.752616 
L 398.645892 141.750027 
L 400.883241 141.74251 
L 402.639638 141.736313 
L 404.031817 141.731219 
L 406.263451 141.72273 
L 407.963268 141.716002 
L 409.578015 141.709406 
L 411.552276 141.701078 
L 413.980058 141.690449 
L 416.231542 141.680222 
L 418.044932 141.671734 
L 421.000813 141.657433 
L 421.953872 141.652702 
L 424.079546 141.641945 
L 426.616477 141.628747 
L 428.686508 141.617695 
L 429.556757 141.612976 
L 431.786324 141.600689 
L 432.972143 141.594042 
L 435.669182 141.578642 
L 437.565982 141.567583 
L 437.565982 168.698769 
z
" clip-path="url(#pb98a604715)" style="fill: #add8e6; opacity: 0.5"/>
   </g>
   <g id="matplotlib.axis_1">
    <g id="xtick_1">
     <g id="line2d_1">
      <defs>
       <path id="mc5c99ac1b7" d="M 0 0 
L 0 3.5 
" style="stroke: #000000; stroke-width: 0.8"/>
      </defs>
      <g>
       <use xlink:href="#mc5c99ac1b7" x="52.996085" y="168.698769" style="stroke: #000000; stroke-width: 0.8"/>
      </g>
     </g>
     <g id="text_1">
      <!-- 1.0 -->
      <g transform="translate(45.044523 183.297207) scale(0.1 -0.1)">
       <defs>
        <path id="DejaVuSans-31" d="M 794 531 
L 1825 531 
L 1825 4091 
L 703 3866 
L 703 4441 
L 1819 4666 
L 2450 4666 
L 2450 531 
L 3481 531 
L 3481 0 
L 794 0 
L 794 531 
z
" transform="scale(0.015625)"/>
        <path id="DejaVuSans-2e" d="M 684 794 
L 1344 794 
L 1344 0 
L 684 0 
L 684 794 
z
" transform="scale(0.015625)"/>
        <path id="DejaVuSans-30" d="M 2034 4250 
Q 1547 4250 1301 3770 
Q 1056 3291 1056 2328 
Q 1056 1369 1301 889 
Q 1547 409 2034 409 
Q 2525 409 2770 889 
Q 3016 1369 3016 2328 
Q 3016 3291 2770 3770 
Q 2525 4250 2034 4250 
z
M 2034 4750 
Q 2819 4750 3233 4129 
Q 3647 3509 3647 2328 
Q 3647 1150 3233 529 
Q 2819 -91 2034 -91 
Q 1250 -91 836 529 
Q 422 1150 422 2328 
Q 422 3509 836 4129 
Q 1250 4750 2034 4750 
z
" transform="scale(0.015625)"/>
       </defs>
       <use xlink:href="#DejaVuSans-31"/>
       <use xlink:href="#DejaVuSans-2e" x="63.623047"/>
       <use xlink:href="#DejaVuSans-30" x="95.410156"/>
      </g>
     </g>
    </g>
    <g id="xtick_2">
     <g id="line2d_2">
      <g>
       <use xlink:href="#mc5c99ac1b7" x="117.091068" y="168.698769" style="stroke: #000000; stroke-width: 0.8"/>
      </g>
     </g>
     <g id="text_2">
      <!-- 1.5 -->
      <g transform="translate(109.139506 183.297207) scale(0.1 -0.1)">
       <defs>
        <path id="DejaVuSans-35" d="M 691 4666 
L 3169 4666 
L 3169 4134 
L 1269 4134 
L 1269 2991 
Q 1406 3038 1543 3061 
Q 1681 3084 1819 3084 
Q 2600 3084 3056 2656 
Q 3513 2228 3513 1497 
Q 3513 744 3044 326 
Q 2575 -91 1722 -91 
Q 1428 -91 1123 -41 
Q 819 9 494 109 
L 494 744 
Q 775 591 1075 516 
Q 1375 441 1709 441 
Q 2250 441 2565 725 
Q 2881 1009 2881 1497 
Q 2881 1984 2565 2268 
Q 2250 2553 1709 2553 
Q 1456 2553 1204 2497 
Q 953 2441 691 2322 
L 691 4666 
z
" transform="scale(0.015625)"/>
       </defs>
       <use xlink:href="#DejaVuSans-31"/>
       <use xlink:href="#DejaVuSans-2e" x="63.623047"/>
       <use xlink:href="#DejaVuSans-35" x="95.410156"/>
      </g>
     </g>
    </g>
    <g id="xtick_3">
     <g id="line2d_3">
      <g>
       <use xlink:href="#mc5c99ac1b7" x="181.186051" y="168.698769" style="stroke: #000000; stroke-width: 0.8"/>
      </g>
     </g>
     <g id="text_3">
      <!-- 2.0 -->
      <g transform="translate(173.234488 183.297207) scale(0.1 -0.1)">
       <defs>
        <path id="DejaVuSans-32" d="M 1228 531 
L 3431 531 
L 3431 0 
L 469 0 
L 469 531 
Q 828 903 1448 1529 
Q 2069 2156 2228 2338 
Q 2531 2678 2651 2914 
Q 2772 3150 2772 3378 
Q 2772 3750 2511 3984 
Q 2250 4219 1831 4219 
Q 1534 4219 1204 4116 
Q 875 4013 500 3803 
L 500 4441 
Q 881 4594 1212 4672 
Q 1544 4750 1819 4750 
Q 2544 4750 2975 4387 
Q 3406 4025 3406 3419 
Q 3406 3131 3298 2873 
Q 3191 2616 2906 2266 
Q 2828 2175 2409 1742 
Q 1991 1309 1228 531 
z
" transform="scale(0.015625)"/>
       </defs>
       <use xlink:href="#DejaVuSans-32"/>
       <use xlink:href="#DejaVuSans-2e" x="63.623047"/>
       <use xlink:href="#DejaVuSans-30" x="95.410156"/>
      </g>
     </g>
    </g>
    <g id="xtick_4">
     <g id="line2d_4">
      <g>
       <use xlink:href="#mc5c99ac1b7" x="245.281034" y="168.698769" style="stroke: #000000; stroke-width: 0.8"/>
      </g>
     </g>
     <g id="text_4">
      <!-- 2.5 -->
      <g transform="translate(237.329471 183.297207) scale(0.1 -0.1)">
       <use xlink:href="#DejaVuSans-32"/>
       <use xlink:href="#DejaVuSans-2e" x="63.623047"/>
       <use xlink:href="#DejaVuSans-35" x="95.410156"/>
      </g>
     </g>
    </g>
    <g id="xtick_5">
     <g id="line2d_5">
      <g>
       <use xlink:href="#mc5c99ac1b7" x="309.376016" y="168.698769" style="stroke: #000000; stroke-width: 0.8"/>
      </g>
     </g>
     <g id="text_5">
      <!-- 3.0 -->
      <g transform="translate(301.424454 183.297207) scale(0.1 -0.1)">
       <defs>
        <path id="DejaVuSans-33" d="M 2597 2516 
Q 3050 2419 3304 2112 
Q 3559 1806 3559 1356 
Q 3559 666 3084 287 
Q 2609 -91 1734 -91 
Q 1441 -91 1130 -33 
Q 819 25 488 141 
L 488 750 
Q 750 597 1062 519 
Q 1375 441 1716 441 
Q 2309 441 2620 675 
Q 2931 909 2931 1356 
Q 2931 1769 2642 2001 
Q 2353 2234 1838 2234 
L 1294 2234 
L 1294 2753 
L 1863 2753 
Q 2328 2753 2575 2939 
Q 2822 3125 2822 3475 
Q 2822 3834 2567 4026 
Q 2313 4219 1838 4219 
Q 1578 4219 1281 4162 
Q 984 4106 628 3988 
L 628 4550 
Q 988 4650 1302 4700 
Q 1616 4750 1894 4750 
Q 2613 4750 3031 4423 
Q 3450 4097 3450 3541 
Q 3450 3153 3228 2886 
Q 3006 2619 2597 2516 
z
" transform="scale(0.015625)"/>
       </defs>
       <use xlink:href="#DejaVuSans-33"/>
       <use xlink:href="#DejaVuSans-2e" x="63.623047"/>
       <use xlink:href="#DejaVuSans-30" x="95.410156"/>
      </g>
     </g>
    </g>
    <g id="xtick_6">
     <g id="line2d_6">
      <g>
       <use xlink:href="#mc5c99ac1b7" x="373.470999" y="168.698769" style="stroke: #000000; stroke-width: 0.8"/>
      </g>
     </g>
     <g id="text_6">
      <!-- 3.5 -->
      <g transform="translate(365.519437 183.297207) scale(0.1 -0.1)">
       <use xlink:href="#DejaVuSans-33"/>
       <use xlink:href="#DejaVuSans-2e" x="63.623047"/>
       <use xlink:href="#DejaVuSans-35" x="95.410156"/>
      </g>
     </g>
    </g>
    <g id="xtick_7">
     <g id="line2d_7">
      <g>
       <use xlink:href="#mc5c99ac1b7" x="437.565982" y="168.698769" style="stroke: #000000; stroke-width: 0.8"/>
      </g>
     </g>
     <g id="text_7">
      <!-- 4.0 -->
      <g transform="translate(429.614419 183.297207) scale(0.1 -0.1)">
       <defs>
        <path id="DejaVuSans-34" d="M 2419 4116 
L 825 1625 
L 2419 1625 
L 2419 4116 
z
M 2253 4666 
L 3047 4666 
L 3047 1625 
L 3713 1625 
L 3713 1100 
L 3047 1100 
L 3047 0 
L 2419 0 
L 2419 1100 
L 313 1100 
L 313 1709 
L 2253 4666 
z
" transform="scale(0.015625)"/>
       </defs>
       <use xlink:href="#DejaVuSans-34"/>
       <use xlink:href="#DejaVuSans-2e" x="63.623047"/>
       <use xlink:href="#DejaVuSans-30" x="95.410156"/>
      </g>
     </g>
    </g>
    <g id="xtick_8">
     <g id="line2d_8">
      <defs>
       <path id="m12d93e5b2b" d="M 0 0 
L 0 2 
" style="stroke: #000000; stroke-width: 0.6"/>
      </defs>
      <g>
       <use xlink:href="#m12d93e5b2b" x="65.815082" y="168.698769" style="stroke: #000000; stroke-width: 0.6"/>
      </g>
     </g>
    </g>
    <g id="xtick_9">
     <g id="line2d_9">
      <g>
       <use xlink:href="#m12d93e5b2b" x="78.634079" y="168.698769" style="stroke: #000000; stroke-width: 0.6"/>
      </g>
     </g>
    </g>
    <g id="xtick_10">
     <g id="line2d_10">
      <g>
       <use xlink:href="#m12d93e5b2b" x="91.453075" y="168.698769" style="stroke: #000000; stroke-width: 0.6"/>
      </g>
     </g>
    </g>
    <g id="xtick_11">
     <g id="line2d_11">
      <g>
       <use xlink:href="#m12d93e5b2b" x="104.272072" y="168.698769" style="stroke: #000000; stroke-width: 0.6"/>
      </g>
     </g>
    </g>
    <g id="xtick_12">
     <g id="line2d_12">
      <g>
       <use xlink:href="#m12d93e5b2b" x="129.910065" y="168.698769" style="stroke: #000000; stroke-width: 0.6"/>
      </g>
     </g>
    </g>
    <g id="xtick_13">
     <g id="line2d_13">
      <g>
       <use xlink:href="#m12d93e5b2b" x="142.729061" y="168.698769" style="stroke: #000000; stroke-width: 0.6"/>
      </g>
     </g>
    </g>
    <g id="xtick_14">
     <g id="line2d_14">
      <g>
       <use xlink:href="#m12d93e5b2b" x="155.548058" y="168.698769" style="stroke: #000000; stroke-width: 0.6"/>
      </g>
     </g>
    </g>
    <g id="xtick_15">
     <g id="line2d_15">
      <g>
       <use xlink:href="#m12d93e5b2b" x="168.367054" y="168.698769" style="stroke: #000000; stroke-width: 0.6"/>
      </g>
     </g>
    </g>
    <g id="xtick_16">
     <g id="line2d_16">
      <g>
       <use xlink:href="#m12d93e5b2b" x="194.005047" y="168.698769" style="stroke: #000000; stroke-width: 0.6"/>
      </g>
     </g>
    </g>
    <g id="xtick_17">
     <g id="line2d_17">
      <g>
       <use xlink:href="#m12d93e5b2b" x="206.824044" y="168.698769" style="stroke: #000000; stroke-width: 0.6"/>
      </g>
     </g>
    </g>
    <g id="xtick_18">
     <g id="line2d_18">
      <g>
       <use xlink:href="#m12d93e5b2b" x="219.643041" y="168.698769" style="stroke: #000000; stroke-width: 0.6"/>
      </g>
     </g>
    </g>
    <g id="xtick_19">
     <g id="line2d_19">
      <g>
       <use xlink:href="#m12d93e5b2b" x="232.462037" y="168.698769" style="stroke: #000000; stroke-width: 0.6"/>
      </g>
     </g>
    </g>
    <g id="xtick_20">
     <g id="line2d_20">
      <g>
       <use xlink:href="#m12d93e5b2b" x="258.10003" y="168.698769" style="stroke: #000000; stroke-width: 0.6"/>
      </g>
     </g>
    </g>
    <g id="xtick_21">
     <g id="line2d_21">
      <g>
       <use xlink:href="#m12d93e5b2b" x="270.919027" y="168.698769" style="stroke: #000000; stroke-width: 0.6"/>
      </g>
     </g>
    </g>
    <g id="xtick_22">
     <g id="line2d_22">
      <g>
       <use xlink:href="#m12d93e5b2b" x="283.738023" y="168.698769" style="stroke: #000000; stroke-width: 0.6"/>
      </g>
     </g>
    </g>
    <g id="xtick_23">
     <g id="line2d_23">
      <g>
       <use xlink:href="#m12d93e5b2b" x="296.55702" y="168.698769" style="stroke: #000000; stroke-width: 0.6"/>
      </g>
     </g>
    </g>
    <g id="xtick_24">
     <g id="line2d_24">
      <g>
       <use xlink:href="#m12d93e5b2b" x="322.195013" y="168.698769" style="stroke: #000000; stroke-width: 0.6"/>
      </g>
     </g>
    </g>
    <g id="xtick_25">
     <g id="line2d_25">
      <g>
       <use xlink:href="#m12d93e5b2b" x="335.014009" y="168.698769" style="stroke: #000000; stroke-width: 0.6"/>
      </g>
     </g>
    </g>
    <g id="xtick_26">
     <g id="line2d_26">
      <g>
       <use xlink:href="#m12d93e5b2b" x="347.833006" y="168.698769" style="stroke: #000000; stroke-width: 0.6"/>
      </g>
     </g>
    </g>
    <g id="xtick_27">
     <g id="line2d_27">
      <g>
       <use xlink:href="#m12d93e5b2b" x="360.652003" y="168.698769" style="stroke: #000000; stroke-width: 0.6"/>
      </g>
     </g>
    </g>
    <g id="xtick_28">
     <g id="line2d_28">
      <g>
       <use xlink:href="#m12d93e5b2b" x="386.289996" y="168.698769" style="stroke: #000000; stroke-width: 0.6"/>
      </g>
     </g>
    </g>
    <g id="xtick_29">
     <g id="line2d_29">
      <g>
       <use xlink:href="#m12d93e5b2b" x="399.108992" y="168.698769" style="stroke: #000000; stroke-width: 0.6"/>
      </g>
     </g>
    </g>
    <g id="xtick_30">
     <g id="line2d_30">
      <g>
       <use xlink:href="#m12d93e5b2b" x="411.927989" y="168.698769" style="stroke: #000000; stroke-width: 0.6"/>
      </g>
     </g>
    </g>
    <g id="xtick_31">
     <g id="line2d_31">
      <g>
       <use xlink:href="#m12d93e5b2b" x="424.746985" y="168.698769" style="stroke: #000000; stroke-width: 0.6"/>
      </g>
     </g>
    </g>
   </g>
   <g id="matplotlib.axis_2">
    <g id="ytick_1">
     <g id="line2d_32">
      <defs>
       <path id="m7bc30a7cfb" d="M 0 0 
L -3.5 0 
" style="stroke: #000000; stroke-width: 0.8"/>
      </defs>
      <g>
       <use xlink:href="#m7bc30a7cfb" x="35.304688" y="323.986047" style="stroke: #000000; stroke-width: 0.8"/>
      </g>
     </g>
     <g id="text_8">
      <!-- −10 -->
      <g transform="translate(7.2 327.785266) scale(0.1 -0.1)">
       <defs>
        <path id="DejaVuSans-2212" d="M 678 2272 
L 4684 2272 
L 4684 1741 
L 678 1741 
L 678 2272 
z
" transform="scale(0.015625)"/>
       </defs>
       <use xlink:href="#DejaVuSans-2212"/>
       <use xlink:href="#DejaVuSans-31" x="83.789062"/>
       <use xlink:href="#DejaVuSans-30" x="147.412109"/>
      </g>
     </g>
    </g>
    <g id="ytick_2">
     <g id="line2d_33">
      <g>
       <use xlink:href="#m7bc30a7cfb" x="35.304688" y="246.342408" style="stroke: #000000; stroke-width: 0.8"/>
      </g>
     </g>
     <g id="text_9">
      <!-- −5 -->
      <g transform="translate(13.5625 250.141627) scale(0.1 -0.1)">
       <use xlink:href="#DejaVuSans-2212"/>
       <use xlink:href="#DejaVuSans-35" x="83.789062"/>
      </g>
     </g>
    </g>
    <g id="ytick_3">
     <g id="line2d_34">
      <g>
       <use xlink:href="#m7bc30a7cfb" x="35.304688" y="168.698769" style="stroke: #000000; stroke-width: 0.8"/>
      </g>
     </g>
     <g id="text_10">
      <!-- 0 -->
      <g transform="translate(21.942187 172.497988) scale(0.1 -0.1)">
       <use xlink:href="#DejaVuSans-30"/>
      </g>
     </g>
    </g>
    <g id="ytick_4">
     <g id="line2d_35">
      <g>
       <use xlink:href="#m7bc30a7cfb" x="35.304688" y="91.05513" style="stroke: #000000; stroke-width: 0.8"/>
      </g>
     </g>
     <g id="text_11">
      <!-- 5 -->
      <g transform="translate(21.942187 94.854349) scale(0.1 -0.1)">
       <use xlink:href="#DejaVuSans-35"/>
      </g>
     </g>
    </g>
    <g id="ytick_5">
     <g id="line2d_36">
      <g>
       <use xlink:href="#m7bc30a7cfb" x="35.304688" y="13.411491" style="stroke: #000000; stroke-width: 0.8"/>
      </g>
     </g>
     <g id="text_12">
      <!-- 10 -->
      <g transform="translate(15.579687 17.21071) scale(0.1 -0.1)">
       <use xlink:href="#DejaVuSans-31"/>
       <use xlink:href="#DejaVuSans-30" x="63.623047"/>
      </g>
     </g>
    </g>
    <g id="ytick_6">
     <g id="line2d_37">
      <defs>
       <path id="mef40a129f1" d="M 0 0 
L -2 0 
" style="stroke: #000000; stroke-width: 0.6"/>
      </defs>
      <g>
       <use xlink:href="#mef40a129f1" x="35.304688" y="308.45732" style="stroke: #000000; stroke-width: 0.6"/>
      </g>
     </g>
    </g>
    <g id="ytick_7">
     <g id="line2d_38">
      <g>
       <use xlink:href="#mef40a129f1" x="35.304688" y="292.928592" style="stroke: #000000; stroke-width: 0.6"/>
      </g>
     </g>
    </g>
    <g id="ytick_8">
     <g id="line2d_39">
      <g>
       <use xlink:href="#mef40a129f1" x="35.304688" y="277.399864" style="stroke: #000000; stroke-width: 0.6"/>
      </g>
     </g>
    </g>
    <g id="ytick_9">
     <g id="line2d_40">
      <g>
       <use xlink:href="#mef40a129f1" x="35.304688" y="261.871136" style="stroke: #000000; stroke-width: 0.6"/>
      </g>
     </g>
    </g>
    <g id="ytick_10">
     <g id="line2d_41">
      <g>
       <use xlink:href="#mef40a129f1" x="35.304688" y="230.81368" style="stroke: #000000; stroke-width: 0.6"/>
      </g>
     </g>
    </g>
    <g id="ytick_11">
     <g id="line2d_42">
      <g>
       <use xlink:href="#mef40a129f1" x="35.304688" y="215.284953" style="stroke: #000000; stroke-width: 0.6"/>
      </g>
     </g>
    </g>
    <g id="ytick_12">
     <g id="line2d_43">
      <g>
       <use xlink:href="#mef40a129f1" x="35.304688" y="199.756225" style="stroke: #000000; stroke-width: 0.6"/>
      </g>
     </g>
    </g>
    <g id="ytick_13">
     <g id="line2d_44">
      <g>
       <use xlink:href="#mef40a129f1" x="35.304688" y="184.227497" style="stroke: #000000; stroke-width: 0.6"/>
      </g>
     </g>
    </g>
    <g id="ytick_14">
     <g id="line2d_45">
      <g>
       <use xlink:href="#mef40a129f1" x="35.304688" y="153.170041" style="stroke: #000000; stroke-width: 0.6"/>
      </g>
     </g>
    </g>
    <g id="ytick_15">
     <g id="line2d_46">
      <g>
       <use xlink:href="#mef40a129f1" x="35.304688" y="137.641314" style="stroke: #000000; stroke-width: 0.6"/>
      </g>
     </g>
    </g>
    <g id="ytick_16">
     <g id="line2d_47">
      <g>
       <use xlink:href="#mef40a129f1" x="35.304688" y="122.112586" style="stroke: #000000; stroke-width: 0.6"/>
      </g>
     </g>
    </g>
    <g id="ytick_17">
     <g id="line2d_48">
      <g>
       <use xlink:href="#mef40a129f1" x="35.304688" y="106.583858" style="stroke: #000000; stroke-width: 0.6"/>
      </g>
     </g>
    </g>
    <g id="ytick_18">
     <g id="line2d_49">
      <g>
       <use xlink:href="#mef40a129f1" x="35.304688" y="75.526402" style="stroke: #000000; stroke-width: 0.6"/>
      </g>
     </g>
    </g>
    <g id="ytick_19">
     <g id="line2d_50">
      <g>
       <use xlink:href="#mef40a129f1" x="35.304688" y="59.997675" style="stroke: #000000; stroke-width: 0.6"/>
      </g>
     </g>
    </g>
    <g id="ytick_20">
     <g id="line2d_51">
      <g>
       <use xlink:href="#mef40a129f1" x="35.304688" y="44.468947" style="stroke: #000000; stroke-width: 0.6"/>
      </g>
     </g>
    </g>
    <g id="ytick_21">
     <g id="line2d_52">
      <g>
       <use xlink:href="#mef40a129f1" x="35.304688" y="28.940219" style="stroke: #000000; stroke-width: 0.6"/>
      </g>
     </g>
    </g>
   </g>
   <g id="line2d_53">
    <path d="M 52.996085 179.465788 
L 70.544277 181.365569 
L 84.950923 183.11016 
L 96.758703 184.712966 
L 108.602989 186.537687 
L 116.963737 188.004247 
L 126.091874 189.839154 
L 132.892545 191.422551 
L 139.202486 193.120175 
L 144.258203 194.695677 
L 149.12649 196.460248 
L 153.323982 198.248271 
L 156.577912 199.86617 
L 159.670946 201.658884 
L 162.389628 203.511986 
L 164.629023 205.302722 
L 166.560147 207.105024 
L 168.319526 209.025642 
L 170.042202 211.255348 
L 171.475979 213.472452 
L 172.786342 215.897817 
L 173.975693 218.561115 
L 175.052625 221.51356 
L 176.045841 224.902664 
L 176.948765 228.820504 
L 177.778434 233.527553 
L 178.463699 238.723307 
L 179.051069 244.778936 
L 179.540544 251.811241 
L 180.030018 262.340892 
L 180.421598 276.320368 
L 180.715283 295.317042 
L 180.973096 333.780995 
L 180.989165 338.397538 
M 181.164403 338.397538 
L 181.175548 -1 
M 181.383423 -1 
L 181.624334 38.642735 
L 181.981082 61.935243 
L 182.446958 77.011027 
L 182.990481 87.193084 
L 183.61165 94.698964 
L 184.310464 100.534689 
L 185.107637 105.345891 
L 185.947085 109.153152 
L 186.877662 112.427079 
L 187.876584 115.210933 
L 189.058733 117.845468 
L 190.230317 119.964839 
L 191.674009 122.10283 
L 193.228195 123.98551 
L 194.736611 125.510075 
L 196.599143 127.088468 
L 198.474936 128.42253 
L 200.794434 129.80704 
L 203.369147 131.086333 
L 206.423914 132.343534 
L 209.834954 133.499884 
L 214.370214 134.743834 
L 218.582821 135.679935 
L 224.009959 136.660202 
L 230.415531 137.579207 
L 238.835729 138.511263 
L 247.489623 139.240519 
L 257.440909 139.879189 
L 270.956012 140.509821 
L 286.403458 141.004512 
L 305.65994 141.399532 
L 329.901318 141.672552 
L 361.406076 141.798271 
L 404.031817 141.731219 
L 437.565982 141.567583 
L 437.565982 141.567583 
" clip-path="url(#pb98a604715)" style="fill: none; stroke: #0000ff; stroke-linecap: square"/>
   </g>
   <g id="patch_4">
    <path d="M 35.304688 330.197538 
L 35.304688 7.2 
" style="fill: none; stroke: #000000; stroke-width: 0.8; stroke-linejoin: miter; stroke-linecap: square"/>
   </g>
   <g id="patch_5">
    <path d="M 45.304688 168.698769 
L 445.25738 168.698769 
" style="fill: none; stroke: #000000; stroke-width: 0.8; stroke-linejoin: miter; stroke-linecap: square"/>
   </g>
   <g id="text_13">
    <!-- $f(x)=\frac{x}{\sqrt[3]{x^2-4}}$ -->
    <g transform="translate(264.096016 59.517675) scale(0.16 -0.16)">
     <defs>
      <path id="Cmmi10-66" d="M 622 -1056 
Q 741 -1147 909 -1147 
Q 1138 -1147 1281 -641 
Q 1341 -397 1606 966 
L 1900 2534 
L 1350 2534 
Q 1288 2534 1288 2619 
Q 1313 2759 1369 2759 
L 1941 2759 
L 2016 3175 
Q 2053 3369 2084 3508 
Q 2116 3647 2152 3765 
Q 2188 3884 2259 4031 
Q 2369 4241 2555 4377 
Q 2741 4513 2956 4513 
Q 3097 4513 3230 4461 
Q 3363 4409 3447 4306 
Q 3531 4203 3531 4063 
Q 3531 3900 3423 3779 
Q 3316 3659 3163 3659 
Q 3059 3659 2986 3723 
Q 2913 3788 2913 3891 
Q 2913 4031 3008 4136 
Q 3103 4241 3244 4256 
Q 3125 4347 2950 4347 
Q 2853 4347 2767 4256 
Q 2681 4166 2656 4063 
Q 2616 3900 2478 3181 
L 2400 2759 
L 3059 2759 
Q 3122 2759 3122 2675 
Q 3119 2659 3109 2620 
Q 3100 2581 3083 2557 
Q 3066 2534 3041 2534 
L 2356 2534 
L 2059 972 
Q 2003 631 1929 279 
Q 1856 -72 1723 -442 
Q 1591 -813 1384 -1063 
Q 1178 -1313 897 -1313 
Q 681 -1313 511 -1189 
Q 341 -1066 341 -863 
Q 341 -700 445 -579 
Q 550 -459 709 -459 
Q 816 -459 887 -523 
Q 959 -588 959 -691 
Q 959 -828 857 -942 
Q 756 -1056 622 -1056 
z
" transform="scale(0.015625)"/>
      <path id="Cmr10-28" d="M 1984 -1588 
Q 1628 -1306 1370 -942 
Q 1113 -578 948 -165 
Q 784 247 703 697 
Q 622 1147 622 1600 
Q 622 2059 703 2509 
Q 784 2959 951 3375 
Q 1119 3791 1378 4153 
Q 1638 4516 1984 4788 
Q 1984 4800 2016 4800 
L 2075 4800 
Q 2094 4800 2109 4783 
Q 2125 4766 2125 4744 
Q 2125 4716 2113 4703 
Q 1800 4397 1592 4047 
Q 1384 3697 1257 3301 
Q 1131 2906 1075 2482 
Q 1019 2059 1019 1600 
Q 1019 -434 2106 -1491 
Q 2125 -1509 2125 -1544 
Q 2125 -1559 2108 -1579 
Q 2091 -1600 2075 -1600 
L 2016 -1600 
Q 1984 -1600 1984 -1588 
z
" transform="scale(0.015625)"/>
      <path id="Cmmi10-78" d="M 500 184 
Q 613 97 819 97 
Q 1019 97 1172 289 
Q 1325 481 1381 709 
L 1672 1844 
Q 1741 2153 1741 2266 
Q 1741 2425 1652 2544 
Q 1563 2663 1403 2663 
Q 1200 2663 1022 2536 
Q 844 2409 722 2214 
Q 600 2019 550 1819 
Q 538 1778 500 1778 
L 422 1778 
Q 372 1778 372 1838 
L 372 1856 
Q 434 2094 584 2320 
Q 734 2547 951 2687 
Q 1169 2828 1416 2828 
Q 1650 2828 1839 2703 
Q 2028 2578 2106 2363 
Q 2216 2559 2386 2693 
Q 2556 2828 2759 2828 
Q 2897 2828 3040 2779 
Q 3184 2731 3275 2631 
Q 3366 2531 3366 2381 
Q 3366 2219 3261 2101 
Q 3156 1984 2994 1984 
Q 2891 1984 2822 2050 
Q 2753 2116 2753 2216 
Q 2753 2350 2845 2451 
Q 2938 2553 3066 2572 
Q 2950 2663 2747 2663 
Q 2541 2663 2389 2472 
Q 2238 2281 2175 2047 
L 1894 916 
Q 1825 659 1825 494 
Q 1825 331 1917 214 
Q 2009 97 2163 97 
Q 2463 97 2698 361 
Q 2934 625 3009 941 
Q 3022 978 3059 978 
L 3138 978 
Q 3163 978 3178 961 
Q 3194 944 3194 922 
Q 3194 916 3188 903 
Q 3097 522 2806 225 
Q 2516 -72 2150 -72 
Q 1916 -72 1727 54 
Q 1538 181 1459 397 
Q 1359 209 1182 68 
Q 1006 -72 806 -72 
Q 669 -72 523 -23 
Q 378 25 287 125 
Q 197 225 197 378 
Q 197 528 301 651 
Q 406 775 563 775 
Q 669 775 741 711 
Q 813 647 813 544 
Q 813 409 723 309 
Q 634 209 500 184 
z
" transform="scale(0.015625)"/>
      <path id="Cmr10-29" d="M 416 -1600 
Q 359 -1600 359 -1544 
Q 359 -1516 372 -1503 
Q 1466 -434 1466 1600 
Q 1466 3634 384 4691 
Q 359 4706 359 4744 
Q 359 4766 376 4783 
Q 394 4800 416 4800 
L 475 4800 
Q 494 4800 506 4788 
Q 966 4425 1272 3906 
Q 1578 3388 1720 2800 
Q 1863 2213 1863 1600 
Q 1863 1147 1786 708 
Q 1709 269 1542 -157 
Q 1375 -584 1119 -945 
Q 863 -1306 506 -1588 
Q 494 -1600 475 -1600 
L 416 -1600 
z
" transform="scale(0.015625)"/>
      <path id="Cmr10-3d" d="M 481 850 
Q 428 850 393 890 
Q 359 931 359 978 
Q 359 1031 393 1068 
Q 428 1106 481 1106 
L 4500 1106 
Q 4547 1106 4581 1068 
Q 4616 1031 4616 978 
Q 4616 931 4581 890 
Q 4547 850 4500 850 
L 481 850 
z
M 481 2094 
Q 428 2094 393 2131 
Q 359 2169 359 2222 
Q 359 2269 393 2309 
Q 428 2350 481 2350 
L 4500 2350 
Q 4547 2350 4581 2309 
Q 4616 2269 4616 2222 
Q 4616 2169 4581 2131 
Q 4547 2094 4500 2094 
L 481 2094 
z
" transform="scale(0.015625)"/>
      <path id="Cmr10-33" d="M 609 494 
Q 759 275 1012 169 
Q 1266 63 1556 63 
Q 1928 63 2084 380 
Q 2241 697 2241 1100 
Q 2241 1281 2208 1462 
Q 2175 1644 2097 1800 
Q 2019 1956 1883 2050 
Q 1747 2144 1550 2144 
L 1125 2144 
Q 1069 2144 1069 2203 
L 1069 2259 
Q 1069 2309 1125 2309 
L 1478 2338 
Q 1703 2338 1851 2506 
Q 2000 2675 2069 2917 
Q 2138 3159 2138 3378 
Q 2138 3684 1994 3881 
Q 1850 4078 1556 4078 
Q 1313 4078 1091 3986 
Q 869 3894 738 3706 
Q 750 3709 759 3711 
Q 769 3713 781 3713 
Q 925 3713 1022 3613 
Q 1119 3513 1119 3372 
Q 1119 3234 1022 3134 
Q 925 3034 781 3034 
Q 641 3034 541 3134 
Q 441 3234 441 3372 
Q 441 3647 606 3850 
Q 772 4053 1033 4158 
Q 1294 4263 1556 4263 
Q 1750 4263 1965 4205 
Q 2181 4147 2356 4039 
Q 2531 3931 2642 3762 
Q 2753 3594 2753 3378 
Q 2753 3109 2633 2881 
Q 2513 2653 2303 2487 
Q 2094 2322 1844 2241 
Q 2122 2188 2372 2031 
Q 2622 1875 2773 1631 
Q 2925 1388 2925 1106 
Q 2925 753 2731 467 
Q 2538 181 2222 20 
Q 1906 -141 1556 -141 
Q 1256 -141 954 -26 
Q 653 88 461 316 
Q 269 544 269 863 
Q 269 1022 375 1128 
Q 481 1234 641 1234 
Q 744 1234 830 1186 
Q 916 1138 964 1050 
Q 1013 963 1013 863 
Q 1013 706 903 600 
Q 794 494 641 494 
L 609 494 
z
" transform="scale(0.015625)"/>
      <path id="Cmex10-70" d="M 2713 -7425 
L 1269 -4063 
L 819 -4409 
L 703 -4294 
L 1619 -3584 
L 2969 -6725 
L 6291 197 
Q 6322 256 6400 256 
Q 6453 256 6490 218 
Q 6528 181 6528 128 
Q 6528 97 6522 84 
L 2950 -7366 
Q 2925 -7425 2853 -7425 
L 2713 -7425 
z
" transform="scale(0.015625)"/>
      <path id="Cmr10-32" d="M 319 0 
L 319 172 
Q 319 188 331 206 
L 1325 1306 
Q 1550 1550 1690 1715 
Q 1831 1881 1968 2097 
Q 2106 2313 2186 2536 
Q 2266 2759 2266 3009 
Q 2266 3272 2169 3511 
Q 2072 3750 1880 3894 
Q 1688 4038 1416 4038 
Q 1138 4038 916 3870 
Q 694 3703 603 3438 
Q 628 3444 672 3444 
Q 816 3444 917 3347 
Q 1019 3250 1019 3097 
Q 1019 2950 917 2848 
Q 816 2747 672 2747 
Q 522 2747 420 2851 
Q 319 2956 319 3097 
Q 319 3338 409 3548 
Q 500 3759 670 3923 
Q 841 4088 1055 4175 
Q 1269 4263 1509 4263 
Q 1875 4263 2190 4108 
Q 2506 3953 2690 3670 
Q 2875 3388 2875 3009 
Q 2875 2731 2753 2481 
Q 2631 2231 2440 2026 
Q 2250 1822 1953 1562 
Q 1656 1303 1563 1216 
L 838 519 
L 1453 519 
Q 1906 519 2211 526 
Q 2516 534 2534 550 
Q 2609 631 2688 1141 
L 2875 1141 
L 2694 0 
L 319 0 
z
" transform="scale(0.015625)"/>
      <path id="Cmsy10-a1" d="M 653 1472 
Q 600 1472 565 1512 
Q 531 1553 531 1600 
Q 531 1647 565 1687 
Q 600 1728 653 1728 
L 4325 1728 
Q 4375 1728 4408 1687 
Q 4441 1647 4441 1600 
Q 4441 1553 4408 1512 
Q 4375 1472 4325 1472 
L 653 1472 
z
" transform="scale(0.015625)"/>
      <path id="Cmr10-34" d="M 178 1056 
L 178 1281 
L 2156 4231 
Q 2178 4263 2222 4263 
L 2316 4263 
Q 2388 4263 2388 4191 
L 2388 1281 
L 3016 1281 
L 3016 1056 
L 2388 1056 
L 2388 428 
Q 2388 297 2575 261 
Q 2763 225 3009 225 
L 3009 0 
L 1247 0 
L 1247 225 
Q 1494 225 1681 261 
Q 1869 297 1869 428 
L 1869 1056 
L 178 1056 
z
M 391 1281 
L 1906 1281 
L 1906 3547 
L 391 1281 
z
" transform="scale(0.015625)"/>
     </defs>
     <use xlink:href="#Cmmi10-66"/>
     <use xlink:href="#Cmr10-28" transform="translate(48.876953 0)"/>
     <use xlink:href="#Cmmi10-78" transform="translate(87.695312 0)"/>
     <use xlink:href="#Cmr10-29" transform="translate(144.775391 0)"/>
     <use xlink:href="#Cmr10-3d" transform="translate(201.152344 0)"/>
     <use xlink:href="#Cmmi10-78" transform="translate(404.396484 38.2875) scale(0.7)"/>
     <use xlink:href="#Cmr10-33" transform="translate(296.396484 -30.465) scale(0.343)"/>
     <use xlink:href="#Cmex10-70" transform="translate(279.350391 -0.682812) scale(0.68396)"/>
     <use xlink:href="#Cmmi10-78" transform="translate(356.492578 -79.548437) scale(0.7)"/>
     <use xlink:href="#Cmr10-32" transform="translate(400.86093 -52.763594) scale(0.49)"/>
     <use xlink:href="#Cmsy10-a1" transform="translate(442.116086 -79.548437) scale(0.7)"/>
     <use xlink:href="#Cmr10-34" transform="translate(508.786984 -79.548437) scale(0.7)"/>
     <path d="M 296.396484 12.5 
L 296.396484 18.75 
L 552.536984 18.75 
L 552.536984 12.5 
L 296.396484 12.5 
z
"/>
     <path d="M 347.742578 -2.5 
L 347.742578 1.875 
L 552.536984 1.875 
L 552.536984 -2.5 
L 347.742578 -2.5 
z
"/>
    </g>
   </g>
  </g>
 </g>
 <defs>
  <clipPath id="pb98a604715">
   <rect x="45.304688" y="7.2" width="399.952692" height="322.997538"/>
  </clipPath>
 </defs>
</svg>
