<?xml version="1.0" encoding="utf-8" standalone="no"?>
<!DOCTYPE svg PUBLIC "-//W3C//DTD SVG 1.1//EN"
  "http://www.w3.org/Graphics/SVG/1.1/DTD/svg11.dtd">
<svg xmlns:xlink="http://www.w3.org/1999/xlink" width="451.471856pt" height="338.4pt" viewBox="0 0 451.471856 338.4" xmlns="http://www.w3.org/2000/svg" version="1.1">
 <metadata>
  <rdf:RDF xmlns:dc="http://purl.org/dc/elements/1.1/" xmlns:cc="http://creativecommons.org/ns#" xmlns:rdf="http://www.w3.org/1999/02/22-rdf-syntax-ns#">
   <cc:Work>
    <dc:type rdf:resource="http://purl.org/dc/dcmitype/StillImage"/>
    <dc:date>2023-11-30T09:22:11.471635</dc:date>
    <dc:format>image/svg+xml</dc:format>
    <dc:creator>
     <cc:Agent>
      <dc:title>Matplotlib v3.6.2, https://matplotlib.org/</dc:title>
     </cc:Agent>
    </dc:creator>
   </cc:Work>
  </rdf:RDF>
 </metadata>
 <defs>
  <style type="text/css">*{stroke-linejoin: round; stroke-linecap: butt}</style>
 </defs>
 <g id="figure_1">
  <g id="patch_1">
   <path d="M 0 338.4 
L 451.471856 338.4 
L 451.471856 0 
L 0 0 
z
" style="fill: #ffffff"/>
  </g>
  <g id="axes_1">
   <g id="patch_2">
    <path d="M 22.34672 331.2 
L 444.271856 331.2 
L 444.271856 7.2 
L 22.34672 7.2 
z
" style="fill: #ffffff"/>
   </g>
   <g id="patch_3">
    <path d="M 30.460665 13.430769 
L 30.460665 324.969231 
L 30.557181 321.535928 
L 30.653697 318.301969 
L 30.750212 315.24547 
L 30.846728 312.347965 
L 30.943243 309.593727 
L 31.039759 306.969253 
L 31.136275 304.462864 
L 31.23279 302.064389 
L 31.329306 299.764919 
L 31.425821 297.556603 
L 31.522337 295.432489 
L 31.618853 293.38639 
L 31.715368 291.412779 
L 31.811884 289.506694 
L 31.908399 287.663668 
L 32.004915 285.87966 
L 32.101431 284.151009 
L 32.197946 282.474383 
L 32.294462 280.84674 
L 32.390977 279.2653 
L 32.487493 277.727512 
L 32.584009 276.231031 
L 32.680524 274.773695 
L 32.77704 273.35351 
L 32.873556 271.968627 
L 32.970071 270.617334 
L 33.066587 269.29804 
L 33.163102 268.009265 
L 33.259618 266.749629 
L 33.356134 265.517842 
L 33.452649 264.312701 
L 33.549165 263.133077 
L 33.627825 262.189814 
L 33.706486 261.262256 
L 33.785147 260.349887 
L 33.863807 259.452219 
L 33.942468 258.568784 
L 34.021128 257.699139 
L 34.099789 256.84286 
L 34.178449 255.999542 
L 34.25711 255.168799 
L 34.335771 254.350261 
L 34.414431 253.543574 
L 34.493092 252.748401 
L 34.571752 251.964417 
L 34.650413 251.191311 
L 34.729074 250.428787 
L 34.807734 249.676558 
L 34.886395 248.93435 
L 34.965055 248.201899 
L 35.043716 247.478953 
L 35.122377 246.765268 
L 35.201037 246.060608 
L 35.279698 245.36475 
L 35.358358 244.677476 
L 35.437019 243.998577 
L 35.51568 243.32785 
L 35.59434 242.665102 
L 35.673001 242.010145 
L 35.751661 241.362799 
L 35.830322 240.722887 
L 35.908982 240.090241 
L 35.987643 239.464699 
L 36.066304 238.846102 
L 36.202634 237.789982 
L 36.338965 236.75351 
L 36.41541 236.180654 
L 36.491856 235.613628 
L 36.644746 234.496599 
L 36.797636 233.401527 
L 36.950526 232.327564 
L 37.103417 231.273912 
L 37.256307 230.239816 
L 37.409197 229.224565 
L 37.562088 228.227483 
L 37.714978 227.247931 
L 37.867868 226.285305 
L 38.020759 225.339028 
L 38.173649 224.408555 
L 38.326539 223.493367 
L 38.479429 222.592968 
L 38.63232 221.70689 
L 38.78521 220.834684 
L 38.977439 219.757088 
L 39.169667 218.699939 
L 39.361896 217.662475 
L 39.554125 216.643978 
L 39.746354 215.643765 
L 39.938582 214.661192 
L 40.130811 213.695648 
L 40.32304 212.746552 
L 40.515269 211.813353 
L 40.707497 210.895528 
L 40.899726 209.992577 
L 41.091955 209.104028 
L 41.284183 208.229427 
L 41.476412 207.368343 
L 41.668641 206.520365 
L 41.86087 205.6851 
L 42.02125 204.997677 
L 42.181631 204.318632 
L 42.342011 203.647763 
L 42.502392 202.984877 
L 42.730552 202.055229 
L 42.958712 201.14084 
L 43.186872 200.241215 
L 43.415032 199.355886 
L 43.643192 198.484405 
L 43.871352 197.626346 
L 44.099513 196.781302 
L 44.327673 195.948884 
L 44.548588 195.154578 
L 44.769503 194.371437 
L 44.990418 193.599152 
L 45.211333 192.837426 
L 45.432248 192.085974 
L 45.653163 191.344522 
L 45.874078 190.612807 
L 46.094994 189.890578 
L 46.315909 189.177592 
L 46.536824 188.473614 
L 46.757739 187.778421 
L 46.978654 187.091795 
L 47.199569 186.413528 
L 47.420484 185.743419 
L 47.641399 185.081274 
L 47.862314 184.426906 
L 48.121372 183.669221 
L 48.380429 182.921703 
L 48.639487 182.184081 
L 48.898544 181.456097 
L 49.157601 180.737502 
L 49.416659 180.028058 
L 49.675716 179.327534 
L 49.934774 178.635708 
L 50.211727 177.905471 
L 50.48868 177.184682 
L 50.765632 176.473098 
L 51.042585 175.770488 
L 51.319538 175.076628 
L 51.596491 174.391303 
L 51.873444 173.714306 
L 52.150397 173.045436 
L 52.603108 171.969093 
L 53.05582 170.913151 
L 53.508531 169.876849 
L 53.961242 168.859471 
L 54.312437 168.082831 
L 54.663632 167.316868 
L 55.014827 166.561293 
L 55.366022 165.815827 
L 55.703011 165.109773 
L 56.04 164.412553 
L 56.37699 163.723952 
L 56.713979 163.043757 
L 57.050968 162.371766 
L 57.387958 161.707783 
L 57.724947 161.051621 
L 58.061936 160.403096 
L 58.582029 159.41678 
L 59.102121 158.447622 
L 59.501556 157.714581 
L 59.90099 156.99106 
L 60.300425 156.276814 
L 60.69986 155.571608 
L 61.203039 154.69576 
L 61.706219 153.833467 
L 62.209398 152.984316 
L 62.712577 152.147913 
L 63.215757 151.323881 
L 63.718936 150.51186 
L 64.222116 149.711503 
L 64.725295 148.92248 
L 64.865369 148.704808 
L 65.273234 148.075793 
L 65.6811 147.4538 
L 66.088965 146.838675 
L 66.49683 146.230267 
L 66.904695 145.62843 
L 67.312561 145.033026 
L 67.720426 144.443917 
L 68.128291 143.860972 
L 68.694111 143.062239 
L 69.25993 142.274794 
L 69.825749 141.498324 
L 70.391569 140.732527 
L 70.946353 139.991749 
L 71.444757 139.334547 
L 71.943161 138.685008 
L 72.441566 138.042954 
L 72.93997 137.408214 
L 73.438375 136.780625 
L 73.936779 136.160026 
L 74.435183 135.546264 
L 74.933588 134.939189 
L 75.61205 134.123287 
L 76.290512 133.319161 
L 76.964965 132.531127 
L 77.639419 131.754083 
L 78.313872 130.987727 
L 78.988325 130.23177 
L 79.54911 129.610934 
L 80.109324 128.997562 
L 80.669539 128.390869 
L 81.229753 127.790711 
L 81.789967 127.196949 
L 82.4411 126.514683 
L 83.092232 125.840671 
L 83.743365 125.174715 
L 84.394497 124.516625 
L 85.506036 123.410865 
L 86.617574 122.326624 
L 87.460952 121.51781 
L 88.304331 120.72057 
L 88.94506 120.122427 
L 89.58579 119.530638 
L 90.226519 118.945069 
L 90.867249 118.36559 
L 91.766772 117.562094 
L 92.666296 116.770021 
L 93.588794 115.969247 
L 94.535974 115.158851 
L 95.483155 114.360073 
L 96.430335 113.572586 
L 97.377515 112.796074 
L 98.191179 112.137555 
L 99.004843 111.486728 
L 100.001437 110.699802 
L 100.998031 109.923836 
L 101.937928 109.201787 
L 102.877825 108.488975 
L 104.080808 107.589749 
L 105.283791 106.704806 
L 106.408344 105.890078 
L 107.767478 104.92104 
L 108.987163 104.065547 
L 110.206847 103.222992 
L 111.137316 102.588686 
L 112.067785 101.961521 
L 113.041148 101.312912 
L 114.014511 100.671768 
L 115.338657 99.811246 
L 116.662803 98.963812 
L 118.096708 98.060442 
L 119.530613 97.171485 
L 120.258977 96.725306 
L 121.757512 95.818426 
L 123.256048 94.926071 
L 124.930813 93.945399 
L 126.430301 93.081773 
L 128.239631 92.057208 
L 129.350386 91.437431 
L 130.461142 90.824473 
L 132.102662 89.930788 
L 133.744181 89.051213 
L 135.025946 88.373931 
L 137.117306 87.286237 
L 138.778774 86.437011 
L 140.070351 85.785675 
L 141.361929 85.141865 
L 143.33675 84.171643 
L 145.495746 83.129918 
L 146.650685 82.58055 
L 148.255286 81.826173 
L 149.859886 81.081874 
L 150.868738 80.618955 
L 153.11128 79.603521 
L 155.472209 78.55411 
L 157.240227 77.780985 
L 158.990944 77.025854 
L 160.74166 76.280821 
L 161.427157 75.991795 
L 163.051827 75.312713 
L 164.676498 74.641808 
L 165.907838 74.138657 
L 167.336928 73.560341 
L 169.061454 72.87037 
L 170.78598 72.188839 
L 171.56232 71.88473 
L 173.953039 70.958528 
L 175.526127 70.357381 
L 177.099216 69.762651 
L 178.184972 69.355837 
L 181.041917 68.299366 
L 182.078535 67.920935 
L 183.686876 67.338829 
L 185.295217 66.762742 
L 185.825387 66.57414 
L 187.745585 65.896345 
L 189.56111 65.262994 
L 191.376635 64.636762 
L 192.291063 64.323992 
L 193.706228 63.843386 
L 196.019695 63.066527 
L 198.498584 62.245967 
L 200.377027 61.632118 
L 203.006951 60.783901 
L 205.843862 59.883175 
L 206.195743 59.772461 
L 209.570683 58.721608 
L 210.707136 58.372165 
L 213.765825 57.442409 
L 215.589107 56.895474 
L 217.019516 56.470117 
L 219.548621 55.7259 
L 221.907614 55.040588 
L 222.883331 54.759578 
L 225.7322 53.947113 
L 226.738964 53.662805 
L 229.041172 53.018067 
L 231.443822 52.353063 
L 233.250714 51.85813 
L 235.461468 51.258495 
L 237.183744 50.795783 
L 238.771921 50.372478 
L 242.475081 49.397771 
L 242.901582 49.2866 
L 246.448141 48.370645 
L 248.476014 47.853603 
L 249.14231 47.684761 
L 252.148531 46.929272 
L 253.234126 46.65895 
L 255.302691 46.147465 
L 257.215731 45.678578 
L 260.921508 44.781366 
L 263.210746 44.234249 
L 263.692212 44.119862 
L 265.948117 43.587006 
L 267.689477 43.179146 
L 269.398622 42.781713 
L 271.944198 42.194989 
L 273.860616 41.757319 
L 275.991596 41.274652 
L 277.89946 40.846039 
L 280.445543 40.279135 
L 283.351239 39.639132 
L 285.223173 39.230683 
L 287.782222 38.677108 
L 289.784162 38.24785 
L 289.932362 38.216204 
L 293.680763 37.421703 
L 294.961328 37.152854 
L 297.028589 36.72156 
L 299.08593 36.295625 
L 301.952299 35.707572 
L 302.626841 35.570084 
L 306.177859 34.851838 
L 306.28796 34.829716 
L 309.949447 34.098985 
L 311.263543 33.839047 
L 313.246216 33.449141 
L 316.317833 32.850425 
L 317.796446 32.564493 
L 318.647275 32.400624 
L 321.477619 31.858943 
L 324.415353 31.302225 
L 325.921726 31.018902 
L 328.387151 30.558283 
L 329.585828 30.335701 
L 330.942399 30.084867 
L 334.740486 29.388539 
L 335.674637 29.2186 
L 337.574556 28.874562 
L 339.686232 28.494655 
L 341.988231 28.083438 
L 344.509772 27.636459 
L 345.175545 27.519037 
L 349.039614 26.842377 
L 351.129511 26.479799 
L 352.784531 26.194333 
L 353.440909 26.081521 
L 356.22091 25.60624 
L 358.53896 25.213012 
L 360.712379 24.846823 
L 362.976592 24.467879 
L 364.492036 24.215683 
L 366.235061 23.927018 
L 368.521838 23.550555 
L 370.329661 23.254731 
L 372.409458 22.916334 
L 374.796262 22.530501 
L 376.330626 22.28387 
L 379.237893 21.819535 
L 380.313908 21.648656 
L 383.150389 21.200696 
L 384.793585 20.942828 
L 386.743899 20.638304 
L 389.946039 20.141901 
L 390.332881 20.08223 
L 394.017257 19.517091 
L 395.681473 19.263687 
L 396.440467 19.1485 
L 399.667958 18.661328 
L 400.594241 18.522293 
L 403.01862 18.16003 
L 406.368658 17.663295 
L 407.607975 17.480649 
L 408.718609 17.317475 
L 410.854233 17.005046 
L 414.163077 16.524415 
L 415.352783 16.352611 
L 418.290785 15.930594 
L 419.244717 15.794255 
L 421.820762 15.427737 
L 423.133696 15.241857 
L 425.234423 14.945728 
L 428.046895 14.551716 
L 430.433639 14.219519 
L 432.035061 13.997731 
L 434.305368 13.684812 
L 436.157911 13.430769 
L 436.157911 13.430769 
z
" clip-path="url(#p915d558791)" style="fill: #add8e6; opacity: 0.5"/>
   </g>
   <g id="matplotlib.axis_1">
    <g id="xtick_1">
     <g id="line2d_1">
      <defs>
       <path id="m84119765f2" d="M 0 0 
L 0 3.5 
" style="stroke: #000000; stroke-width: 0.8"/>
      </defs>
      <g>
       <use xlink:href="#m84119765f2" x="28.942187" y="13.430769" style="stroke: #000000; stroke-width: 0.8"/>
      </g>
     </g>
    </g>
    <g id="xtick_2">
     <g id="line2d_2">
      <g>
       <use xlink:href="#m84119765f2" x="110.385332" y="13.430769" style="stroke: #000000; stroke-width: 0.8"/>
      </g>
     </g>
     <g id="text_1">
      <!-- 0.2 -->
      <g transform="translate(102.43377 28.029207) scale(0.1 -0.1)">
       <defs>
        <path id="DejaVuSans-30" d="M 2034 4250 
Q 1547 4250 1301 3770 
Q 1056 3291 1056 2328 
Q 1056 1369 1301 889 
Q 1547 409 2034 409 
Q 2525 409 2770 889 
Q 3016 1369 3016 2328 
Q 3016 3291 2770 3770 
Q 2525 4250 2034 4250 
z
M 2034 4750 
Q 2819 4750 3233 4129 
Q 3647 3509 3647 2328 
Q 3647 1150 3233 529 
Q 2819 -91 2034 -91 
Q 1250 -91 836 529 
Q 422 1150 422 2328 
Q 422 3509 836 4129 
Q 1250 4750 2034 4750 
z
" transform="scale(0.015625)"/>
        <path id="DejaVuSans-2e" d="M 684 794 
L 1344 794 
L 1344 0 
L 684 0 
L 684 794 
z
" transform="scale(0.015625)"/>
        <path id="DejaVuSans-32" d="M 1228 531 
L 3431 531 
L 3431 0 
L 469 0 
L 469 531 
Q 828 903 1448 1529 
Q 2069 2156 2228 2338 
Q 2531 2678 2651 2914 
Q 2772 3150 2772 3378 
Q 2772 3750 2511 3984 
Q 2250 4219 1831 4219 
Q 1534 4219 1204 4116 
Q 875 4013 500 3803 
L 500 4441 
Q 881 4594 1212 4672 
Q 1544 4750 1819 4750 
Q 2544 4750 2975 4387 
Q 3406 4025 3406 3419 
Q 3406 3131 3298 2873 
Q 3191 2616 2906 2266 
Q 2828 2175 2409 1742 
Q 1991 1309 1228 531 
z
" transform="scale(0.015625)"/>
       </defs>
       <use xlink:href="#DejaVuSans-30"/>
       <use xlink:href="#DejaVuSans-2e" x="63.623047"/>
       <use xlink:href="#DejaVuSans-32" x="95.410156"/>
      </g>
     </g>
    </g>
    <g id="xtick_3">
     <g id="line2d_3">
      <g>
       <use xlink:href="#m84119765f2" x="191.828477" y="13.430769" style="stroke: #000000; stroke-width: 0.8"/>
      </g>
     </g>
     <g id="text_2">
      <!-- 0.4 -->
      <g transform="translate(183.876914 28.029207) scale(0.1 -0.1)">
       <defs>
        <path id="DejaVuSans-34" d="M 2419 4116 
L 825 1625 
L 2419 1625 
L 2419 4116 
z
M 2253 4666 
L 3047 4666 
L 3047 1625 
L 3713 1625 
L 3713 1100 
L 3047 1100 
L 3047 0 
L 2419 0 
L 2419 1100 
L 313 1100 
L 313 1709 
L 2253 4666 
z
" transform="scale(0.015625)"/>
       </defs>
       <use xlink:href="#DejaVuSans-30"/>
       <use xlink:href="#DejaVuSans-2e" x="63.623047"/>
       <use xlink:href="#DejaVuSans-34" x="95.410156"/>
      </g>
     </g>
    </g>
    <g id="xtick_4">
     <g id="line2d_4">
      <g>
       <use xlink:href="#m84119765f2" x="273.271622" y="13.430769" style="stroke: #000000; stroke-width: 0.8"/>
      </g>
     </g>
     <g id="text_3">
      <!-- 0.6 -->
      <g transform="translate(265.320059 28.029207) scale(0.1 -0.1)">
       <defs>
        <path id="DejaVuSans-36" d="M 2113 2584 
Q 1688 2584 1439 2293 
Q 1191 2003 1191 1497 
Q 1191 994 1439 701 
Q 1688 409 2113 409 
Q 2538 409 2786 701 
Q 3034 994 3034 1497 
Q 3034 2003 2786 2293 
Q 2538 2584 2113 2584 
z
M 3366 4563 
L 3366 3988 
Q 3128 4100 2886 4159 
Q 2644 4219 2406 4219 
Q 1781 4219 1451 3797 
Q 1122 3375 1075 2522 
Q 1259 2794 1537 2939 
Q 1816 3084 2150 3084 
Q 2853 3084 3261 2657 
Q 3669 2231 3669 1497 
Q 3669 778 3244 343 
Q 2819 -91 2113 -91 
Q 1303 -91 875 529 
Q 447 1150 447 2328 
Q 447 3434 972 4092 
Q 1497 4750 2381 4750 
Q 2619 4750 2861 4703 
Q 3103 4656 3366 4563 
z
" transform="scale(0.015625)"/>
       </defs>
       <use xlink:href="#DejaVuSans-30"/>
       <use xlink:href="#DejaVuSans-2e" x="63.623047"/>
       <use xlink:href="#DejaVuSans-36" x="95.410156"/>
      </g>
     </g>
    </g>
    <g id="xtick_5">
     <g id="line2d_5">
      <g>
       <use xlink:href="#m84119765f2" x="354.714766" y="13.430769" style="stroke: #000000; stroke-width: 0.8"/>
      </g>
     </g>
     <g id="text_4">
      <!-- 0.8 -->
      <g transform="translate(346.763204 28.029207) scale(0.1 -0.1)">
       <defs>
        <path id="DejaVuSans-38" d="M 2034 2216 
Q 1584 2216 1326 1975 
Q 1069 1734 1069 1313 
Q 1069 891 1326 650 
Q 1584 409 2034 409 
Q 2484 409 2743 651 
Q 3003 894 3003 1313 
Q 3003 1734 2745 1975 
Q 2488 2216 2034 2216 
z
M 1403 2484 
Q 997 2584 770 2862 
Q 544 3141 544 3541 
Q 544 4100 942 4425 
Q 1341 4750 2034 4750 
Q 2731 4750 3128 4425 
Q 3525 4100 3525 3541 
Q 3525 3141 3298 2862 
Q 3072 2584 2669 2484 
Q 3125 2378 3379 2068 
Q 3634 1759 3634 1313 
Q 3634 634 3220 271 
Q 2806 -91 2034 -91 
Q 1263 -91 848 271 
Q 434 634 434 1313 
Q 434 1759 690 2068 
Q 947 2378 1403 2484 
z
M 1172 3481 
Q 1172 3119 1398 2916 
Q 1625 2713 2034 2713 
Q 2441 2713 2670 2916 
Q 2900 3119 2900 3481 
Q 2900 3844 2670 4047 
Q 2441 4250 2034 4250 
Q 1625 4250 1398 4047 
Q 1172 3844 1172 3481 
z
" transform="scale(0.015625)"/>
       </defs>
       <use xlink:href="#DejaVuSans-30"/>
       <use xlink:href="#DejaVuSans-2e" x="63.623047"/>
       <use xlink:href="#DejaVuSans-38" x="95.410156"/>
      </g>
     </g>
    </g>
    <g id="xtick_6">
     <g id="line2d_6">
      <g>
       <use xlink:href="#m84119765f2" x="436.157911" y="13.430769" style="stroke: #000000; stroke-width: 0.8"/>
      </g>
     </g>
     <g id="text_5">
      <!-- 1.0 -->
      <g transform="translate(428.206349 28.029207) scale(0.1 -0.1)">
       <defs>
        <path id="DejaVuSans-31" d="M 794 531 
L 1825 531 
L 1825 4091 
L 703 3866 
L 703 4441 
L 1819 4666 
L 2450 4666 
L 2450 531 
L 3481 531 
L 3481 0 
L 794 0 
L 794 531 
z
" transform="scale(0.015625)"/>
       </defs>
       <use xlink:href="#DejaVuSans-31"/>
       <use xlink:href="#DejaVuSans-2e" x="63.623047"/>
       <use xlink:href="#DejaVuSans-30" x="95.410156"/>
      </g>
     </g>
    </g>
    <g id="xtick_7">
     <g id="line2d_7">
      <defs>
       <path id="m46b34361f8" d="M 0 0 
L 0 2 
" style="stroke: #000000; stroke-width: 0.6"/>
      </defs>
      <g>
       <use xlink:href="#m46b34361f8" x="49.302974" y="13.430769" style="stroke: #000000; stroke-width: 0.6"/>
      </g>
     </g>
    </g>
    <g id="xtick_8">
     <g id="line2d_8">
      <g>
       <use xlink:href="#m46b34361f8" x="69.66376" y="13.430769" style="stroke: #000000; stroke-width: 0.6"/>
      </g>
     </g>
    </g>
    <g id="xtick_9">
     <g id="line2d_9">
      <g>
       <use xlink:href="#m46b34361f8" x="90.024546" y="13.430769" style="stroke: #000000; stroke-width: 0.6"/>
      </g>
     </g>
    </g>
    <g id="xtick_10">
     <g id="line2d_10">
      <g>
       <use xlink:href="#m46b34361f8" x="130.746118" y="13.430769" style="stroke: #000000; stroke-width: 0.6"/>
      </g>
     </g>
    </g>
    <g id="xtick_11">
     <g id="line2d_11">
      <g>
       <use xlink:href="#m46b34361f8" x="151.106905" y="13.430769" style="stroke: #000000; stroke-width: 0.6"/>
      </g>
     </g>
    </g>
    <g id="xtick_12">
     <g id="line2d_12">
      <g>
       <use xlink:href="#m46b34361f8" x="171.467691" y="13.430769" style="stroke: #000000; stroke-width: 0.6"/>
      </g>
     </g>
    </g>
    <g id="xtick_13">
     <g id="line2d_13">
      <g>
       <use xlink:href="#m46b34361f8" x="212.189263" y="13.430769" style="stroke: #000000; stroke-width: 0.6"/>
      </g>
     </g>
    </g>
    <g id="xtick_14">
     <g id="line2d_14">
      <g>
       <use xlink:href="#m46b34361f8" x="232.550049" y="13.430769" style="stroke: #000000; stroke-width: 0.6"/>
      </g>
     </g>
    </g>
    <g id="xtick_15">
     <g id="line2d_15">
      <g>
       <use xlink:href="#m46b34361f8" x="252.910836" y="13.430769" style="stroke: #000000; stroke-width: 0.6"/>
      </g>
     </g>
    </g>
    <g id="xtick_16">
     <g id="line2d_16">
      <g>
       <use xlink:href="#m46b34361f8" x="293.632408" y="13.430769" style="stroke: #000000; stroke-width: 0.6"/>
      </g>
     </g>
    </g>
    <g id="xtick_17">
     <g id="line2d_17">
      <g>
       <use xlink:href="#m46b34361f8" x="313.993194" y="13.430769" style="stroke: #000000; stroke-width: 0.6"/>
      </g>
     </g>
    </g>
    <g id="xtick_18">
     <g id="line2d_18">
      <g>
       <use xlink:href="#m46b34361f8" x="334.35398" y="13.430769" style="stroke: #000000; stroke-width: 0.6"/>
      </g>
     </g>
    </g>
    <g id="xtick_19">
     <g id="line2d_19">
      <g>
       <use xlink:href="#m46b34361f8" x="375.075553" y="13.430769" style="stroke: #000000; stroke-width: 0.6"/>
      </g>
     </g>
    </g>
    <g id="xtick_20">
     <g id="line2d_20">
      <g>
       <use xlink:href="#m46b34361f8" x="395.436339" y="13.430769" style="stroke: #000000; stroke-width: 0.6"/>
      </g>
     </g>
    </g>
    <g id="xtick_21">
     <g id="line2d_21">
      <g>
       <use xlink:href="#m46b34361f8" x="415.797125" y="13.430769" style="stroke: #000000; stroke-width: 0.6"/>
      </g>
     </g>
    </g>
   </g>
   <g id="matplotlib.axis_2">
    <g id="ytick_1">
     <g id="line2d_22">
      <defs>
       <path id="m07be8184c4" d="M 0 0 
L -3.5 0 
" style="stroke: #000000; stroke-width: 0.8"/>
      </defs>
      <g>
       <use xlink:href="#m07be8184c4" x="28.942187" y="292.006248" style="stroke: #000000; stroke-width: 0.8"/>
      </g>
     </g>
     <g id="text_6">
      <!-- −5 -->
      <g transform="translate(7.2 295.805467) scale(0.1 -0.1)">
       <defs>
        <path id="DejaVuSans-2212" d="M 678 2272 
L 4684 2272 
L 4684 1741 
L 678 1741 
L 678 2272 
z
" transform="scale(0.015625)"/>
        <path id="DejaVuSans-35" d="M 691 4666 
L 3169 4666 
L 3169 4134 
L 1269 4134 
L 1269 2991 
Q 1406 3038 1543 3061 
Q 1681 3084 1819 3084 
Q 2600 3084 3056 2656 
Q 3513 2228 3513 1497 
Q 3513 744 3044 326 
Q 2575 -91 1722 -91 
Q 1428 -91 1123 -41 
Q 819 9 494 109 
L 494 744 
Q 775 591 1075 516 
Q 1375 441 1709 441 
Q 2250 441 2565 725 
Q 2881 1009 2881 1497 
Q 2881 1984 2565 2268 
Q 2250 2553 1709 2553 
Q 1456 2553 1204 2497 
Q 953 2441 691 2322 
L 691 4666 
z
" transform="scale(0.015625)"/>
       </defs>
       <use xlink:href="#DejaVuSans-2212"/>
       <use xlink:href="#DejaVuSans-35" x="83.789062"/>
      </g>
     </g>
    </g>
    <g id="ytick_2">
     <g id="line2d_23">
      <g>
       <use xlink:href="#m07be8184c4" x="28.942187" y="236.291152" style="stroke: #000000; stroke-width: 0.8"/>
      </g>
     </g>
     <g id="text_7">
      <!-- −4 -->
      <g transform="translate(7.2 240.090371) scale(0.1 -0.1)">
       <use xlink:href="#DejaVuSans-2212"/>
       <use xlink:href="#DejaVuSans-34" x="83.789062"/>
      </g>
     </g>
    </g>
    <g id="ytick_3">
     <g id="line2d_24">
      <g>
       <use xlink:href="#m07be8184c4" x="28.942187" y="180.576056" style="stroke: #000000; stroke-width: 0.8"/>
      </g>
     </g>
     <g id="text_8">
      <!-- −3 -->
      <g transform="translate(7.2 184.375275) scale(0.1 -0.1)">
       <defs>
        <path id="DejaVuSans-33" d="M 2597 2516 
Q 3050 2419 3304 2112 
Q 3559 1806 3559 1356 
Q 3559 666 3084 287 
Q 2609 -91 1734 -91 
Q 1441 -91 1130 -33 
Q 819 25 488 141 
L 488 750 
Q 750 597 1062 519 
Q 1375 441 1716 441 
Q 2309 441 2620 675 
Q 2931 909 2931 1356 
Q 2931 1769 2642 2001 
Q 2353 2234 1838 2234 
L 1294 2234 
L 1294 2753 
L 1863 2753 
Q 2328 2753 2575 2939 
Q 2822 3125 2822 3475 
Q 2822 3834 2567 4026 
Q 2313 4219 1838 4219 
Q 1578 4219 1281 4162 
Q 984 4106 628 3988 
L 628 4550 
Q 988 4650 1302 4700 
Q 1616 4750 1894 4750 
Q 2613 4750 3031 4423 
Q 3450 4097 3450 3541 
Q 3450 3153 3228 2886 
Q 3006 2619 2597 2516 
z
" transform="scale(0.015625)"/>
       </defs>
       <use xlink:href="#DejaVuSans-2212"/>
       <use xlink:href="#DejaVuSans-33" x="83.789062"/>
      </g>
     </g>
    </g>
    <g id="ytick_4">
     <g id="line2d_25">
      <g>
       <use xlink:href="#m07be8184c4" x="28.942187" y="124.860961" style="stroke: #000000; stroke-width: 0.8"/>
      </g>
     </g>
     <g id="text_9">
      <!-- −2 -->
      <g transform="translate(7.2 128.660179) scale(0.1 -0.1)">
       <use xlink:href="#DejaVuSans-2212"/>
       <use xlink:href="#DejaVuSans-32" x="83.789062"/>
      </g>
     </g>
    </g>
    <g id="ytick_5">
     <g id="line2d_26">
      <g>
       <use xlink:href="#m07be8184c4" x="28.942187" y="69.145865" style="stroke: #000000; stroke-width: 0.8"/>
      </g>
     </g>
     <g id="text_10">
      <!-- −1 -->
      <g transform="translate(7.2 72.945084) scale(0.1 -0.1)">
       <use xlink:href="#DejaVuSans-2212"/>
       <use xlink:href="#DejaVuSans-31" x="83.789062"/>
      </g>
     </g>
    </g>
    <g id="ytick_6">
     <g id="line2d_27">
      <g>
       <use xlink:href="#m07be8184c4" x="28.942187" y="13.430769" style="stroke: #000000; stroke-width: 0.8"/>
      </g>
     </g>
    </g>
    <g id="ytick_7">
     <g id="line2d_28">
      <defs>
       <path id="ma09de6657f" d="M 0 0 
L -2 0 
" style="stroke: #000000; stroke-width: 0.6"/>
      </defs>
      <g>
       <use xlink:href="#ma09de6657f" x="28.942187" y="325.435305" style="stroke: #000000; stroke-width: 0.6"/>
      </g>
     </g>
    </g>
    <g id="ytick_8">
     <g id="line2d_29">
      <g>
       <use xlink:href="#ma09de6657f" x="28.942187" y="314.292286" style="stroke: #000000; stroke-width: 0.6"/>
      </g>
     </g>
    </g>
    <g id="ytick_9">
     <g id="line2d_30">
      <g>
       <use xlink:href="#ma09de6657f" x="28.942187" y="303.149267" style="stroke: #000000; stroke-width: 0.6"/>
      </g>
     </g>
    </g>
    <g id="ytick_10">
     <g id="line2d_31">
      <g>
       <use xlink:href="#ma09de6657f" x="28.942187" y="280.863229" style="stroke: #000000; stroke-width: 0.6"/>
      </g>
     </g>
    </g>
    <g id="ytick_11">
     <g id="line2d_32">
      <g>
       <use xlink:href="#ma09de6657f" x="28.942187" y="269.720209" style="stroke: #000000; stroke-width: 0.6"/>
      </g>
     </g>
    </g>
    <g id="ytick_12">
     <g id="line2d_33">
      <g>
       <use xlink:href="#ma09de6657f" x="28.942187" y="258.57719" style="stroke: #000000; stroke-width: 0.6"/>
      </g>
     </g>
    </g>
    <g id="ytick_13">
     <g id="line2d_34">
      <g>
       <use xlink:href="#ma09de6657f" x="28.942187" y="247.434171" style="stroke: #000000; stroke-width: 0.6"/>
      </g>
     </g>
    </g>
    <g id="ytick_14">
     <g id="line2d_35">
      <g>
       <use xlink:href="#ma09de6657f" x="28.942187" y="225.148133" style="stroke: #000000; stroke-width: 0.6"/>
      </g>
     </g>
    </g>
    <g id="ytick_15">
     <g id="line2d_36">
      <g>
       <use xlink:href="#ma09de6657f" x="28.942187" y="214.005114" style="stroke: #000000; stroke-width: 0.6"/>
      </g>
     </g>
    </g>
    <g id="ytick_16">
     <g id="line2d_37">
      <g>
       <use xlink:href="#ma09de6657f" x="28.942187" y="202.862095" style="stroke: #000000; stroke-width: 0.6"/>
      </g>
     </g>
    </g>
    <g id="ytick_17">
     <g id="line2d_38">
      <g>
       <use xlink:href="#ma09de6657f" x="28.942187" y="191.719075" style="stroke: #000000; stroke-width: 0.6"/>
      </g>
     </g>
    </g>
    <g id="ytick_18">
     <g id="line2d_39">
      <g>
       <use xlink:href="#ma09de6657f" x="28.942187" y="169.433037" style="stroke: #000000; stroke-width: 0.6"/>
      </g>
     </g>
    </g>
    <g id="ytick_19">
     <g id="line2d_40">
      <g>
       <use xlink:href="#ma09de6657f" x="28.942187" y="158.290018" style="stroke: #000000; stroke-width: 0.6"/>
      </g>
     </g>
    </g>
    <g id="ytick_20">
     <g id="line2d_41">
      <g>
       <use xlink:href="#ma09de6657f" x="28.942187" y="147.146999" style="stroke: #000000; stroke-width: 0.6"/>
      </g>
     </g>
    </g>
    <g id="ytick_21">
     <g id="line2d_42">
      <g>
       <use xlink:href="#ma09de6657f" x="28.942187" y="136.00398" style="stroke: #000000; stroke-width: 0.6"/>
      </g>
     </g>
    </g>
    <g id="ytick_22">
     <g id="line2d_43">
      <g>
       <use xlink:href="#ma09de6657f" x="28.942187" y="113.717942" style="stroke: #000000; stroke-width: 0.6"/>
      </g>
     </g>
    </g>
    <g id="ytick_23">
     <g id="line2d_44">
      <g>
       <use xlink:href="#ma09de6657f" x="28.942187" y="102.574922" style="stroke: #000000; stroke-width: 0.6"/>
      </g>
     </g>
    </g>
    <g id="ytick_24">
     <g id="line2d_45">
      <g>
       <use xlink:href="#ma09de6657f" x="28.942187" y="91.431903" style="stroke: #000000; stroke-width: 0.6"/>
      </g>
     </g>
    </g>
    <g id="ytick_25">
     <g id="line2d_46">
      <g>
       <use xlink:href="#ma09de6657f" x="28.942187" y="80.288884" style="stroke: #000000; stroke-width: 0.6"/>
      </g>
     </g>
    </g>
    <g id="ytick_26">
     <g id="line2d_47">
      <g>
       <use xlink:href="#ma09de6657f" x="28.942187" y="58.002846" style="stroke: #000000; stroke-width: 0.6"/>
      </g>
     </g>
    </g>
    <g id="ytick_27">
     <g id="line2d_48">
      <g>
       <use xlink:href="#ma09de6657f" x="28.942187" y="46.859827" style="stroke: #000000; stroke-width: 0.6"/>
      </g>
     </g>
    </g>
    <g id="ytick_28">
     <g id="line2d_49">
      <g>
       <use xlink:href="#ma09de6657f" x="28.942187" y="35.716808" style="stroke: #000000; stroke-width: 0.6"/>
      </g>
     </g>
    </g>
    <g id="ytick_29">
     <g id="line2d_50">
      <g>
       <use xlink:href="#ma09de6657f" x="28.942187" y="24.573788" style="stroke: #000000; stroke-width: 0.6"/>
      </g>
     </g>
    </g>
   </g>
   <g id="line2d_51">
    <path d="M 30.460665 324.969231 
L 31.136275 304.462864 
L 31.908399 287.663668 
L 32.77704 273.35351 
L 33.785147 260.349887 
L 34.886395 248.93435 
L 36.066304 238.846102 
L 37.409197 229.224565 
L 38.78521 220.834684 
L 40.32304 212.746552 
L 42.02125 204.997677 
L 43.871352 197.626346 
L 45.874078 190.612807 
L 47.862314 184.426906 
L 49.934774 178.635708 
L 52.150397 173.045436 
L 54.663632 167.316868 
L 57.387958 161.707783 
L 60.300425 156.276814 
L 63.215757 151.323881 
L 66.49683 146.230267 
L 69.825749 141.498324 
L 73.438375 136.780625 
L 76.964965 132.531127 
L 80.669539 128.390869 
L 84.394497 124.516625 
L 88.94506 120.122427 
L 93.588794 115.969247 
L 98.191179 112.137555 
L 102.877825 108.488975 
L 107.767478 104.92104 
L 114.014511 100.671768 
L 120.258977 96.725306 
L 126.430301 93.081773 
L 133.744181 89.051213 
L 141.361929 85.141865 
L 149.859886 81.081874 
L 157.240227 77.780985 
L 165.907838 74.138657 
L 175.526127 70.357381 
L 185.825387 66.57414 
L 196.019695 63.066527 
L 206.195743 59.772461 
L 219.548621 55.7259 
L 233.250714 51.85813 
L 246.448141 48.370645 
L 260.921508 44.781366 
L 275.991596 41.274652 
L 289.932362 38.216204 
L 306.28796 34.829716 
L 325.921726 31.018902 
L 345.175545 27.519037 
L 366.235061 23.927018 
L 386.743899 20.638304 
L 410.854233 17.005046 
L 436.157911 13.430769 
L 436.157911 13.430769 
" clip-path="url(#p915d558791)" style="fill: none; stroke: #0000ff; stroke-linecap: square"/>
   </g>
   <g id="patch_4">
    <path d="M 28.942187 331.2 
L 28.942187 7.2 
" style="fill: none; stroke: #000000; stroke-width: 0.8; stroke-linejoin: miter; stroke-linecap: square"/>
   </g>
   <g id="patch_5">
    <path d="M 22.34672 13.430769 
L 444.271856 13.430769 
" style="fill: none; stroke: #000000; stroke-width: 0.8; stroke-linejoin: miter; stroke-linecap: square"/>
   </g>
   <g id="text_11">
    <!-- $\ln x$ -->
    <g transform="translate(179.428477 101.418413) scale(0.16 -0.16)">
     <defs>
      <path id="Cmr10-6c" d="M 197 0 
L 197 225 
Q 416 225 556 259 
Q 697 294 697 428 
L 697 3788 
Q 697 3959 645 4036 
Q 594 4113 497 4130 
Q 400 4147 197 4147 
L 197 4372 
L 1147 4441 
L 1147 428 
Q 1147 294 1287 259 
Q 1428 225 1644 225 
L 1644 0 
L 197 0 
z
" transform="scale(0.015625)"/>
      <path id="Cmr10-6e" d="M 191 0 
L 191 225 
Q 409 225 550 259 
Q 691 294 691 428 
L 691 2175 
Q 691 2347 639 2423 
Q 588 2500 491 2517 
Q 394 2534 191 2534 
L 191 2759 
L 1119 2828 
L 1119 2203 
Q 1247 2478 1498 2653 
Q 1750 2828 2047 2828 
Q 2491 2828 2714 2615 
Q 2938 2403 2938 1966 
L 2938 428 
Q 2938 294 3078 259 
Q 3219 225 3438 225 
L 3438 0 
L 1972 0 
L 1972 225 
Q 2191 225 2331 259 
Q 2472 294 2472 428 
L 2472 1947 
Q 2472 2259 2381 2461 
Q 2291 2663 2009 2663 
Q 1638 2663 1398 2366 
Q 1159 2069 1159 1691 
L 1159 428 
Q 1159 294 1300 259 
Q 1441 225 1656 225 
L 1656 0 
L 191 0 
z
" transform="scale(0.015625)"/>
      <path id="Cmmi10-78" d="M 500 184 
Q 613 97 819 97 
Q 1019 97 1172 289 
Q 1325 481 1381 709 
L 1672 1844 
Q 1741 2153 1741 2266 
Q 1741 2425 1652 2544 
Q 1563 2663 1403 2663 
Q 1200 2663 1022 2536 
Q 844 2409 722 2214 
Q 600 2019 550 1819 
Q 538 1778 500 1778 
L 422 1778 
Q 372 1778 372 1838 
L 372 1856 
Q 434 2094 584 2320 
Q 734 2547 951 2687 
Q 1169 2828 1416 2828 
Q 1650 2828 1839 2703 
Q 2028 2578 2106 2363 
Q 2216 2559 2386 2693 
Q 2556 2828 2759 2828 
Q 2897 2828 3040 2779 
Q 3184 2731 3275 2631 
Q 3366 2531 3366 2381 
Q 3366 2219 3261 2101 
Q 3156 1984 2994 1984 
Q 2891 1984 2822 2050 
Q 2753 2116 2753 2216 
Q 2753 2350 2845 2451 
Q 2938 2553 3066 2572 
Q 2950 2663 2747 2663 
Q 2541 2663 2389 2472 
Q 2238 2281 2175 2047 
L 1894 916 
Q 1825 659 1825 494 
Q 1825 331 1917 214 
Q 2009 97 2163 97 
Q 2463 97 2698 361 
Q 2934 625 3009 941 
Q 3022 978 3059 978 
L 3138 978 
Q 3163 978 3178 961 
Q 3194 944 3194 922 
Q 3194 916 3188 903 
Q 3097 522 2806 225 
Q 2516 -72 2150 -72 
Q 1916 -72 1727 54 
Q 1538 181 1459 397 
Q 1359 209 1182 68 
Q 1006 -72 806 -72 
Q 669 -72 523 -23 
Q 378 25 287 125 
Q 197 225 197 378 
Q 197 528 301 651 
Q 406 775 563 775 
Q 669 775 741 711 
Q 813 647 813 544 
Q 813 409 723 309 
Q 634 209 500 184 
z
" transform="scale(0.015625)"/>
     </defs>
     <use xlink:href="#Cmr10-6c" transform="translate(0 0.609375)"/>
     <use xlink:href="#Cmr10-6e" transform="translate(27.685547 0.609375)"/>
     <use xlink:href="#Cmmi10-78" transform="translate(97.835579 0.609375)"/>
    </g>
   </g>
  </g>
 </g>
 <defs>
  <clipPath id="p915d558791">
   <rect x="22.34672" y="7.2" width="421.925136" height="324"/>
  </clipPath>
 </defs>
</svg>
